/* XPM */
static char *east_texture2[] = {
/* columns rows colors chars-per-pixel */
"64 64 191 2 ",
"   c #161A1F",
".  c #1C1A1E",
"X  c #261C14",
"o  c #241B1D",
"O  c #2C1C1C",
"+  c #24221E",
"@  c #2D231E",
"#  c #2E2C1F",
"$  c #35221E",
"%  c #39231D",
"&  c #312B1E",
"*  c #3D2C1F",
"=  c #1C1721",
"-  c #161C24",
";  c #1C1B23",
":  c #171E28",
">  c #1C1D29",
",  c #221C21",
"<  c #291E23",
"1  c #1C2126",
"2  c #15212D",
"3  c #1C232D",
"4  c #172330",
"5  c #1C2531",
"6  c #1D2A34",
"7  c #1E2939",
"8  c #232122",
"9  c #2B2424",
"0  c #2D2A25",
"q  c #24242A",
"w  c #2B252A",
"e  c #26292F",
"r  c #2C2C2C",
"t  c #332322",
"y  c #392421",
"u  c #342A24",
"i  c #3D2B24",
"p  c #32252A",
"a  c #38262A",
"s  c #342D2B",
"d  c #3C2C2B",
"f  c #313027",
"g  c #3C3225",
"h  c #34312C",
"j  c #3C322D",
"k  c #383A29",
"l  c #242632",
"z  c #222A35",
"x  c #2A2A33",
"c  c #242D3B",
"v  c #292F3C",
"b  c #332D31",
"n  c #3A2E32",
"m  c #3F2F3B",
"M  c #253439",
"N  c #2B323C",
"B  c #333231",
"V  c #3B3332",
"C  c #3D3A34",
"Z  c #33333B",
"A  c #323838",
"S  c #383838",
"D  c #400000",
"F  c #4C0000",
"G  c #580000",
"H  c #640000",
"J  c #700000",
"K  c #7C0000",
"L  c #42261B",
"P  c #442C1F",
"I  c #51361E",
"U  c #432C24",
"Y  c #4B2C23",
"T  c #432D2B",
"R  c #4C2F2B",
"E  c #552F25",
"W  c #592F26",
"Q  c #542F2A",
"!  c #592E29",
"~  c #443225",
"^  c #4D3226",
"/  c #45322D",
"(  c #4C332C",
")  c #423C2D",
"_  c #4E3B2F",
"`  c #533226",
"'  c #5B3426",
"]  c #5E3927",
"[  c #53332B",
"{  c #5B352C",
"}  c #55392D",
"|  c #5A392D",
" . c #422F30",
".. c #4B2F31",
"X. c #453332",
"o. c #4C3431",
"O. c #423C34",
"+. c #4D3933",
"@. c #443238",
"#. c #4B3638",
"$. c #433E39",
"%. c #4C3B39",
"&. c #533632",
"*. c #5B3531",
"=. c #533A33",
"-. c #5B3E33",
";. c #5E3F3C",
":. c #613627",
">. c #61362B",
",. c #643C2B",
"<. c #623D33",
"1. c #683F30",
"2. c #434133",
"3. c #484137",
"4. c #44413A",
"5. c #49433D",
"6. c #4D4B3C",
"7. c #534235",
"8. c #5D4234",
"9. c #56443C",
"0. c #5A423B",
"q. c #544E3E",
"w. c #5F4B39",
"e. c #67422F",
"r. c #6A412E",
"t. c #634234",
"y. c #6A4734",
"u. c #664A34",
"i. c #6B4A34",
"p. c #64443B",
"a. c #69463A",
"s. c #61493A",
"d. c #6A4A3A",
"f. c #273444",
"g. c #2D3342",
"h. c #2C3C46",
"j. c #2C3C49",
"k. c #313A45",
"l. c #353E4C",
"z. c #573F40",
"x. c #36414E",
"c. c #3A444F",
"v. c #364152",
"b. c #3B4553",
"n. c #364B54",
"m. c #3B4955",
"M. c #3D4658",
"N. c #3C485A",
"B. c #404040",
"V. c #4A4541",
"C. c #4D4C44",
"Z. c #484848",
"A. c #524D44",
"S. c #584B40",
"D. c #534E4A",
"F. c #4F5045",
"G. c #545246",
"H. c #53534B",
"J. c #595C4C",
"K. c #424E5A",
"L. c #43515B",
"P. c gray33",
"I. c #5E5D50",
"U. c #5D6555",
"Y. c #4C5562",
"T. c #49566E",
"R. c #46596B",
"E. c #485968",
"W. c #57646E",
"Q. c #566876",
"!. c #566A7D",
"~. c #6E6C65",
"^. c #6D7466",
"/. c #697A69",
"(. c #717667",
"). c #7A7264",
"_. c #767967",
"`. c #75756A",
"'. c #79776A",
"]. c #737A6B",
"[. c #7A7B68",
"{. c #767770",
"}. c #880000",
"|. c #980000",
" X c #A40000",
".X c #B00000",
"XX c #BC0000",
"oX c #C80000",
"OX c #D40000",
"+X c #E00000",
"@X c #EC0000",
/* pixels */
"S S S S S S S S S S S S S S S S S S S S S S S S S S S S S S S S S S S S S S S S S S S S S S S S S S S S S S S S S S S S S S S S ",
"P.S P.Z.Z.Z.Z.Z.P.Z.Z.Z.Z.Z.Z.P.Z.S Z.Z.Z.Z.Z.Z.Z.P.P.P.P.P.P.Z.Z.Z.Z.Z.Z.Z.Z.Z.P.P.P.P.P.P.P.Z.Z.Z.Z.S S S Z.Z.P.P.Z.Z.Z.Z.Z.S ",
"S @X@XOXOXOXOXOXOXOXOXOX XZ.Z.P.@X@XOXOXOXOXOXOXOXOXOXOXOXOXOXOXOXOXOXOX XZ.S P.@X@X@X@X+X+X+XOX+X+XOXOXOXOXOXoXoXoXoXXXXXXX XZ.",
"Z.@XoX.X.XOX}. X9 s b b w 9 s s d s h C s h s r s h s s 0 0 O.f s s s s b h h s f s h C h O.s s h s s s .XoX}..X XK oX|.oX XK r ",
"Z.OX XK  X}. X|.9 9 w w 9 < w 9 9 9 0 9 9 w w q w 9 w w q 9 0 0 w 9 9 w w w w 0 0 9 9 0 0 9 0 w w w w 9  X X}. XK }. XG  XJ H r ",
"Z.OXK  X XJ |. XV.5.9 w 9 9 9 w 9 9 9 9 9 < < q 9 e q 9 9 9 @ q w < $ q q 8 w 8 + w q @ @ 9 9 9 9 p V.V.}. XH  X|.K  XK  XJ F r ",
"Z.oX XK }.|.K  X3.D.u d s 9 @ 9 w 0 %.i a X.$ T / t 9 j d i 7.t t ( -./ t & t u / & y / / i $ j @ 9 O.3.J  X}. X XK  XG  X}.F r ",
"Z.XXK  X XJ  X|.A.G.u / i $ ( ( y u 9.U / +.% ( +.i U ( ( { | * % | i.^ $ 7.* e.} i u } } u & +.9 9 s C }. XH  XK }. XK  XJ D r ",
"Z.XX XJ }.G J K C G.u ..X.U *.&.i i 8.U ) ( $ R &.U X.( ` { { T i t.i.^ % w.` i.} ~ [ } ( i * X.9 w s V F J F }.H F J }.J }.D s ",
"Z.K H H H D D D # C.u ( =.U { [ U ) 8.U / ^ t ( [ U T _ ` { ] ^ U t.i.^ $ s.I r.| P } { ( i ( / < 9 o 9 G G G G G G G G X F D 0 ",
"Z.Z.r r r r r r 6.G.& X.R Y { &.U ^ u.P ( ^ $ ^ *.[ U ^ ` ' { R U t.e.^ $ } ` 1.{ [ ] { ( L } ( t p V.C.8 + 8 ; 8 r r r r r r r ",
"P.S S S S Z.Z.Z.3.G.& ( &.R { Q } [ y.P ( ( $ / [ Y ^ [ ` { { [ [ | e.^ $ [ ' :.{ ! >.>.( [ { X.9 9 V 3.V.l.S B.P.S P.Z.Z.Z.P.S ",
"@XOXOXOXXXXXXXXX) G.u ( ( ` { Q =.[ y.[ ( / $ R &.[ ` [ [ { } ( Y { t.( $ [ ` { { W { { Q ` { R t w C d  XZ.B.P.@X@XOXOXOXOXOXOX",
".X}.}..X|.K .XK g S.u T ( E *.*.*.[ e.Y / ~ t R | { ` [ ( ( ^ ( ` { 1.( $ &.` ] { { *.&.Q { [ ( < 9 h V D S Z.S @XoXK .X}..X}..X",
"}. X}. XK }.}.H ) A.a R ( ( o.a p 9 ;.*.( / y R *.{ ` / w x 0 X.` E { Q t &.Q [ &.u < u ( *.Q X.@ w h C D S Z.P.oX.XK  X}.K  X|.",
"J  X X}.|.H  XK s s u ( Q R w M m.N r =.Q R $ } *.[ ( 0 N m.f.w ^ } { ( $ R Q [ p N M.g.0 &.( R 9 0 s s D r B.Z.oXK  X X XK  XK ",
" X}.}. X}.K K }.0 . 9 X.[ R = 7 Q.Y.w o.[ X.t [ *.[ &.o 6 R.n.e T ` } R t X.[ [ , 7 T.N.q &.[ / @ 9 o h D r S Z.oX.XK  XK  X|.K ",
"J  XH  XJ }.K |.F.+ 9 ( [ &.o - z A t &.( / @ &.{ ! &.O . l N w ..Q { ( t ..( } O . l g.e T ( R < u C.D.D . S Z..XK  X XG  XK }.",
"J XXH J F K J |.H.C.p / &.&.t , > w &.{ ^ ( y [ Q ^ } 7.O o w @.X.{ { R t R [ | *.O o w n X.[ &.t 9 B $.D 8 B.P..X XK J G J |.J ",
"X G F F F F F F G.A.u / { [ o.t X.( { { [ / $ o.[ ^ [ p.( ( X.X.[ | { R t  .` >.a.` &.=.X.0.[ &.9 9 s O.D 8 Z.S  XH D H D D H D ",
"r r r 1 r r r 8 2.A.u ^ ^ ` 0.L [ ` ' { ^ / $ &.[ ^ [ { ` *.*...Q >.*.R t  .! :.e.` ] { | 8.[ &.$ 9 s S r S Z.P.Z.r r r r r r r ",
"P.P.Z.S S Z.P.S 2.C.u / [ [ =.( =.[ { { [ / $ &.[ ^ ` <.' { { E { { &.( t  .( { d.^ { :.{ 8.[ &.< 9 b O.P.Z.P.S P.B.S B.P.Z.Z.Z.",
"P.@X@XOXOXOXOXOX2.A.p ( [ ` t.[ &.! ! { [ / $ &.{ ( ( { [ { { [ { ' ( ( t R [ } 9.9 ( =.9.$ ( o.t w s O.XXXXXXXXXXXXXXXXXXXX XZ.",
"P.@X}..XXXK XXK 2.A.u ( } ' t.` [ R ! { ( / $ { { Q ` } [ { { [ { { ( / t ^ ( / 9 o 9 C 9 8 X.@.9 9 s O.}. X|.}. XK }. XG  XD r ",
"S @X.X}. X|. XK 2.q.0 ( } ` t.[ U ( *.{ [ X.$ } { *.[ { [ } Q { { { ^ / % [ / 8 > x = 1 : . < ; q ; s O. X}. XH  X|.K  XK J D r ",
"Z.XXH  X XJ }.G O.G.u T } ` u.^ U ^ { { Q  .$ [ { { ! { ! [ Q { ' { [ / $ o.y ; c 4 : : 6 2   - 1 ; s s |.J |.}. X XK  XG J D r ",
"Z.XX.X}. XF  XG 2.C.w d ^ I u.( d ( { { U X.$ &.[ { ! &.! } ` ' ` { ` X.t 9.+.s > l > w ; ; w 8 ; ; C s  X}. XH  XK }. XK J D r ",
"P.XXJ H  XF }.K 2.A.w s j I 8.T t ( *.[ d X.t [ ` { ! *.! } Q { ' ' ` X.y 0.[ 7.s o 0 @.u O @.#.O w s C  XF  X X}.H F J }.J D r ",
"Z.oX XH J J J G _ G.0 q u ~ =.u @ ~ ( y 9 V t [ ` { ! { ! *.E { E { [ / % 8.` e.} * o.[ &.U [ &.$ # f C J }.F  XG .XF  XJ J D r ",
"Z. X|.H H H H H $.5.0 e e e 0 B r h O.s Z g.t [ { { ` [ [ { { } ' [ [ / $ u.' i.{ { &.[ &.-.{ &.@ 9 f S G G G G G H X G K G D r ",
"Z.Z.S r r r r r h 8 8 x N N 2 c c N l.v x.b.t &.{ { ` { ` { 8.] ,.{ ` / % w.' u.:.{ { ( { E [ [ t w 0 s 8 r r r r r r r r r r r ",
"P.P.P.P.P.Z.Z.S C 0 8 : 5 z z 5 5 5 3 3 5 v 9 T &.[ E { [ { ' ] r.' ^ / % 8.' e.:.:.{ ` { *.[ [ t 9 f h B.Z.Z.Z.P.S P.Z.Z.Z.P.S ",
"XXXXXXXXXXXXXXXXA.G.0 . 1 e x 5 c 4 l z 3 e 9 s / ^ ` *.( T +.| ,.:.Q / $ 8.[ | *.R T U *.0.[ =.t w V.C.OXOXXXXXXXXXXXXXXXXXXXXX",
" X.X X.X|.oX.X.XC A.9   - 3 4 h.E.j.5 x > z q i / ( ( n x x x / d.:.E ( $ -.[ }  .x k.x  .( R &.t 9 s C K }.K  XJ  X}. XK  XJ  X",
" XK }. X|. XK  X4.D.q . 1 2 A v.E.b.k.q 6 l.V  .^ ^ ( 8 v Y.j.9 t.:.` / $ } [ %.8 f.!.x.w ..[ &.t 9 s $.}. XK }.}.|.J |.K |.}.J ",
"}.K  X|.K  XK |.$.H.e 1 3 f.k.4 z 6 b.c.6 g.x / [ [ ... 1 b.l.r p.:.( / % =.^ / ; 4 L.c.w o.[ } @ 9 f j  X XK  XJ |.}. X|.K  XJ ",
" X}.K  X|. X|.K C 4.q - 6 L.6 5 3 3 6 W.c z 8 i } ! *.t . - x d a.>.[ X.$ [ ( X.o   - r d } { +.9 9 C s K K  XK  X}.|.|.}.K J }.",
" X}.K  XK  XK |.9 + 8 - 6 W.6 5 3 3 e L.6 z w / [ ! *.&.a < / } 1.{ ( X.$ [ ^ ( t p 9 a =.E E [ 9 0 w 0 K  XK  XJ |.}. XK }. XJ ",
"J J }.|.J J |.J 3.j q 1 6 L.K.6 4 4 h.k.c N q T ( &.*.Q &.* s.] y.{ ( ( $ &.[ =.U =.( ( &.! E &.@ w V $.}. XK  XJ |.J |.K  X XJ ",
"D D F F F F F F A.D.w 8 3 1 c.h.h.b.N 1 5 q 9 i &.Q [ Q [ U <.' ,.{ [ X.% ( ! } [ [ [ [ -.[ Y &.t 9 $.V.H H H H H H H G G G G D ",
"r r r r r r r r O.A.9 8 8 q , A S B.w x q < 9 T *.Q R Q } [ t.` { { ! T $ [ ! *.Q } Q Q { [ Q &.$ 9 s C r e + 8 8 r e r r r r r ",
"P.Z.P.S Z.S S Z.O.A.p 9 b s s 0 p d a V j o.y ( { [ ( [ } E | E { { ! X.y { [ &...T ( ( -.U o.=.$ 0 V C C.Z.Z.S P.Z.P.Z.P.S P.S ",
"S @XOXOXOXOXOXOX2.C.w V / a j j i o./ g U a.% [ :.! ^ ` { { { Q { { Q X.% } &.( a < s ( n p #.%.9 9 V C XXXXXXXXXXXXXXXXXXXX XZ.",
"P.OX X}.}. XH  X2.A.p X.U &.( X.i o.*.( ^ -.% } { ` =.( { >.<.! { { Q ( % [ =.s > l ; e > , s w 9 1 s $.J  X}.K  XK |.J }. XD r ",
"Z.OX XH  X}.H  X4.C.w ~ U t.[ ~ i R { [ ^ ` % [ { ` } ! >.{ -.! { ! ! ..$ ( i o l 5 - : z - ; = >   s O.J }.J  X}.K |. XH }.D r ",
"Z.OX}.H  XH }.J $.C.s / ^ t.` ^ ^ ( { Q [ 8.% { [ [ [ ! { ! ! [ { *.Q X.y ( i , 5 6 - : 1 - , = > ; h C J  XJ  XK  XJ }.H  XD r ",
"S OX X}. X}.H  X$.C.s ~ Y 8.} -.} ` | [ ` } % [ { [ Y Q { { { Q [ *.( X.% [ ( d , q q b 1 8 n n . 8 s O.K }.|.}.|.K J  X}. XD r ",
"P.OX XH }. XH  X$.C.u ( ^ 8.} ] ' ` [ [ [ [ % &.{ ` [ Q *.! { ^ E { ( ( t } [ &.n < T z.V 9 o.%.@ w u s J  XJ K  XK |.}.H J D r ",
"S oX XH  XH }.J 3.G.u ( [ t.[ { >.E ` [ Q &.t &.{ [ { ` { *.[ Q Q { ( ( $ =.[ { ..R &.<.( T Q &.t 9 0 3.J  XJ  XK |.J  XH  XD r ",
"P. XH H H H H H O.C.u +.` u.` { *.[ ^ } [ ( < U [ [ { W >.*.} R [ } ` / $ ( ` { { ^ } t.[ ` { } 9 w s 3.F F F F F F F F F D D r ",
"S Z.e r r r r r q.A.u i ` r.` } *.X.( { Q  .9 U &.E { W *.=.o.Q E { [ &.$ _ E { [ } ^ s.` ' W &.9 9 f C r r r . 8 + r r e r r r ",
"P.S P.S P.Z.P.Z.g g 9 i ` y.8.& t a X.{ Q X.t / &.[ { ( y p p ..Q [ [ &.% ( { { R a w s ( | { ..9 w h B Z.Z.S B + 1 r S C.Z.P.Z.",
"OXOXOXOXOXXXXXXX& . w d ` d.u N l.N w ( ( / t / U [ } a v K.N x #.Y [ ( $ } [ &.p g.l.g.a [ *.Q $ 9 + q OXOXOXOXXXXXXXXXXXXXXXXX",
"K  XG  X XH |.H 6.5.0 p ( 8.o c T.M.w / ^ / t / i ( o.o v !.E.l @.i ( +.@ U ( / , c T.l.w ( | X.t 9 V.C.H }. XG  XJ  XJ  XH  XJ ",
" XK K  XK  XH |.+.G.0 9 ^ 8.o : c g.w #.U / $ j s i +.o ; f.g.w X.i / y @ u o.o.O = f.g.9 [ { ( 9 0 j 4. XG  XJ  XJ }. XJ  X}.F ",
" XK G K  XH |.H $.A.0 9 U 8.g o ; w T =.~ 9.t / u i =.T o ; w n X.% o...@ s / X.T o = q / *.*./ @ 9 V s  XJ J  X X}.J }.J H J }.",
"K |.G |.H H  XH 2.D.0 8 y s.U ( T ~ ( &.L ) $ / y i s.' ( / _ ( ^ } [ *.9 0 / U [ o.m n +.*.Y / @ 9 h C H G  X}.J J  XJ  XH J  X",
"H  XK  XH  XH }.C A.0 q p 7.~ *.` ( ( &.P 0.u / X.y | ` >.e.' ^ L } [ +.9 w ~ i &.=.#. .+.( $ X.9 w h C  X}. XJ  X}.J J G  XJ  X",
"H  XK K H |.|.H f f w 8 9 0 i *.` ^ g i U q.t @ u y w.^ { { % y / } ^ y 9 q 9 / ( L X.;.=.i 9 V 9 w r f  XG J G  XJ  XJ G H  XF ",
"K |.G  XH H }.H f r 9 0 + 0 g %.+.u 0 0 & & 0 0 0 0 f * 7.} 0 0 j i ) 0 0 0 0 0 & u ( ( =.i 0 s 9 9 + f H G  XG  XJ  XJ  XH  XJ ",
"F F F F F F F F {.U.h ~.F.^.].'.'.U./.(.J.k ^._.U.(.].[.[.).6.J.f ).].(.C.(._.].].].I.~ ).(.'.`.C.6.^.].D F F F F F F F F F F F ",
"r r r r r e r r x r r r r r r r r r e Z.P.Z.S B B f r r r r f r r r r r r r e + + 8 ; + e + o 1 A Z.Z.e e r r r r + 1 8 8 1 r r ",
"S P.S P.S S S Z.Z.Z.Z.Z.P.P.S Z.Z.Z.Z.P.P.P.P.P.Z.Z.Z.P.Z.Z.Z.P.Z.Z.S Z.Z.Z.B.S S B.S S B.Z.B.S B.P.Z.Z.S P.Z.Z.Z.Z.B.S B.Z.Z.Z.",
"P.P.P.P.P.P.P.P.P.P.P.P.P.P.P.P.P.P.P.P.P.P.P.P.P.P.P.P.P.P.P.P.P.P.P.P.P.P.P.P.P.P.P.P.P.P.P.P.P.P.P.P.P.P.P.P.P.P.P.P.P.P.P.P."
};
