/* XPM */
static char *d1a37e4342dc4e78eeb621e12764280fVbgMwActuonYj8Lm[] = {
/* columns rows colors chars-per-pixel */
"64 64 249 2 ",
"   c #060907",
".  c #1D0301",
"X  c #190705",
"o  c #0B1313",
"O  c #161919",
"+  c #230201",
"@  c #2A0202",
"#  c #3E0202",
"$  c #350C0C",
"%  c #3B0C0C",
"&  c #271717",
"*  c #2D1C1C",
"=  c #341212",
"-  c #3C1313",
";  c #321C1C",
":  c #3A1A1A",
">  c #262902",
",  c #382D00",
"<  c #2F3500",
"1  c #373300",
"2  c #3C3D01",
"3  c #23221D",
"4  c #292A1B",
"5  c #302F1B",
"6  c #363516",
"7  c #3D3C14",
"8  c #34331D",
"9  c #151725",
"0  c #1C1C22",
"q  c #191939",
"w  c #192727",
"e  c #1C3131",
"r  c #222223",
"t  c #2C2323",
"y  c #2D2C24",
"u  c #24292D",
"i  c #2D2D2D",
"p  c #332222",
"a  c #362A25",
"s  c #3B3A22",
"d  c #33332B",
"f  c #363528",
"g  c #242532",
"h  c #292936",
"j  c #233434",
"k  c #2B3535",
"l  c #2A353B",
"z  c #2C3C3C",
"x  c #343333",
"c  c #373637",
"v  c #333C3B",
"b  c #393939",
"n  c #440100",
"m  c #4A0202",
"M  c #440B00",
"N  c #4B0C00",
"B  c #440B0C",
"V  c #530100",
"C  c #5C0101",
"Z  c #570801",
"A  c #471702",
"S  c #561500",
"D  c #430E11",
"F  c #421515",
"G  c #4B1111",
"H  c #421A1B",
"J  c #581616",
"K  c #640000",
"L  c #6C0000",
"P  c #660A03",
"I  c #740000",
"U  c #7B0000",
"Y  c #770A02",
"T  c #701200",
"R  c #7C1200",
"E  c #6B1913",
"W  c #781A1B",
"Q  c #492300",
"!  c #402B00",
"~  c #562600",
"^  c #493502",
"/  c #583701",
"(  c #40211F",
")  c #423D12",
"_  c #722100",
"`  c #683C00",
"'  c #502D29",
"]  c #483232",
"[  c #443E3E",
"{  c #682828",
"}  c #762A2A",
"|  c #693737",
" . c #773636",
".. c #32423C",
"X. c #454401",
"o. c #494600",
"O. c #454E00",
"+. c #4D4B01",
"@. c #4D4B0D",
"#. c #524D00",
"$. c #554805",
"%. c #4D5200",
"&. c #545301",
"*. c #595501",
"=. c #5D5A00",
"-. c #575708",
";. c #484714",
":. c #5F4817",
">. c #545314",
",. c #5B5A15",
"<. c #684A00",
"1. c #754200",
"2. c #615E02",
"3. c #6A5804",
"4. c #775900",
"5. c #656200",
"6. c #696500",
"7. c #656905",
"8. c #6D6C00",
"9. c #776502",
"0. c #726D00",
"q. c #757201",
"w. c #7A7600",
"e. c #747B02",
"r. c #7C7B00",
"t. c #65641A",
"y. c #777513",
"u. c #4C4C26",
"i. c #4F4E28",
"p. c #555326",
"a. c #474739",
"s. c #5A5937",
"d. c #615E2A",
"f. c #686725",
"g. c #777327",
"h. c #706F39",
"j. c #393944",
"k. c #2B2C50",
"l. c #493F42",
"z. c #2E4141",
"x. c #334343",
"c. c #3B4444",
"v. c #344849",
"b. c #3B4B4B",
"n. c #3F5151",
"m. c #434344",
"M. c #494646",
"N. c #434548",
"B. c #444B4B",
"V. c #4A4A4A",
"C. c #534E4E",
"Z. c #54544A",
"A. c #494A52",
"S. c #455353",
"D. c #545252",
"F. c #585656",
"G. c #684343",
"H. c #7C7A44",
"J. c #830000",
"K. c #8C0000",
"L. c #850C02",
"P. c #930000",
"I. c #9B0100",
"U. c #910B00",
"Y. c #871500",
"T. c #961200",
"R. c #8D1717",
"E. c #961818",
"W. c #A30000",
"Q. c #AB0202",
"!. c #A90A07",
"~. c #B40101",
"^. c #BC0202",
"/. c #B60908",
"(. c #AD1000",
"). c #A71818",
"_. c #B31313",
"`. c #B91414",
"'. c #B03400",
"]. c #862624",
"[. c #8C2A2A",
"{. c #853737",
"}. c #AE2222",
"|. c #C30101",
" X c #CD0303",
".X c #C20808",
"XX c #D20202",
"oX c #DA0303",
"OX c #C81300",
"+X c #C71717",
"@X c #E80303",
"#X c #F10000",
"$X c #8A5402",
"%X c #AA4700",
"&X c #886A00",
"*X c #976F00",
"=X c #847400",
"-X c #827D00",
";X c #8B7A00",
":X c #A77700",
">X c #874141",
",X c #7B8404",
"<X c #848400",
"1X c #868701",
"2X c #8A8500",
"3X c #8B8A00",
"4X c #9B8600",
"5X c #928D00",
"6X c #8B9200",
"7X c #949300",
"8X c #9A9400",
"9X c #959C02",
"0X c #9D9B00",
"qX c #8F8C1A",
"wX c #AF9400",
"eX c #A29D00",
"rX c #A29E0C",
"tX c #9BA400",
"yX c #A5A200",
"uX c #AAA500",
"iX c #A5AD00",
"pX c #ADA900",
"aX c #B3AC00",
"sX c #BAAC01",
"dX c #B5B100",
"fX c #BBB400",
"gX c #BEBA00",
"hX c #BAB60A",
"jX c #B1AB15",
"kX c #9A9724",
"lX c #A5A12E",
"zX c #C1A700",
"xX c #C4BC00",
"cX c #C5BC02",
"vX c #C5C201",
"bX c #CBC300",
"nX c #CCC50B",
"mX c #D1C801",
"MX c #D4CB00",
"NX c #D9CF00",
"BX c #DCD201",
"VX c #D8D500",
"CX c #DCDC15",
"ZX c #E1D500",
"AX c #E4DA00",
"SX c #E7DD04",
"DX c #ECE100",
"FX c #F6EA00",
"GX c #FEF500",
/* pixels */
"b b c b c c b b b c c c b b c b b c b c c b c b c c b c b c b b b b c c c b b c b b b b b c c c b c c c c c b b b b b c b c c b ",
"D.b D.M.M.M.M.M.C.V.M.M.M.M.V.V.V.b m.M.M.M.M.M.M.C.F.D.D.F.D.V.M.M.M.M.M.M.M.V.V.F.D.D.D.D.D.C.V.M.V.m.b c b M.V.D.D.M.M.M.M.M.",
"b oX@X X X X X X X X X X!.{ n.C.+X#X X X X X X X X X X X X X XXX X X X X^.W v.c.{.#X@X@X@XoXoXoXoXoXXX X X X X X|..X|.^./.^.~.I.",
"M.@X X~.~. XI.W.|.Q.~.~.Y H x.C.+XXXP.~.I.~.I.~.K.~.W.~.W.~.I.W.W.I. X^.P.J z M.{ XXQ. X~.|.~.^.I.W.W.W.^.|.~.I.~.I.K.|.W.|.W.Y ",
"V.XXW.J.W.P.I.I.J.P.P.U K H x.D.`. XP.K.I.P.I P.W.J.K.W.W.J.L.W.J.J.W.K.K D z V. .XXW.I.U U W.J.U P.P.J.P.Q.I.P.I.J.K.I.K W.I K ",
"M. XK.P.W.I P.W.I.J.K.I n p j.D._.W.W.W.P.I.U P.P.U.L.T.Y.Y.Y.T.L.L.T.Y T F ..Z. . XU P.L K.K.U J.K.K.P.P.P.K.U I.K.J.I.U W.L m ",
"V.|.I.K.K.P.J.I.J.J.I.U m ; c.C.).^.I.I.K.K.P.!.Y.` ;XwXsXsXzXwX4XwXsXzXsXsXhX0X1.(.Y I.J.I.U U K.I J.W.P.K.P.K.W.I.J.I.L W.U m ",
"M.^.K.I.I.U P.I.U J.K.K n ; x.V.). XP.I.U P.J.*X4Xq.r.uXbXMXvXpXgXBXZXAXAXAXBXbX8X:X*XU.I P.P.U U U U P.P.P.K.U I.J.K.I.U I.I n ",
"A.~.P.J.K.K I U K L U I m * v M.E.Q.J.Y S 1.<.3XtXr.q.q.8XxX0XyXmXMXMXMXMXfX-X-X<XtX3X4.1.Y P L L L L U U L L K J.K K U J.U U n ",
"M.L.Y P P m n m n m V m B ; x m.W Y P ` =X7X,Xq.8.q.fX8Xw.8X7XeXgXdXaXbXDXVXuXeX0.8.8.e.8X=X` P C C C L Z m V V C V Z C C B Z # ",
"B.] p p p p t t t t & & & t z M.] p ^ q.9X0XaXfXsXxXAXbX5Xr.3X0XyX0X0XxXZXgXMXbXuXzXeXw.tX9Xq./ a ( p 5 p ; ; = * * t p p t r t ",
"C.l.c c c [ m.m.m.b x x x d [ l.B.i.-.5.0.q.mXDXFXGXfXyX0Xw.-X3X3X3X3X3X5X0X0XuXDXFXxXeXw.0.5.*.a.A.N.N.[ b k k b l.b M.m.l.l.V.",
"}.E.E.).R.E.E.E.E.R.R.R.R.R.E.R.:.r.3X6.8XdXBXBXgXfXr.0Xr.5.q.q.q.q.q.5.8.gX7X<XxXdXxXvXdX8X8.<Xy.p.{ W E.} M.b.G.}.).}.).).}.}.",
"oX^.~. X~.W./.W.Q.~.~.W.Q.~.Q.'.;Xr.7X8.cXGXFXaX3X3X7XeX*.+.2.=.=.=.=.8.2X3X8X8X3X3XpXVXGXcX0.5X,X=X` K K.E [ b. .#XoX~.|.~.|.W.",
"P.P.J.I.J.U P.I K.K.U U P.W.R 2XtX2.5.=.uXxXgX<Xe.yXbX-Xo.X.o.o.o.o.o.0.0X5.r.bXyXw.<XgXxXeX2.5.w.iX=XQ m D b n.|  XQ.U I.J.K.P.",
"I W.I.P.K.I K.U K.K.U U U.Y.*.7.w.q.2Xr.w.w.2X2X2.=X5X8.o.2 2 2 2 2 2 =.0Xr.2.5Xr.5.<X<Xw.w.r.2Xq.0.8.*.A % i B.G./.P.P.W.P.U W.",
"P.P.K.I.P.I J.K.U P.I.Y $X7X8.&.w.aXBXMX8.2.uXcX6.w.0.+.X.6 3 4 @.>.y 6 %.o.*.3X0.9.xXuX2.q.fXpXeX8.#.8.5X3.r j | /.I.K.W.J.I.I.",
"U I.L I.U J.U K.U P.J.Y *XtXq.2XNXBXpXw.6.2.0.w.=.w.@.4 4 O 0 7 q.3Xt.g y y >.3X=.=.w.0.2.5.2XfXaXMX5Xq.iXy.4 w | !.P.I.I.K W.J.",
"L Q.L U C U U K.U K.Y S +.&.8.uXZXaXdX5X0.<X3X8.=.) 3 0 r 0 7 q.<X3XhXqXq i i s 7 =.8.3X<X8.8XZXpXbXzXq.-.%.> o H !.I.K.I C U P.",
"m L V V m V C C C C C ^ O.<XgXxXuX7X0X8.&.5.7X2X;.O w 3 0 7 q.<X<X<XuXfX,.u x g i >.yX7X6.&.8.0XcXpXdXmX<X+.<   F W.I m K n m I ",
"3 * ; & ; * ; & O & 3.3X<XpXcXxX8XeXcXw.-X2.6.;.r r * 9 7 q.<X<X<X<Xr.2.f i c x i d ,.5.2.r.w.cXBXuX7XbXdX<X1X&.X - * & * * t ; ",
"V.n.v.k z v.b.z.v...1XpX3X=XaXAX0X0XMXr.0.7X@.O 0 r 9 7 q.<X<X<X3Xw.@.u j.A.A.j.i i u >.5X0.-XmXiXdXyX<Xe.3XdXe.o O w k v n.v.b.",
"F.+X+X_._.`.`._.`._.$Xe.eXMXMXxX0Xr.0.<X5.@.t w r 9 ;.q.<X<X<X3Xw.;.y b A.H.CXlXk.i u d ;.7.-X0.8XZXaX8XbXuXe.<.# B P E.).).).R.",
"F.@XW.^.|.I.^.W.^.%X6.5.aXZXbXaXeXxX0.6X<X5 0 * 9 7 8.<X<X<X3Xw.@.y i j.H.SXbXNXlXk.i u ;.eX3X0.NXAXMXfXNXaX3.0.<.N C K.Q.U Q.C ",
"[ @X~.P.Q.I.W.K.R &Xe.2.eXNXZXaXeXMX=X=.;.3 * O ;.q.<X<X<X<Xq.) u h j.H.BXdX3XyXCXkXq x d >.=.w.MXsXNXcXaXeX2.e.=XN n C U I U # ",
"m.|.U P.W.J.J.L Y.:X9X6.2.2X5XeXfXw.=.6.6 0 w 9 $.0.<X<X<X<Xe.<X2.t h.SXdX1X<X<XyXBXkXq i s 6.=.3XxXpX2Xw.6.6.9X;XN n m V K L n ",
"M./.I.I.I.K K.K T *X9X6.o.&.6.q.8.q.3Xq.5 9 9 w f *.0.<X<X<X<XeXcXnXnXfX<X<X3X<X<XuXBXqXq 8 0.3X6.w.w.6.#.o.5.9X;XN m n m K L # ",
"C.~.J.I W.C J.U Y.*X,X&.#.5XxX-X0.yXuX@.9 ) q.y h c -.8.<X<X<X2XhXBXsX<X<Xr.0.3X<X<XuXBXqXq >.yX0X2.w.cX8X#.&.,X=XA n n V I L n ",
"V.|.P.K J.L I L Y.&X7.o.2.dXMXq.&.0.0.4 6 q.3XhXs.h d -.8.-X<X<X3X8X3X<X,X-.;.w.3X<X<XuXBXqXs 8.8.o.0.MXaX&.o.8.w.N n m V I L n ",
"M.~.Q.L L L L K T <.8.w.8XxXdX8XpXe.=.-.<X3Xr.xXnXs.j.f -.8.r.<X<X<X<Xw.@.r d @.r.3X<X<XyX0X@.*.2XpXfXfXdXfX7X8.<.N n m V I K n ",
"V.{ { F - F H F F $.0.aXBXNXpXuXxXw.w.,.7.<X<X3XbXnXs.j.i t.3X<X<X<X<Xr.1Xg.q d @.e.3X<X-X-.>.w.5XcXMXsXuXmXgXw.^ X . . = - = = ",
"S.S.b.v.b.x.z.z ..;.*.2XBXSXpX<Xq.=.3Xi.a 2.<X<X2XbXcXa.g.rX3X<X1X1X<X<XuXnXg.q x @.w.<X5.y i.3X2.r.gXfX0X0X<X*.X.o o o w z z v.",
"[.[.[.[.[.].].W ].9.&.o.2XdX0X8XeX0.w.>.y 8 2.<X<X<XMXjXMXuX,X3Xe.r.3X<X<XuXmXg.g d @.8.s d ,.q.-XuXNXxX3X8.+.&.6.- D F G ].].[.",
"~.|.^.^.~. X|.|.OX:X6X2.q.0XpXfXxX-Xw.0.s g f 2.<X<X<XMXfX3X2Xr.-.@.e.<X<X<XpXnXh.h d ] l s.3Xw.8XmXAXsX0X-X2.3X;XS V V L W.^.W.",
"W.P.P.Q.I.~.I.W.(.&X,Xw.uXMXMXpX2X6.w.0.s u g 8 2.,X<X5X3X<Xr.-.a y 5.7X<X<X1XuXnXu.b j.N.s.<Xq.0.8XbXpXdXdX<X<X9.M m n m L I.I ",
"P.U K.I.K.I.J.P.K._ $.=.5XNXZXyX8Xw.#.2.;.i i u f 2.,X<X<Xr.-.y g p.qX6X<X<X<X,Xq.t.l B.Z.s.5.2.2XaXxXeX0X3X*.o.Q n m m V I K.I.",
"P.U I.I.K.I.K.K.P.Y ` %.+.5XbXfXxXuX5Xr.0.s i i u 8 2.<X,X-.a g p.hXvXe.<X<X-X2.5 g k j.s.w.2XyXdXSXfX3Xw.+.&./ n m n m V I U P.",
"Q.K.I W.P.W.P.K.J.R 4.e.#.5.eXMX8XaXBX0.-X,.a k i g f 6.=.y g u.cXbX,X<X<X,X5.8 h x l.a.f.e.q.mXxXxXdXuX0.&.e.9.M n # n m I J.U ",
"P.J.J.I.U K.J.K.P.Y.*X9X6.8XBXZXyXpX2X&.w.-X@.[ x i u 7 y g i.xXcXr.<X<X-X2.y h x M.Z.f.5X3X&.<XxX7XeXSXaX6.7X*XA # # m C U P.Q.",
"C C I U K K U K C Z ` 5.=.2XxXcX3X8.o.o.&.2.<Xt.a.x i g g d hXvX<X,X1Xr.5.8 h x M.F.f.<X3Xw.o.o.0.r.eXxX2X=.5.$.n n n V L I K.K.",
"$ $ % % % % % % % $ $ ^ +.%.7XuX5.<Xw.0.5X2X2X7Xf.a.c c h t.<Xr.<X<X-X2.8 h c j.Z.d.q.<Xq.q.0.r.q.0.aX8X&.+.^ @ @ @ $ % B B B % ",
"b z v z z z k z z k k ;.-.&.&.=.#.pXvX8XMXFXw.#.6.f.Z.D.N.h 5 2.<X,X5.y g x a.s.t.6.&.w.AXxX8XxX2X&.=.&.&.&.>     o w w w k k v ",
"C. . .{  .{ {  . .{ { ' ) 9.w.5.*.6.aXSXSXcX5X5X*.eXg.h.h.a.0 f 5.5.y i i.d.y.0X3X&.-X5XxXBXxXaX2.=.2.w.0.! . X ; : - J {  .{ G.",
"c.@XXX X|. X|. XXX^.Q.J.Z 4.iX7X5.0.w.aXSXpXaXDX8X3Xw.eXfXy.p.p.,.-.p.y.aXbXmXuXr.2XaXfXeXuXe.w.6.8.7XiX4.N V C C L J.^.Q.~.^.K.",
"D. XQ.U K.P.L P.W.J.K.J.C / -X<X=.6.yX7XpXAXDXSXbXeXyXq.eXbXMXbXuXfXZXBXMXbXeXe.-XfXbXBXuXe.8XyX2.2.3X-X/ n m m m m U P.Y U P.# ",
"M.XXI.K I.J.I K.J.P.J.P.J.V / =.=.5.8X0Xw.aXcXAXxXbXSX8X-XyXfXeXfXAXZXZXZXfX<XaXsX5XfXpX<X-X0X8X2.*.2./ n n n m m K J.P.P.L K.# ",
"m. XP.I W.I U U I J.J.P.J.C m ~ 8.q.6.2.eX7X=XfXxXZXFXaX0.8X7XyXbXbXxXcXbXpX5XmXNXyX2X5XdX0X2.6.w.3.~ n n n n n V U K.I K.I I.# ",
"m.XXW.J.P.P.L P.K.J.K.I.J.C m m <.7X1X+.3Xr.5.-X3XdXMXpXw.5X7X0XaXpXpXpXpX0X5XxXpX7X7X5.5X2X&.<X2X/ m n n n n m V C U J.P.J.P.# ",
"m. XQ.L P.K.U J.J.P.J.P.P.U I V m ~ / #.8.5.2 9XbXuXw.<Xw.e.7XyXtX0X0X0X0X2X2.e.uXbX8X2 5.8.#./ S n m n n m m K L I K.K.I.L K.# ",
"M.^.K.L K.L I I U J.U U I L K V m V C ~ =XyX&.q.8X<X=.5.5.w.3X7X7X7X7X7X7X-X#.6.<X8X0.=.tX-XS n n n n n n m V C C L I L U C I n ",
"a.} G G G G G F G G G F - F F F $ @ + @ , *.*.5.5.=.6.=.&.8.-Xr.-Xr.r.r.r.q.=.q.2.2.2.=.*.1 + . + @ $ = = = = - % $ % - F = = $ ",
"b.v.z.k z.z v j.z z z z.b.S.b.x.j O o o o   > < 7.r.6X8.*.5.6.6.6.6.6.6.6.5.8.6Xr.8.< >       o o O w w w w j u w w w e k z z x.",
"[.} {.} {.}  . .} } }  .{.>X{. .{ { ] u w X + + $.3.3./ #.&.&.%.&.&.&.%.#.$./ 3.3.$.X . . . + & r w ( { W W } } W J J { { } }  .",
"/.^.!./..XW.!.I.!.!././.!.!.!./.!.K.] b l Y C n V N M m Q , ! ! , ! ! ! ! , M M M n # n n n n % r w W XX^.!.^./.W.Q.W.!.I./.U./.",
"K.I.I W.I.J.J.J.K.J.W.P.U J.J.K.P.K t m.c._.J.C m n m m n n M # n M # n n n n n # # n n # n n $ r e W |.P.U P.P.U I.J.I.K.I.K.W.",
"W.U L I.K.K.U J.U U K.I I U I U U m * c.N.`.P.U K V V m m n n n n n n # n n n n # n # n n n m # t e W I.K.J.I J.K.I.I J.P.I K.U ",
"I.J.C J.P.L K.I U I.K.K U P.L U U n t c.b._.W.I L U L C m m m n # n n n n n # n n n n n n m m % r l ].Q.K.U L J.I.P.J.U J.U K I ",
"I P.K P.L I K.U P.K.P.U L I I K.U n p m.c._.Q.K I K.U U C K K m m V V m m m n V m m V m V V m % x v.[./.P.L U I.J.I U K.I P.I I ",
"K W.U I.L P.U J.I.I J.J.K U I.K.J.V * c.c._.L K.W.U K.J.I J.L L K C C V L C m C C V I K U L C % c b.[.I.J.K.K.J.U I.J.U L C P.U ",
"K W.U J.L K.P.I J.U I I J.K.U K.J.V t m.B.`.U K.I I.U U U J.K U J.V V C I U V I U K P.L P.L U % k v.[.!.J.J.L L I I.U I.I K L W.",
"U K.C P.L K U L L U K.I U U K U I m t c.D.).Q.C C P.L K.L L L J.I K I K U K.K J.K.L U I U L I % x v.[.I.K V I J.L K.U P.I P.K I.",
"m m m m m m n B m m m m B m m m # % p m.S.R.C # # # % n B n m m m B m m m m m m m m m m n n n $ i S. .Y n # m n m m n n m m m n ",
"y k k i k i i i k i i k i i k i i i i c.D.V.c.c c i i i i i i k i i i i i i k i O r r r u i r r y m.V.c.i i i i k y r r w r r k ",
"b D.b D.b c b M.V.V.V.B.C.D.N.l.V.V.V.C.F.F.F.F.V.V.M.D.V.V.M.C.C.V.m.b V.V.V.b b [ ..b b m.M.j.b V.A.V.m.M.A.V.V.V.N.l.b m.V.M."
};
