/* XPM */
static char *a9f578b9c0cb4478aad49f8aa2103cdfirdYeKSLpjKSBEan[] = {
/* columns rows colors chars-per-pixel */
"64 64 251 2 ",
"   c #1E1E1E",
".  c #3E0202",
"X  c #340D0D",
"o  c #2A1919",
"O  c #391616",
"+  c #3E003E",
"@  c #3D093D",
"#  c #3F143F",
"$  c #1C2222",
"%  c #222222",
"&  c #232B2B",
"*  c #2D2D2D",
"=  c #342C31",
"-  c #353739",
";  c #393939",
":  c #430202",
">  c #490303",
",  c #470B0B",
"<  c #560404",
"1  c #5A0101",
"2  c #560C0C",
"3  c #571309",
"4  c #4A1717",
"5  c #591414",
"6  c #640000",
"7  c #6B0000",
"8  c #6B0A0A",
"9  c #710202",
"0  c #7B0000",
"q  c #760B0B",
"w  c #681919",
"e  c #751111",
"r  c #751B1B",
"t  c #7A1B1B",
"y  c #57123E",
"u  c #751B27",
"i  c #4D2525",
"p  c #572929",
"a  c #4A3A3A",
"s  c #583636",
"d  c #672828",
"f  c #752726",
"g  c #7C2626",
"h  c #7C2B2B",
"j  c #773A3A",
"k  c #6E4D16",
"l  c #7F5834",
"z  c #440044",
"x  c #4F0047",
"c  c #440B44",
"v  c #4D014D",
"b  c #4B0C4B",
"n  c #50014F",
"m  c #441544",
"M  c #4C144C",
"N  c #4C1B4C",
"B  c #4F0250",
"V  c #510051",
"C  c #520B52",
"Z  c #5A005B",
"A  c #580459",
"S  c #541454",
"D  c #561858",
"F  c #5B1C5B",
"G  c #4A224A",
"H  c #483848",
"J  c #532353",
"K  c #532B53",
"L  c #5A235B",
"P  c #5C2B5C",
"I  c #583558",
"U  c #5C3B5D",
"Y  c #703251",
"T  c #5E0061",
"R  c #5D1860",
"E  c #620064",
"W  c #650069",
"Q  c #6A006D",
"!  c #621565",
"~  c #6E0071",
"^  c #730175",
"/  c #78037A",
"(  c #612562",
")  c #652A67",
"_  c #633D63",
"`  c #663568",
"'  c #6C356C",
"]  c #6E2E73",
"[  c #752A77",
"{  c #723B72",
"}  c #374949",
"|  c #3F5050",
" . c #444343",
".. c #494646",
"X. c #49474A",
"o. c #4A4A4A",
"O. c #554C4C",
"+. c #554455",
"@. c #594959",
"#. c #485351",
"$. c #545252",
"%. c #595859",
"&. c #784747",
"*. c #645153",
"=. c #6A5B5D",
"-. c #735555",
";. c #5C665C",
":. c #644264",
">. c #644C64",
",. c #6C436C",
"<. c #6B496B",
"1. c #744C68",
"2. c #685868",
"3. c #754975",
"4. c #735373",
"5. c #745D74",
"6. c #79597A",
"7. c #696667",
"8. c #736767",
"9. c #6B756B",
"0. c #786678",
"q. c #6E7171",
"w. c #777675",
"e. c #7B7B7C",
"r. c #870303",
"t. c #940000",
"y. c #970706",
"u. c #9D0C0C",
"i. c #911006",
"p. c #861C1C",
"a. c #971C1C",
"s. c #A60808",
"d. c #B90606",
"f. c #B30C0C",
"g. c #AA1714",
"h. c #9D201E",
"j. c #882B2B",
"k. c #8C3131",
"l. c #A92221",
"z. c #CD0303",
"x. c #C50908",
"c. c #D60605",
"v. c #C51818",
"b. c #E70202",
"n. c #EC0F0F",
"m. c #CC2B2B",
"M. c #984C0C",
"N. c #884C18",
"B. c #A64C03",
"V. c #BA4E00",
"C. c #A75106",
"Z. c #B55200",
"A. c #B45807",
"S. c #A25518",
"D. c #9C6B1D",
"F. c #925928",
"G. c #AB642A",
"H. c #B36B30",
"J. c #CE6D1E",
"K. c #80007F",
"L. c #855051",
"P. c #BC4343",
"I. c #836646",
"U. c #9D724A",
"Y. c #917053",
"T. c #A67250",
"R. c #866A6A",
"E. c #96706A",
"W. c #837473",
"Q. c #857B7B",
"!. c #8B7C7C",
"~. c #997B7B",
"^. c #A97676",
"/. c #D44242",
"(. c #B2A805",
"). c #D1CA05",
"_. c #F3DD01",
"`. c #AC8159",
"'. c #948878",
"]. c #AA8A6C",
"[. c #D09865",
"{. c #7A2183",
"}. c #7B5882",
"|. c #796E82",
" X c #880289",
".X c #852D87",
"XX c #855B88",
"oX c #826A82",
"OX c #877687",
"+X c #95779C",
"@X c #B55DB9",
"#X c #7F8585",
"$X c #828383",
"%X c #8E8686",
"&X c #8A858A",
"*X c #858C8C",
"=X c #8B8B8B",
"-X c #998988",
";X c #8C968C",
":X c #96908E",
">X c #958A96",
",X c #8D9593",
"<X c #939493",
"1X c #979796",
"2X c #9A9B9A",
"3X c #A38484",
"4X c #A38C8D",
"5X c #A98C8C",
"6X c #B28E8E",
"7X c #A79687",
"8X c #B89D85",
"9X c #AA9393",
"0X c #A49998",
"qX c #B49898",
"wX c #9DA69D",
"eX c #B4A692",
"rX c #979CA4",
"tX c #9DA3A3",
"yX c #9EABB9",
"uX c #A5A4A4",
"iX c #ACA3A3",
"pX c #A6A9A9",
"aX c #A8A9A8",
"sX c #ACABAC",
"dX c #B2A1A1",
"fX c #BAA5A4",
"gX c #B2ABAB",
"hX c #ABB2AC",
"jX c #A8B4AD",
"kX c #B4B1AD",
"lX c #ABADB1",
"zX c #B1ADB1",
"xX c #ACB3B3",
"cX c #AAB8B8",
"vX c #B4B4B4",
"bX c #BAB4B4",
"nX c #B6B9B6",
"mX c #B4B6B8",
"MX c #B5BBBB",
"NX c #BABCBB",
"BX c #C8968D",
"VX c #C4AFAE",
"CX c #BAC3BC",
"ZX c #C0C0BF",
"AX c #BABCC1",
"SX c #BAC2C2",
"DX c #B8C4C3",
"FX c #C4C4C4",
"GX c #C8C9C8",
"HX c #CBD3D2",
"JX c #CDD1D3",
/* pixels */
"; ; ; ; ; ; ; ; ; ; ; ; ; ; ; ; - ; ; - - ; ; ; ; ; ; ; ; ; ; ; ; ; ; ; ; ; ; ; ; ; ; - ; ; ; ; ; ; ; ; ; ; ; ; ; ; ; ; ; - - ; ",
"$.; $...........$.............o...a H ........o. .O.$.$.$.$.$.$.......X..... .X.O.%.$.$.$.$.$.$....... .; ; ; ..o.$.O...........",
"; n.b.z.c.z.z.z.z.x.z.z.s.d | O.v.b.c.z.z.z.z.z.z.z.z.z.z.z.z.z.z.z.z.z.d.r } } j b.b.b.b.c.c.c.c.c.c.z.z.z.z.z.x.x.x.x.d.d.d.y.",
".._.z.f.f.x.u.g.x.f.f.f.e 4 } $.m.x.u.f.u.f.u.f.i.f.g.f.g.f.u.s.u.u.x.x.u.5 - ..j c.f.x.f.x.f.x.s.g.s.s.f.x.f.u.f.u.y.f.u.x.f._.",
").).D.wXeXeXiXiXdXiXdXdXiXuXpXaXdXdXiXdXiXdXiXdXiXdXiXdXdXdXiXdXdXiXdXdXiXiXuXpXuXfXiXdXiXdXdXdXiXqXiXiXdXdXdXiXdXdXdXdXiXeX).).",
"H.(.k w.#X#X#X#X*X=X*X*X*X=X*X=X*X*X*X*X=X*X*X*X*X*X*X*X*X*X*X*X*X*X*X*X*X*X=X*X=X*X*X*X*X*X*X*X*X*X*X*X*X*X*X*X*X*X*Xe.e.w.D.[.",
"o.k i.w.9.w.w.'.%X=X=X%X%X&X%X%X%X%X%X%X%X%X%X%X%X%X%X%X%X%X%X%X%X%X%X%X%X%X%X%X%X%X%X%X%X%X=X%X=X%X%X%X%X:X:X,X%X&Xq.q.e.q.3 G.",
"} s.r.=X#X/.g.d i *.j t g g j.g h g g g g g g g g g g g g g g g g g h g g g g g g g g g g g g g h g j.l.m.n.P.-.p 4 p !.hX7.< , ",
"o.d.y.0X$Xf.^.OX*.i &.W.5XqX9X5X3X3X3X3X3X3X3X3X3X3X3X3X3X3X3X5X3X5X3X3X7X3X3X3X3X3X3X3X3X3X3X3X+X3X6XqXBX^.L.s *.=.E.m.:X7.< . ",
"..r.e gX<X5 9XDX2X8.e.tXxXCXjX1XlXHXHXSXSXDXDXDXSXSXAXNXSXSXSXSXSXSXSXSXFXDXSXCXSXAXSXCXSXSXSXCX+XXXtXDXFXcX<XW.#XcXVXf.w.0.: . ",
"o.a = VXiX4 W.vXnXtX$X#X<X2Xw.P 0.aXGXGXFXNXNXMXvXvXvXvXgXvXkXsXzXzXgXsXCXVXbXCXvXvXvXvXNXNXzX;XY V <.uXgXuXuXtXuXSX'.5 e.=Xo o ",
"O.a ; GXbXO.q.2XnXbX2XOX'.*X:.v F { OXsXFXFXCXVXNXNXnXCXXX0.e.4.' 3.{ L.H.J.[.ZXnXnXMXNXvX1X0.) C v { 1XuX2X1XsXGXnX%...=X2X  & ",
"l.u.a.bXFXs 7.<XaXNXMX2Xq.q.@.b v v D ' +XiXkXNXNXNXmXFX{ b J z v S F u V.A.J.BXcXvXlX>XoX) S V V b 2.<X1X1XpXZXFXaX7.s 2X2X, 4 ",
"c.d.f.fXJXw W.<X2XaXnX*X:.>.;.X.c v V v D { 3.OX:XpXvXCXOXD v n B L ( u G.].[.8X>X0.3.) S Z V v M O.q.0.<.$XxXZXsX1X=.2 uXiX< 6 ",
"t.r.r.sXJXl.-X2X<X2X*X' T P 7.7.H M b x z W Z L ` oX<XsXjX<.v V V v v Y ].yXrX|.` D T Q B V v b @.;.2.! A _ =XhX1X*X8.w sXsX< 1 ",
"0 s.u.gXVXg.5XtX;X&X:.T W R I @.%.H # c z ~ Z V V F P >XGX3.v V v V v 3.CX0XL D T Z Z ~ v c G H ;.+.S W W W 3.1X=X$XR.t sXdX< 1 ",
"t.r.y.sXgXa.qXcX2X&XP z Z Q W A F +.o.; c z v v v V J :XCX3.v V n n v 3.SX=XG n v z v v c ; ..H M C A W Q Q [ &X$X,XW.r aXiX< 1 ",
"r.t.8 gXgXt fXSXaX1X@.# v T Q Q T C N m z + + z z ,.:XxX2X) v n V C B ) 2XvX:X:.z v z + @ m m b V Z W Q Q ! 2.*X|.,XE.r vXiX< 1 ",
"7 s.8 gXvXt fXHXvX2Xq.H c V T W Q T Z T v + + + 4.` 0.hX6.B n V n n B C 6.kX5.` 4.+ z + v V z x Z T Q ~ ! >.w.$X=X2X-Xt nXdX< 1 ",
"> 7 < iXgXt VXHX&X` 2.;.o.I S T W Q Z / Z + + z P v c >XsX' v V v V v { sX>X@ b L z z v Z E x Z T Q ! <.5.;.$.%.w.tX-Xr nXaX> 1 ",
"o o = sXkXt qXJX{ v N X.$.%.$.H A W W E ^ A v v v v z 5.;X` v V V v v _ ;X5.z z z z v V W Z Z E D <.e.w.7.X.# # P tX-Xt vXaXo o ",
"$.} } zXkXt 9XJX[ v B b m m H ..+.@.>.F T A Z v z v v S N C V B V V V C N S z v z v v n A S O.4.|.w.>.L N @ + + L aX-Xt vXaX$ & ",
"$.v.v.VXmXp.0XAX[ Z V v b + @ # m N F K.E Z Z v z v V v v V B B V V V V v z v z z v v V E K.F L ) L b z + + + + ) lX3Xt vXaX, 2 ",
"$.b.s.GXGXa.VXFX[ Z Z v v z z + z z x K.W V Z n v n V V n V B v v v v B v v z v n V Z V ~  XZ Z C v v z z + z z ! uX-Xp.vXiX< : ",
" .b.f.VXFXa.fXxX4.C Z A n v + + z z z Q T Z V n n V n V J +.O.=.2.2.+.H J v v n Z V Z V W K.Z V v v z z + + + b 5.tX+Xp.bXiX< : ",
" .z.q vXmXp.9XhX,X0.K C n z z z v z V Z Q A v v V n n n +.U {.{.] [ .XU U v n Z Z V V E K.E Z x v v z + + @ H 5.;XjX5Xp.kXiX< . ",
" .d.u.gXkXp.4X}.) %.;.7.2.>.@.@.H H = b V A ^ Z n V n v 2..X X^ Q ^  X.X2.V V V Z T ^ Z E S +.I H - ; H H $.;.%.] XXqXa.NXgX2 . ",
"$.d.r.iXsXp.OX) v S L L P P J J m M m v x n T / ~ V V v U ] ^ ~ ~ Q ^ ] +.V V Z ~ ^ T Z Z C J N m m # m m J J S A .XfXl.GXZX< : ",
"o.x.u.iXuXr -X) v n Z Z V V v v v v v v v v v E E V V v >..X{.~ ^ Q / .X>.v V A W E V Z Z v v z v v z z v v V Z T }.qXh.GXbX< : ",
" .d.s.:X1Xw !.( v V Z V Z V V n B v V V v V V V n V V v @.[  X! F {. X[ @.v V V V V A A B v v v v z z v v B A T W {.qXh.FXbX< : ",
" .d d 2X2Xw OX( v V V Z V Z n n V V v K S n n v K S n v >.@./ ( F {.^ %.>.n A S K Z V V M K v + v z v z v v A T T ] 5Xp.nXsXO X ",
"#.#.| tXuXw -X4.v v V V V V n v G U D N C n v J K M V v @.9.5.>.K ) 6.9.@.V V C I J B v C N M U m z z v v B Z T V 4.4Xp.vXpX$ & ",
"j.j.j.iXsXt -X,XU v v v v M I :.K U S v V v P U C V n V M ` 2.9.q.9.2.P N V V V C I P v v v M I I @.I M v n A A U ,X4Xt bXuXO 4 ",
"d.z.f.gXvXt 9XxX<X5.3.4.3.2.%.:.C v V V v P >.C n v V V v v M U ,.I M v V V V V V S >.P v z z z D :.%.2.4.3.3.6.<XhX4Xt lXiX< 6 ",
"s.t.y.sXgXt 4XSXkXtX1XoX6.<.S v V V V v P >.C B v V V v n V V v v v V V V V V V v V S >.K v v v v z D 3.oXoX;XaXsXpX%Xw uX:X< 1 ",
"t.0 y.gXvXt 9XmXoX5._ b b v V B V n V L >.S B B L C L S V n V V n n V n n D L C L V v S >.J v v v n V V V C ,.6.0.1XW.5 :X%X< < ",
"t.r.y.gXvXr 9XmX( z v v B V B V v V L >.S v B S e.>.>.F V V v v V V V V V F >.<.e.M n v D >.J v v V Z Z V Z V z D <XW.5 :X&X< < ",
"s.r.q iXgXt 9XMX,.v n n V B V B V L >.S B B v 7.oX0.S v V v V V V v V v n v S 0.oX5.v V v S >.L n V V Z Z Z V B _ 2X!.w 2X:X< < ",
"t.r.r.gXvXp.9XMX=XL v V B B V B L >.D v B B ! oXD v V V V V n V v V V V n V v v F oX( v V v D >.D V Z Z V Z x L =XpX!.r 0X1X< 1 ",
"< 1 q sXvXp.4XCXuX,.v v B B B D >.D v n V B W.D v v V B V v V V V V V v V V v v n F 6.v v V v D :.S V V V Z x <.uXmX4Xw vX0X1 < ",
"X X O gXbXa.9XSXMX<X:.v B v S @.S v B B B ( V B B V B V V v V V v V v V V V V V V V C ( B B V v P :.D v B C _ <XvXSX9Xw mXsX, , ",
"- - } VXFXa.fXJXJXVX<X<.( ' 5._ v n V v F 2X{.V B B V B V D S v V V S D v V v V v V [ 1XF v B V v :.5.` ( <.1XNXnXMX4Xt bXpX$ $ ",
"o.h L.FXGXl.VXJXGXNXvXhXpXjXtX6.b v v R <XCX@X] C B B B v _ P v V v P _ v V V n C [ @XCX>XF v v S 0.tXsXaXhXbXvXvXSX9Xt bXaXo = ",
"} b.z.bXVXa.qXFXmXnXvXvXnXsX7X].,.` { >XMXjXeXW.D V V B v v V V V V V v v V v n D W.eXxXMX>X{ ` 1.'.7XaXnXnXmXnXnXFXqXa.FXbX1 < ",
"$.z.s.gXvXa.9XMXvXvXvXnXvX^.S.V.U.7XeX8X8XE.A.f y x z C ' F v V n V V F ' b x x y f A.E.8X8XeX7XG.V.S.'.nXNXZXFXFXJXqXa.FXVX5 . ",
"..z.u.gXgXa.9XMXvXvXvXmXkX].G.D.C.Z.Z.Z.Z.C.M.l I.1.` W.2X{ v V V v v { 2X0.) 1.I.l C.C.Z.A.Z.Z.S.D.G.].bXFXZXFXGXJXVXl.GXVX2 . ",
"H z.y.gXkXp.9XCXvXvXvXvXnXlX-XI.N.C.Z.Z.V.M.N.I.iXnXNXsX' v v V V v V V { sXCXmX0XI.N.M.Z.Z.Z.C.N.I.'.gXvXmXNXNXVXHXqXh.FXbX2 : ",
" .z.s.gXzXp.4XMXvXsXvXnXvX7XF.C.S.A.Z.B.G.G.M.Z.8XvXsX' V v V n n V V v V { aXnX8XZ.M.G.G.B.Z.A.S.M.G.6XvXmXmXnXMXDXqXp.NXgX< . ",
" .z.s.0XuXr -XlXuXaXsXvXgXU.k -.-XH.M.Y.iXhX7XU.'.8.S v v V n V V V V V V v S 0.'.U.:XsXiXY.C.H.%X8.k U.gXMXvXvXvXMX9Xt nXaX< : ",
"..d.y.dXsXt 4XmXsXsXsXlXsX7X'.tXgXH.N.1XCXhX,X5.U M B V V v v V B V v v V B v S I 0.,XjXFX0Xk H.aXtX!.7XzXmXvXvXnXNX5Xt vXiX> : ",
" .t 4 sXkXt -XMXnXvXvXvXvXvXvXmXkXT.M.9X+X3.U S B B B B v P L v V v F P z V V v b S U 3.+X7XN.T.vXmXkXkXvXvXvXvXvXMX-Xt nXpXX X ",
"} } } sXkXe !.mXmXbXvXvXvXnXmXvXvX2X`.eX6.G z n B V B b ,.4.F n V n L 4.,.b B V n x x G }.eX`.0XvXnXnXbXvXvXvXvXmXMX!.q vXlX$ $ ",
"k.f k.bXvXj &.2XcXAXAXmXvXvXvXvXvXvXkXnX1Xe._ N v z c 4.wX<.B V V V C 3.wX2.x z z N :.e.1XvXgXvXvXvXvXvXvXnXNXAXcX1X&.j vXaXO O ",
"f.d.g.0XNX%Xd j L.E.uXcXAXDXNXnXvXnXmXvXvXnX2Xw.<.{ 0.aX&XF v n v V v F &XaX5.{ 4.e.1XnXvXnXmXnXvXmXNXDXAXMXuXE.L.j j $XNXtX2 1 ",
"r.t.9 -.pXAX:XL.h j &.L.E.~.0XcXAXNXvXvXvXbXnXxXlXzXzXCX6.v n V V V v v 6.CXxXgXgXvXbXnXvXvXbXNXMXxX4X~.E.R.&.h h L.=XsXuX-.1 < ",
"s.0 9 2 -.2XjXzXuXOX&.j.g f j R.~.iXcXAXNXvXvXnXNXnXnXNX<XU v n V v v :.<XNXnXNXmXmXvXvXNXSXcXuX~.R.j f h h L.-XuXvXsX<X-.2 < 6 ",
"t.r.< < 2 s 8.tXjXMXMXgXiX&X&.g f &.R.~.uXmXMXNXnXvXvXvXnX<XU B v v U <XNXnXvXvXnXNXMXvXuX~.R.&.f t &.%XiXgXvXpXuX%X-.O.2 < 1 9 ",
"0 t.6 7 < < 2 s 8.-X9XuXjXMXbXiX!.j r r &.W.3XuXxXMXNXNXnXNX<XU b _ <XNXnXnXMXMXvXuX-XR.&.r t j %XiXNXMXxXuX:X8.s 5 2 < 1 1 9 9 ",
"6 s.0 t.7 6 7 < 2 2 5 s 7.-XuXxXNXbX0X*Xj r e &.W.3X4XuXxXmXNX<X7.<XNXMXxXiX5X-XR.&.e r j &XuXnXmXsXaX-X7.p 5 2 < < 1 7 7 1 t.0 ",
"6 s.0 r.7 r.t.7 1 1 6 1 2 2 p 7.1XiXpXxXbXiX=Xj t r q &.W.4XaXvXvXxXsX4XW.&.q r t j ,XuXmXvXuXiX,X7.p 2 2 < 1 1 6 6 0 t.9 6 7 s.",
"0 r.1 t.7 6 0 7 7 r.r.7 < < < < 2 , a q.2XsXzXvXvXiX,Xj e q j Q.-XQ.j q e j ,XuXnXsXaXiX0X7.s X * * O 2 < < 7 r.7 r.0 t.9 t.7 t.",
"> > > > > > > > > > > > > > > > . . o $ &  .7.2XpXsXzXmXaX,Xj e q q &.<XuXNXvXsX1X7.a , , : . X % & O > . . > > > > > : > > > > ",
"* * = * * & * * * * * * * * * * * * * $ % o %   %  .7.1XaXsXlXvXmXxXlXlXsX1X7.;     o   % * $ % % * = * * = * * = * % % % $ % = ",
"; $.; $. .; ; ..X.X.o...$. .; ; ; * * * * * * * %         ; 7.1XvX1X;. .$ $ o   $ $ * * * * * * * - ;  .o.o.#.o...o. . .;  .o.X."
};
