/* XPM */
static char *_f1686b7c20845a0deb4aa07648947baI1fj1a3iAcMswUbM[] = {
/* columns rows colors chars-per-pixel */
"64 64 157 2 ",
"   c #4B3D30",
".  c #4E4034",
"X  c #544435",
"o  c #584735",
"O  c #5A4937",
"+  c #534539",
"@  c #56483B",
"#  c #5C4C3C",
"$  c #614E3B",
"%  c #63513E",
"&  c #69543F",
"*  c #5C4E41",
"=  c #5E5141",
"-  c #645444",
";  c #685746",
":  c #6B5946",
">  c #645649",
",  c #66594A",
"<  c #6C5C4C",
"1  c #715F4C",
"2  c #6C5E51",
"3  c #725F50",
"4  c #73614F",
"5  c #6E6152",
"6  c #736454",
"7  c #786755",
"8  c #7B6956",
"9  c #746659",
"0  c #76695A",
"q  c #7C6C5C",
"w  c #7D705F",
"e  c #7D6E61",
"r  c #7E7162",
"t  c #816F5D",
"y  c #82705E",
"u  c #847464",
"i  c #887765",
"p  c #867866",
"a  c #8A7966",
"s  c #857668",
"d  c #86796A",
"f  c #8C7C6C",
"g  c #907F6D",
"h  c #8E7E71",
"j  c #8D806F",
"k  c #92816E",
"l  c #8E8172",
"z  c #948474",
"x  c #988775",
"c  c #968876",
"v  c #9A8976",
"b  c #958679",
"n  c #9A8778",
"m  c #96897A",
"M  c #9C8C7B",
"N  c #9D907F",
"B  c #A08F7D",
"V  c #A2917E",
"C  c #9D8F82",
"Z  c #9F8F80",
"A  c #9D8E80",
"S  c #9D9080",
"D  c #9E9181",
"F  c #9E9083",
"G  c #9F9282",
"H  c #9F9184",
"J  c #9E9181",
"K  c #A09080",
"L  c #A19080",
"P  c #A09081",
"I  c #A19181",
"U  c #A29181",
"Y  c #A19182",
"T  c #A09083",
"R  c #A09383",
"E  c #A29282",
"W  c #A39282",
"Q  c #A29283",
"!  c #A39383",
"~  c #A49383",
"^  c #A39481",
"/  c #A19184",
"(  c #A09285",
")  c #A39384",
"_  c #A19386",
"`  c #A39386",
"'  c #A19484",
"]  c #A29487",
"[  c #A39686",
"{  c #A49484",
"}  c #A59484",
"|  c #A49485",
" . c #A59585",
".. c #A69585",
"X. c #A59586",
"o. c #A69687",
"O. c #A79686",
"+. c #A49383",
"@. c #A89785",
"#. c #A79885",
"$. c #A89986",
"%. c #AA9986",
"&. c #A39588",
"*. c #A3958A",
"=. c #A49689",
"-. c #A79788",
";. c #A5978A",
":. c #A69789",
">. c #A59888",
",. c #A6988B",
"<. c #A79A8A",
"1. c #A7998D",
"2. c #A69989",
"3. c #A89889",
"4. c #A99989",
"5. c #AA9989",
"6. c #A89B8B",
"7. c #AA9A8B",
"8. c #AB9B8B",
"9. c #AB9A8A",
"0. c #A89A8D",
"q. c #AB9B8C",
"w. c #AA9C8F",
"e. c #AC9C8C",
"r. c #AE9F8C",
"t. c #AB9B8A",
"y. c #B09F8D",
"u. c #AF9F90",
"i. c #AD9F92",
"p. c #AE9F91",
"a. c #ADA08F",
"s. c #B2A18E",
"d. c #AFA292",
"f. c #AFA291",
"g. c #B0A090",
"h. c #B0A091",
"j. c #B2A191",
"k. c #B1A192",
"l. c #B2A293",
"z. c #B3A393",
"x. c #B4A393",
"c. c #B3A394",
"v. c #B3A696",
"b. c #B5A595",
"n. c #B4A797",
"m. c #B7A797",
"M. c #B3A393",
"N. c #B9A695",
"B. c #B9A896",
"V. c #B7A798",
"C. c #BCAC9D",
"Z. c #BEAE9E",
"A. c #BBAB9B",
"S. c #BFAFA0",
"D. c #C2B2A3",
"F. c #C7B7A7",
"G. c #C1B1A1",
/* pixels */
"M a.V $.~ e.x.~ h.n I m.Z.Z.c.u.5.M.b Z.F.v.e.m.Z.S.D.u A *.n b *.n -.h d f b n f z x f h u h Z n Z x h z f i 7 7 u q u q u t q ",
"v M v v I ~ M o.M M f z M M M z z z p 5.N M A ,.I I m m f b h h h h A C n A B M x a f B e.f n / x n Z B I I z z e.h.~ ~ B ..Z n ",
"v M z z M m ~ M z M I z m x s z b f p 6.I -.) M z Z e.h A F h b b h b b d z Z M M L Z n n f h.h.O.h ^ O.z M w z 9.n M z M ~ g a ",
"M c N N Z M z z h f f z M M M m M l r G V M M M ~ x.A g e H s C A A H z h a x.x.Z ~ ^ M b d c.` ~ n g Z f f u M M e.z i Z Z n b ",
"j M q.m n M b Z n f h n M h z n S b r a.6.G H S 1.) C l b C *.H ) 1.A z n f ~ ~ ~ ~ Z M z e Z b a n M m b m q f 3.e.e.m Z B Z M ",
"I M m I m 3.e.m h b b n h a n A m b r n.6.S G H 1.i.F f C C H *.&.*.n T h d M x o.M M B A f Z s A ) [ b h M d l m -.T -.O.Z c.h ",
"M f A u.h h a n d u h h h b s s N j r <.S H w.H H 1.C b H H h 1.A C q.v.z u n n B n n n M a -.q.b J z C b s l c A c.q.n ~ h.5.h ",
"M c.) -.n m z Z n h s h Z A ` b r r d G b C H w.-.A A C h h *.C m b b b Z a z h z z z z Z h ~ ` J -.<.z J f 9 M H z T x.` ~ e.n ",
"u u 0 u u f u r e s 6 u e 0 e u 1 5 5 w 5 e 0 e e e 9 e > 2 e 9 2 9 9 5 9 3 7 - , 3 3 > 6 6 s 6 0 9 9 5 9 0 0 9 s < 5 d f 0 u u ",
"z I h f l M M f b h h / T f f h l d r l l b d f C b b e s h h h l l h e < 2 a u f u q f s 6 y f r j l r j c j q 5 s r 0 u u 9 < ",
"V.u.e.5.-.q.V.V.M n h Z h / A *.d.[ l n S 6.G S b b C s A d h C l l l s u y f z n i u n A a J ,.a.a.6.G G <.b l J b I z z 3.b t ",
"n b A ,.b q.G N b h b n *.h h / ,.b d Z A b l l C h b r l C h h H d f l s a d u a f u z u r z J J z j j z c f z M b M I m m h y ",
"o.w.d.a.[ m 2.S d l [ z h a u s n Z z B n Z h f l C l 9 h A h h b f C m 9 e f v z h d f f e M M m c b M I I f f M h.B 3.e.Z ~ u ",
"b M [ c G c S 2.N l l m h / A A B / h Z *.B h Z C b h 2 A h T h H C C d 9 s f s z M f b z q b [ l j c N 5.I f f M M M n M e.q.7 ",
"2.2.c f l a.c N l j 6.J b l A h n ~ h A Z B Z n h e h 2 h h A C H l h r 6 j N z z M z f ~ s ) [ I c v b Z n u f z M O.Z ..e.b i ",
"G m [ m S j m c d r l m l z A m ../ h n i h h h h h h 2 h f h C l A l l r j M [ h M M z -.u S G z z N M I I f f m ~ z M ~ f s y ",
"[ >.S l S b C F s r b b b A m C 1.H b h f r e l i.z b e e b C s b A m l f m ,.m l b b l b r A h z l S S M G l r c S G S l M h r ",
"b 0 9 r r r 9 j q u r 9 9 e 0 r r e 9 2 9 9 9 e 2 2 e = * > 2 , , 0 0 5 , 9 0 5 9 9 , 9 0 , s q u u d f r u j r d f f f d f j r ",
"5 r 0 < r d 0 r r 0 f b l l f f b b 6 s z z h b M z l 8 b A f e d b l b r 9 r 6 9 0 2 6 e , ; 6 - < , 5 6 - < < 5 , - = # # > # ",
"G z M a.J 6.S d.M M o.V H 6.H 6.w.6.M H *.z A *.o.I M t A H z A H m N S l N B.x.-.c.c.~ ) h a y.o.M.N N e.v z -.6.c.A.V.V.t.,.d ",
"M z 5.V A g M V g f M M v M V N V z z @.s M M M v M z q z M z v S m j z a x x.z I v M M B y n g M M k k M f u M 3.o.3.B J z M 9 ",
"z %.B V ^ z x v z a v V M x M ^ { x f V n M ^ k V #.x a v v V v ^ M v k f v %.{ M z { V z t z g M M M v o.z u V h.~ O.Z M M z 7 ",
"^ z { N -.e.^ n z s M I z I G z z B t V B B B ^ #.V k a v V $.N M v k j y a @.%.y.V { v n t i x M { { B I z y k V M ....^ Z M q ",
"M z z o.M M M k.M z k z o.I j z f f a k x { g B e.v { j k v V V k k v y 8 k t.V { V v { n q g M v v @.{ v z f y k x 5.3.^ e.^ q ",
"M b [ d.J m ,.a.j r l l b <.S f a z z N [ 2.N G N G V w m 6.M N V -.z b w j { z z ^ J ,.-.w a z M V x v @.^ g z M z x ^ L ^ L t ",
"M [ v.,.,.,.G 6.b z N m S &.m G N N j z m 2.a.M.a.a.a.r N ^ G j V -.[ m u j e.M b ^ -.t.^ u M B %.v %.^ O.9.a I v @.B 5.y.5.n u ",
"e 9 0 0 9 5 5 > 2 5 < , > > 9 < 5 0 , 5 , , , 1 5 , < # # = > = - - , 5 < 9 6 6 < 0 9 < 6 < e 0 q 4 : t 7 ; 1 a i t i f s d t q ",
"0 r r f h q r d r , r d d f l z j d 5 z c f p f j 0 r 0 j l N f m j c z r b G a.G 6.-.M M f g z v f i i u g u 7 i u a h s t a 7 ",
"z A j I I o.%.o.z l n I w.^ M V ^ N 8 j z { N z 2.z j f { z { e.[ a.v.M m { a.A.%.M.Z.k.m.z M x I z 5.o.z z f M ^ z 3.n O.O.L f ",
"h z V -.z M v z l d N k z I z z M z q M z v M e.^ c u i N V { t.a.^ G N j %.k.t.s.{ a.m.m.f z z V x z z h a f z ~ z A Z e.L y.f ",
"o.V M z ^ V x V z a v M z z B V v k q M z N v #.N z k i { k v #.$.2.v $.g #.{ $.V { s.%.{ u v k A f s M M f u x e.b / 5.~ Z / s ",
"M v V v e.M x f a a z M B x v { z f q v v V v v v z k y M V V %.v N v %.k { s.#.M @.{ V %.i z f f z v I M g s Z 3.y.Z Z n O.3.f ",
"L / ^ ~ %./ x B z y a v M v v V V x y v V v k v v V V j V B V V $.%.5.w.j M 5.,.,.5.e.,.M j z f f b I o.h g f Z O.y.n ..5...h.a ",
"M x n n n h a h k f k V v k V k V x q N V v V V V B k y v V V v ^ V %.{ y z M V %.{ V M o.k [ ) M M I %.g h h n ~ B 3.5.9.y.Z a ",
"n n / ..n g g B i i k V V z z V V k y v V V c M V s.v v V s.B v b f I z u b k.5.-.I a.^ u < o.M o.f z I n B h n e.h.L B B Z ~ a ",
"B x g g s u t i y u i i y u k a q i 8 k k j j z k j k y 8 t t 8 w 7 q 0 < p z z M f u u ; o u z z f d f f z q 3 t h B u 7 z b y ",
", , ; - - < < ; & O % - $ % # O $ 1 o < & $ & & O & 7 : 4 8 8 8 < : q 4 < 1 8 8 & 4 1 7 q 1 ; : - ; # 1 6 , ; ; 3 - ; - * < - 1 ",
"5.x.Z.j.h.A.C.C.V y M $.s.s.z #.e.L a e.Z.V V a.V s.s.k V s.N.s.s.s.t.{ k @.s.A.A.s.A.B.s.x 9.s.5.e.A.A.x.x.L g ..e.B ..5.L h.g ",
"L / B g v ^ ^ #.v 4 u M v v V v h ~ u n V V V v v v v 7 v V %.V v V V v a k M M v M { v x 8 x v o.f M M L ~ h f x Z B / B g g t ",
"@.....L { { M %.v q g @.{ V M V ) b u Z V V v V V B k 1 v V V V v { t.y.y k { V v @.M V v y g M M v f M y.B x i n n B b Z y.n u ",
"n B L 5.5.g x y.x 1 u k V %.V k T ~ f 3.B z n V v V B t k V V s.V V #.V i n z x v B V y.B 7 g V ~ ~ B g B -.h h O.b v B v M v y ",
"..L b L ..n h n g 7 k V v x e.v ~ m u M g B @.B B B B y v v V N.t.V V v i x B B B @.y.V V t i M ~ / n W T y.f a ....@.v M B x a ",
"..Z z 5.L Z x M k y B V v f v V e.n u Z k B V B V v v t V V s.V r.V e.v t z ..9.k B B v B t n B ` %.W ..g ` u a n B x f n B n i ",
"x n L e.n Z ~ M k a M #.{ v #.x B z u ~ B x x V V v V a V V s.V %.#.t.B i x W B v x v x g q n B L 9.~ ` L y.g g B B B g g x B i ",
"q u f g u u a i i 7 k a x V k i a k t a a y y k x a y 7 7 7 u g i 7 q q 7 s b g M z h f t < i h g h g n g h u g B g g g z x g t ",
"- 7 q 3 7 3 q q t : % o & $ $ & & & $ t 4 1 : & : : 4 % ; : - $ 6 4 7 < - $ - O o % o O O X ; q 3 t q ; t i 3 ; : 1 t 3 7 1 1 : ",
"g O.5.B B h.h.~ V y B N.x.V V y.s.V t V s.V s.V %.%.%.a n n g b B ^ O.x z h h.e.N.h.e...Z L z y.q.L ~ e.y.W g @.@.V y.y.N.y.B a ",
"n g g 5.Z ^ n g B i x t.y.B y.s.V v 1 V s.V V V V B ~ t B B Z e.M M M x L x ....^ z a M h n g L 5.g B L a a i x %.g g g B V @.g ",
"n x z B v v V V v y V %.%.%.%.%.B k 4 V V v B k B V V y n ~ L n M M y.Z M q I M ~ ~ n 3.g f u M y.n ~ B f x a k V f V B z M v z ",
"z g a a V k V %.k 8 %.V V %.V %.V v 8 V V v B B v v B i ~ 5.B g B M 3.B x f M Z n n ^ ~ z x z -.e.W B n x a 4 k x x B V @.x k v ",
"k y z B V v V v v a %.V V V V V V v w $.V v V V z g B a -.3.M I ..e.3.3.z f m A A A q.M b h h u.~ y.y.W k y 7 g B v V e.V k @.f ",
"k x v a v V v V v k V %.%.V %.V a.V y M V B V V e.B n t M ~ I 5.` n ` ` z M A &.5.3.O.3.e.Z f H B y.y.9.M x a i v v x k k x V y ",
"k V v v v v v v v a V V V V V s.-.N i N M M M M Z M M s M M I J i.i.C ` H b m C ) b h h m C h v.%.x.~ ~ ~ M g n { y.v g v v z y ",
"k B v k V a k v 8 y v v v k v v z j 5 0 9 0 u u e 0 q 9 r 9 r u e e s e r 5 2 r 0 9 e 9 9 r , l i g t u u t u z v k k k k i u 8 ",
"1 & t 4 t & 8 & & 4 4 t 8 & 8 8 8 5 $ < < ; ; 1 6 , 3 < q q r 0 9 u r e 0 < 0 r r 9 9 9 < < , 5 1 , ; 6 7 u t 3 : : : : : : : % ",
"a k a t a k 8 a t a k %.V V v V ^ z y M o.t.j.G.Z.e.y.z b M -.M ,.[ ) ) z l M f I J ) ,.z 0 e.N.h.L Z y.5.O.M f v V B x g k B t ",
"v V M V ^ V V N v k V y.V V v V B B a z g n B B z B z 8 x k g k M z M i s M M h z M k.5.z q z M B h L L B g g g V %.y.B x v V a ",
"k V V N z u k b k g v V v g a V ~ z t z B B g x z z B u 8 v f x M M z g t a ~ O.z v 9.5.M u B M n Z ~ g g g g v %.{ V v V v v y ",
"z v z M M z l c V B g V B g g B ~ g t h B x g V %.x k 1 y u x B ^ B g g a a 9.9.V V 9.y.M q v M L ` ..B B B a g V { #.x v V V 4 ",
"l z M k z { S b %.B B V V B B B n h 3 h ~ x B B B x g 1 g B z z M ^ v z a f V B { v v ^ V 8 z x *.n g g B y t v V V r.%.V B k t ",
"u c ,.b h b b b C z h A B h T h e d 3 h ` Z Z Z g B u < s M f z I M M c u z y.Z v ^ [ -.I q b ^ Z z l m B a t V V %.%.%.V V g t ",
"5 l z c A b A H H h b h i h h n A h s f n b z T B B f q J b I M j M f l x f M x m c M I 5.s c N A M A J B g a V V %.%.V V s.V t ",
"r m l d h h F F A b h s h s T A s s h z *.*.z h A n h e m H l f l d l m u d [ [ G m S G M r l c G S S c g B v g %.%.%.V v v g 8 ",
"r > = 2 2 > = , = =     * * >   * * * + +   +         @ e 0 , 9 < - 5 5 , , # # , , 5 = , < d 5 5 < 5 2 4 t 1 o o & & & & & & & "
};
