/* XPM */
static char *north_texture2[] = {
/* columns rows colors chars-per-pixel */
"64 64 182 2 ",
"   c #0E0E0E",
".  c gray6",
"X  c #1E180B",
"o  c gray8",
"O  c gray11",
"+  c #1D1D1D",
"@  c gray12",
"#  c #2A2110",
"$  c #312413",
"%  c #372B13",
"&  c gray13",
"*  c #222222",
"=  c #232323",
"-  c gray15",
";  c #282828",
":  c gray16",
">  c #2A2A2A",
",  c gray17",
"<  c #2C2C2C",
"1  c #2D2D2D",
"2  c gray18",
"3  c #2F2F2F",
"4  c gray19",
"5  c #313131",
"6  c #323232",
"7  c gray20",
"8  c #353535",
"9  c gray21",
"0  c #393939",
"q  c #3A3A3A",
"w  c gray23",
"e  c #3C3C3C",
"r  c gray24",
"t  c #3E3E3E",
"y  c #3F3F3F",
"u  c #422E16",
"i  c #493118",
"p  c #58381B",
"a  c #603B1E",
"s  c #7C4928",
"d  c gray25",
"f  c #414141",
"g  c gray26",
"h  c #434343",
"j  c #444444",
"k  c gray27",
"l  c #464646",
"z  c gray28",
"x  c #484848",
"c  c #494949",
"v  c gray29",
"b  c #4B4B4B",
"n  c #4C4C4C",
"m  c gray30",
"M  c #4E4E4E",
"N  c gray31",
"B  c #505050",
"V  c #515151",
"C  c gray32",
"Z  c #535353",
"A  c gray33",
"S  c #555555",
"D  c #565656",
"F  c gray34",
"G  c #585858",
"H  c gray35",
"J  c #5A5A5A",
"K  c #5B5B5B",
"L  c gray36",
"P  c #5D5D5D",
"I  c gray37",
"U  c #5F5F5F",
"Y  c #606060",
"T  c gray38",
"R  c #626262",
"E  c gray39",
"W  c #646464",
"Q  c #656565",
"!  c gray40",
"~  c #676767",
"^  c #686868",
"/  c DimGray",
"(  c #6A6A6A",
")  c gray42",
"_  c #6C6C6C",
"`  c #6D6D6D",
"'  c gray43",
"]  c #6F6F6F",
"[  c gray44",
"{  c #717171",
"}  c #727272",
"|  c gray45",
" . c #747474",
".. c gray46",
"X. c #767676",
"o. c #777777",
"O. c gray47",
"+. c #797979",
"@. c gray48",
"#. c #7B7B7B",
"$. c #7C7C7C",
"%. c gray49",
"&. c gray50",
"*. c #808080",
"=. c #818181",
"-. c gray51",
";. c #838383",
":. c #848484",
">. c gray52",
",. c #868686",
"<. c gray53",
"1. c #888888",
"2. c #898989",
"3. c gray54",
"4. c #8B8B8B",
"5. c gray55",
"6. c #8E8E8E",
"7. c gray56",
"8. c #909090",
"9. c gray57",
"0. c #929292",
"q. c #939393",
"w. c gray58",
"e. c #959595",
"r. c gray59",
"t. c #979797",
"y. c gray60",
"u. c #9A9A9A",
"i. c #9B9B9B",
"p. c gray61",
"a. c #9D9D9D",
"s. c gray62",
"d. c #9F9F9F",
"f. c #A0A0A0",
"g. c #A2A2A2",
"h. c gray64",
"j. c #A4A4A4",
"k. c #A5A5A5",
"l. c gray65",
"z. c #A7A7A7",
"x. c gray66",
"c. c #A9A9A9",
"v. c gray67",
"b. c #ACACAC",
"n. c gray68",
"m. c #AEAEAE",
"M. c #AFAFAF",
"N. c gray69",
"B. c #B2B1B2",
"V. c gray70",
"C. c #B4B4B4",
"Z. c gray71",
"A. c #B6B6B6",
"S. c #B7B7B7",
"D. c gray72",
"F. c gray73",
"G. c #BBBBBB",
"H. c #BCBCBC",
"J. c gray74",
"K. c gray",
"L. c gray75",
"P. c #C1C1C1",
"I. c gray76",
"U. c #C3C3C3",
"Y. c gray77",
"T. c #C5C5C5",
"R. c gray78",
"E. c #C8C8C8",
"W. c gray79",
"Q. c #CACACA",
"!. c #CBCBCB",
"~. c #CDCDCD",
"^. c #CECECE",
"/. c gray81",
"(. c #D0D0D0",
"). c gray82",
"_. c LightGray",
"`. c gray83",
"'. c #D5D5D5",
"]. c gray84",
"[. c #D7D7D7",
"{. c gray85",
/* pixels */
"$ $ $ $ $ $ $ $ $ $ $ $ $ $ $ $ $ $ $ $ $ $ $ $ $ $ $ $ $ $ $ $ $ $ $ $ $ $ $ $ $ $ $ $ $ $ $ $ $ $ $ $ $ $ $ $ $ $ $ $ $ $ $ $ ",
"p p p p p p p p p p p p p p p p p p p p p p p p p p p p p p p p p p p p p p p p p p p p p p p p p p p p p p p p p p p p p p p p ",
"s s s s s s s s s s s s s s s s s s s s s s s s s s s s s s s s s s s s s s s s s s s s s s s s s s s s s s s s s s s s s s s s ",
"u u u u u u u # u X # u u u u u u u u u u u u u u # u X # u u u u # u X # u u u u u u # u X # u u u u u u u u u u u # u X # u u ",
"% % p a a a a u s X u s i % % % % a a % p % p % % u s X u s a % a u s X u s i % % % i u s X u s % a % % a % a % a a u s X u s p ",
"% % p a d d d d d d d d d d d d d d d d d d d d d d d d d d d d d d d d d d d d d d d d d d d d d d d d d d d d d f d s X u s p ",
"% % i a 5 4 4 4 4 4 4 4 4 4 4 4 4 4 4 4 4 4 4 4 4 4 4 4 4 4 4 4 4 4 4 4 4 4 4 4 4 4 4 4 4 4 4 4 4 4 4 4 4 4 4 3 5 , * s X u s p ",
"u % u p A U P I I I I I I I I I I I I I I P P L L L L L L L L L L L K L L L L L L L L L P P P I I I I I I I I U H 5 & s X u s p ",
"p % % i A %.1.<.>.:.<.<.<.<.<.<.<.<.<.<.,.4.5.8.8.0.0.0.0.9.w.w.r.q.t.q.r.q.q.9.0.0.0.8.4.5.5.<.<.<.<.,.*.<.=.-.U 4 & s X u s u ",
"p % u % A &.i.t.S.T.u.u.u.u.u.u.u.y.y.y.d.z.v./.T.C.A.A.A.D.I.P.K.I.J.I.J.^._.D.Z.A.C.c.z.x.s.u.u.u.y.c.h.3.<.:.I 4 & s X u s u ",
"a u % % A &.u.7.v.'.T.t.t.t.t.t.t.u.s.i.k.k.a.L.].J.N.V.Z.L.F.G.K.F.L.G.A.z./.(.C.N.k.k.l.p.t.t.t.y.4.b.!.u.>.:.I 4 & s X u s u ",
"a u % % A &.a.*...z.2.t.t.t.t.t.u.f.p.k.k.M.) 6.i.t.A.C.L.F.K.J.F.K.D.U.y./ l.-.v.l.k.l.p.t.t.t.t.q.( $.z...;.$.U 4 & s X u s % ",
"p a % % A &.i.8._ ' w.t.t.y.y.u.f.p.k.k.M.C.6.) 1.A.Z.L.D.K.F.G.K.F.L.Z.c.%.] k.z.k.k.a.r.t.t.t.8.8.@.W ] -.&.-.I 4 & s X u s % ",
"p a u % A &.y.t.u.u.t.t.t.s.s.d.p.k.k.M.S.S.F.H.F.G.Y.K.Y.L.U.I.L.U.D.S.S.G.F.v.z.k.a.r.t.t.t.8.7.7.,.2.;.&.=.%.U 4 & s X u s % ",
"i a a % A &.y.t.t.t.t.y.s.s.s.a.k.k.v.b.u.t.r.t.r.d.u.f.y.f.u.i.d.u.t.t.t.t.8.2.0.s.r.t.t.y.8.7.6.>.<.-.&.=.*.=.I 4 & s X u s % ",
"u a a a A &.y.t.t.t.t.f.a.s.s.j.k.l.N.F.u.J N z z l l l z l l l l z z z l b S 6.7.e.t.t.y.5.9.3.>.<.*.=.%.-.#.#.U 4 & s X u s u ",
"% p a a A &.y.r.d.u.f.p.d.a.k.k.l.N.V.Z.W.e.+.X.X.X.X.X.X.X.X.X.X.X.X.X.X.X.e.g.i.c.r.y.5.9.3.>.<.-.=.%.-.#.O.#.U 4 & s X u s u ",
"% p a a A &.y.a.a.f.p.f.p.k.k.l.N.V.V.V.C.Q.I.A.H.G.A.H.Z.H.S.S.M.N.N.N.v.c.b.i.g.u.t.8.9.3.,.,.-.&.&.-.#.+.| | Y 4 & s X u s u ",
"% i p a A *.d.d.d.p.f.p.l.k.k.N.V.V.V.V.V.V._.^.D.G.K.F.L.F.K.B.V.V.V.n.k.J.x.d.y.t.8.6.4.>.,.-.&.=.=.#.+.| ] +.U 4 & s X u s p ",
"% u p a Z =.g.s.a.d.p.k.j.z.V.V.V.V.B.Z.C.S.W.'.U.H.G.K.F.K.B.V.V.C.n.j.K.Z.a.u.t.w.6.7.>.<.-.*.=.*.#.@.| [ }  .Y 4 & s X u s p ",
"% % i a A *.f.s.s.a.k.k.z.j.k.Z.V.B.C.J.H.J.G.W.'.L.G.G.J.B.V.V.C.m.c.J.G.f.u.t.t.t.5.>.<.-.*.+.=.&.+.| [ { } $.U 4 & s X u s p ",
"% % u a A *.d.s.s.j.k.l.V.k.O.>.B.Z.K.G.G.K.D.H.Y.'.U.D.V.V.V.C.b.v.W.B.f.y.e.e.r.5.7.,.*.;.( b &.+.{ } ] } { $.U 4 & s X u s p ",
"u % u i Z =.g.a.k.k.l.N.C.v.%.( ,.P.F.J.K.F.~.(.H.W.'.Y.C.V.C.b.v.W.G.g.y.e.B.K.7.0.2.-.;.E 7 f %. .} ]  .' o.#.U 4 & s X u s p ",
"u % % u A *.s.k.k.l.N.V.N.P.n.I ^ C.L.G.H.u.V.).R.F.!.Q.b.V.m.b.V.~.z.u.u.1.s./.d.<.;.=.E e > h o.] ] | ' O.+.#.U 4 & s X u s p ",
"u % % % Z -.z.k.k.M.V.V.N.P.(.0.x ) C.P.I.[ +.r.:.L.Q.'.E.n.c.m.T.v.i.f.i.&.' p. .,.2. .d g 1 f } } | ` X.+.+.#.U 4 & s X u s i ",
"p % % % Z -.l.k.D.J.B.V.N.L.!.W.E h ) B.P.0.O.,.J.B.N.T.`.N.n.U.b.i.f.t.y.5.( _ >.<.=.C b S 1 g ..[ ` %.*.O.+.#.U 4 & s X u s u ",
"p % % % Z =.c.c.F.'.W.B.C.W.Q.T.m.! h Y B.T.P.U.D.B.C.c.P.'.U.x.p.s.t.t.y.e.3.<.<.$.Z h ! F 1 f ..] ,.g.x.2.@.=.I 4 & s X u s u ",
"p u % % Z ;.S.q.=.F.b.Z.J.U._.R.H.b.W h _ C.P.S.B.C.b.n.x.Z.H.l.a.y.t.y.w.<.>.,.%.S f T ..G 1 f | } ` 4.x.+.-.%.U 4 & s X u s % ",
"i u % % Z :.D.k.) ] x.P.D.W.].E.P.H.b.! h _ V.V.C.b.n.c.l.N.M.d.t.t.t.w.5.7.,.&.G d E [ { D 1 g X.[ ( R } %.&.-.I 4 & s X u s % ",
"u p % % Z :.A.N.k.g.H.F.J.P.].E.D.L.H.n.U j _ M.M.b.c.l.v.v.s.q.q.t.w.4.9.1.*.G y ! [ }  .G 1 f { O.+.X.*.%.-.%.U 4 & s X u s % ",
"u p u % Z :.V.,.S Z ..L.D.W.'.E.L.F.K.K.g.P g ) l.b.l.v.B F Q Q Q 4.5.9.,.<.R t S @.} [ { D 1 g ..[ @.+.$.-.&.-.I 4 & s X u s % ",
"% i u % Z =.y.R b K G G.H.U.].E.F.J.H.G.A.%.n f ( f.V.,.2 9 0 v T ,.0.,.<.( r C ] | [ } | G 1 f | @.O.$.-.&.=.%.U 4 & s X u s % ",
"% u p u A @.-.P 7 k G H.G.Y.].E.G.K.S.B.Z.d.@.Z n 9.H.] 4 2   0 Y 1.<.;.U y F | { } [ { | F 1 h %.O.*.*.=.&.;.:.I 4 & s X u s % ",
"% u p u A +.8.~ , q G K.D.E.'.E.L.S.B.C.b.M.a...~ f.x.T : 5 . = P -.1.$.x n } [ | ] } [ } D 1 h $.+.#.-.%.;.1.:.I 4 & s X u s % ",
"% % i p Z *.A.@.: 0 D F.H.I.].E.S.B.C.m.n.c.l.N.D.p.h.Y - 8 o O S =.,.$.0.a.*...' | ] }  .G 1 h $.O.=.&.;.,.<.:.I 4 & s X u s u ",
"% % u i Z <.~.| > 0 G L.S.Q.'.E.C.V.m.v.c.j.c./.v.s.f.P + 7 6 6 k #.%.-.:.k.h. .| ] | ] #.H 1 h $.&.&.-.,.,.<.:.I 4 & s X u s u ",
"% % % u Z :.W.@.> 0 F F.H.K.].E.C.m.v.b.j.l.G.Y.p.a.i.L * & ; 3 h  .;.&.*.*.x.h.[ | ] } X.H 1 h ;.=.=.%.>.,.<.:.I 4 & s X u s i ",
"% % % % Z <.Q.' - 8 C L.M.L.].E.M.v.b.h.k.G.W.b.k.i.u.] E ^ Q { %.-.%.-.o.' 8.C.:.` } { $.H < j >.*.&.:.,.,.<.:.I 4 & s X u s p ",
"% % % % Z :.B.[ = @ b V.N.L.].E.n.n.h.j.G.W.m.j.p.r.y.e.0.q.1.2.:.&.=.o.[ ] ;.k.j.*.[ @.#.H 1 h :.*.=.:.>.,.<.:.I 4 & s X u s p ",
"u % % % A &.3.+.W O.u.V.N.L.].E.v.j.l.F.T.v.k.h.e.y.6.8.5.>.<.;.=.&.+.O.{ [ ` $.g.c.>.o.#.H 1 h ;.*.&.r.u.>.<.:.I 4 & s X u s p ",
"u % % % A +.+.@.Z.].D.V.N.L.].E.z.h.N.].Z.h.j.u.t.t.e.4.,.1.$.U  .@.+.X.] } | ` %.h.x.,.+.H < j >.&.$.s.N.i.>.:.I 4 & s X u s u ",
"p u % % A +.%.3.x./.Q.V.b.D.[.E.z.z.P.W.x.j.y.r.t.t.5.0.1.$.N e A | o.' | [ ] | ` *.g.x.4.K < h ;.;.! #.i. .1.:.I 4 & s X u s u ",
"p u % % A #.d.t.] u.f.m.z.K.].E.c.K.R.v.h.y.f.d.r.5.9.3.+.l v M w G ` | ] { O. . .O.=.z.y.{ 5 j >.=.X.Q ] ,.<.:.I 4 & s X u s % ",
"p i u % Z >.U.D.&.o.v.v.c.A.[.E.L.R.c.h.a.i.I.H.r.8.4.=.x l X.X.c n [ [ { | r.h.#.O.%.i.z.q.x h ;.<.<.1.<.,.<.:.I 4 & s X u s % ",
"p p u u Z <.L.B.D.V.v.n.g.S.[.R.`.v.h.s.f.>.f.m.5.6.$.T z  .=.@.} r B { [ } 8.N.2.+.+.=.g.M.W h 4.,.,.,.,.,.<.:.I 4 & s X u s % ",
"i p i u Z :.Z.C.b.n.c.j.h.S.]._.C.h.a.d.i.| ! #.&.X.H A +.&.O.@.| D 0 M ' ' E ..| +.@.&.*.p.g.J 2.,.,.,.,.,.<.:.I 4 & s X u s % ",
"u p p i Z :.A.m.n.c.k.k.h.S.{.Z.h.p.f.y.t.w.3.*.<.E r [ &.+.@.[ } _ Z 0 m ` ) [ +.+.$.=.*.1.y.` <.,.,.,.,.,.<.:.I 4 & s X u s % ",
"u p p i Z :.N.v.c.k.k.k.h.S.S.g.i.f.a.s.r.r.3.>._ f / *.+.+.| } ]  .) Z 0 n | @.+.#.=.&.,.,.>.:.,.,.,.,.,.,.<.:.I 4 & s X u s % ",
"% p a a Z -.n.b.j.k.k.k.k.k.j.i.f.a.d.t.e.4.q.o.f Q ;.-.@.X.] [ | ]  .) C g _ @.+.+.&.*.;.:.%.,.,.,.,.,.,.,.<.:.I 4 & s X u s % ",
"% i a a Z :.M.j.k.k.k.k.l.j.p.d.a.d.t.r.5.q.;.D f [ =.+.o.o.[ [ ` [ _ { ( B k _ #.&.*.=.:.$.,.,.,.,.,.,.,.,.<.:.I 4 & s X u s % ",
"% u p a Z -.l.k.k.k.k.k.j.s.s.a.d.t.e.6.8.>.Q F  .9.4.:.:.=.$.$.:.*.<.&.<.+.M z ] *.=.>.%.>.,.,.,.,.,.,.,.,.<.:.I 4 & s X u s % ",
"% u p a Z -.z.k.k.k.k.h.a.s.d.a.t.t.r.7.9.{ %.n.I.Y.Z.b.b.n.n.n.M.J.L.Q.Q.I.l.Y g :.:.%.,.,.,.,.,.,.,.,.,.,.<.:.I 4 & s X u s u ",
"% % i a Z -.z.k.k.k.j.p.d.a.a.t.t.y.q.6.5.s.P.`.U.D.Z.C.C.C.C.C.C.S.R.Q./.].`.m.>.:.&.*.;.,.,.,.,.,.,.,.,.,.<.:.I 4 & s X u s u ",
"% % u p Z -.z.k.z.z.i.f.a.d.r.t.t.q.5.8.9.7.t.6.4.=.$.%.%.%.%.%.%.%.&.&.;.<.4.;.,.%.=.&.,.,.,.,.,.,.,.1.1.,.<.:.I 4 & s X u s i ",
"% % u p Z -.z.h.G.Q.M.a.d.r.t.y.q.5.9.6.5.0.6.p.e.@.O.+.+.+.+.+.+.+.+.#.=.7.v.8.%.=.&.<.,.,.,.,.,.,.2.g.l.5.<.:.I 4 & s X u s i ",
"% % % i Z -.c.r.t.W.v.d.r.t.y.q.5.9.6.8.9.1.<.j.x.%.O.+.+.+.+.+.+.+.+.+.&.7.N.0.-.%.:.,.,.,.,.,.,.,.>.y.M.8.,.:.I 4 & s X u s p ",
"% % % u Z -.c.>.~ 3.#.r.t.y.q.5.8.6.8.7.2.,.R O.-.| @.+.+.+.+.+.+.+.+.=...R ,.| $.*.*.<.,.,.,.,.,.1.^ _ ,. .1.:.I 4 & s X u s p ",
"u % % % A *.g.p.7.1.u.y.u.q.8.7.0.7.0.2.<.&...'  .@.+.+.+.+.+.+.+.+.-.*.%.X.} *.&.;.<.<.<.<.<.<.<.<.-.O.#.1.1.:.I 4 & s X u s a ",
"u % % % A @.*.=.;.-.*.&.*.%.&.$.&.$.&.#.$.+.@.@.@.+.+.+.+.+.+.+.+.+.#.+.#.#.#.#.+.$.#.#.#.#.#.#.#.#.$.%.%.#.$.%.U 4 & s X u s a ",
"i % % % V A Z Z Z A A A A A A A A A A A A A A A A A A A A A A A A A A A A A A A A A A A A A A A A A A A A A A A A 5 & s X u s a ",
"i u % % % u p u s X u s % % i p a p i % % % p a % u s X u s a p i u s X u s % % % % % u s X u s % i a u % % % % i i u s X u s a ",
"p u % % % u p u s X u s % % % i p i % % % % p a % u s X u s a p i u s X u s % % % % % u s X u s % % a u % % % % % u u s X u s a ",
"p i % % % u p u s X u s % % % % i % % % % p a a i u s X u s p i % u s X u s % % % % % u s X u s i % a i % % % % % % u s X u s a ",
"i i i i i i i u s X u s i % % % % % % % i i i i i u s X u s i % % u s X u s i % % % i u s X u s i % i i % % % % % % u s X u s i "
};
