/* XPM */
static char *fdb94a4abc03405dc7b4d301a4a06613YcV8K11A98nhLZwe[] = {
/* columns rows colors chars-per-pixel */
"64 64 231 2 ",
"   c #030302",
".  c #0B0B07",
"X  c #01010D",
"o  c #131201",
"O  c #191807",
"+  c #030312",
"@  c #0C0D13",
"#  c #0B0C19",
"$  c #0F1018",
"%  c #14141C",
"&  c #181719",
"*  c #2B1E04",
"=  c #2A1C17",
"-  c #282705",
";  c #2C220D",
":  c #31250E",
">  c #35290E",
",  c #393805",
"<  c #28241A",
"1  c #322611",
"2  c #362A13",
"3  c #3B2D14",
"4  c #382B1A",
"5  c #3F3116",
"6  c #3D321B",
"7  c #3C3A1C",
"8  c #0B0C2E",
"9  c #191929",
"0  c #1E1F32",
"q  c #232324",
"w  c #2A2924",
"e  c #24242C",
"r  c #27282D",
"t  c #2B2B2B",
"y  c #342E22",
"u  c #373526",
"i  c #32312E",
"p  c #3C3B2A",
"a  c #292930",
"s  c #343432",
"d  c #3E3E3E",
"f  c #422B0D",
"g  c #4B3F0F",
"h  c #412E14",
"j  c #412D1A",
"k  c #443316",
"l  c #4A3515",
"z  c #463817",
"x  c #4B3B17",
"c  c #423219",
"v  c #493519",
"b  c #473818",
"n  c #4A3919",
"m  c #543C1C",
"M  c #593F1E",
"N  c #4E3C20",
"B  c #533822",
"V  c #5B3E20",
"C  c #474500",
"Z  c #4A4901",
"A  c #504E00",
"S  c #585501",
"D  c #4A4718",
"F  c #584817",
"G  c #5C411E",
"H  c #585519",
"J  c #615909",
"K  c #63491C",
"L  c #685615",
"P  c #676405",
"I  c #746C07",
"U  c #797506",
"Y  c #6A6616",
"T  c #766B13",
"R  c #777517",
"E  c #564222",
"W  c #5E4220",
"Q  c #59512F",
"!  c #634422",
"~  c #6B4724",
"^  c #6A4927",
"/  c #6C4925",
"(  c #714B27",
")  c #744C28",
"_  c #7B4F2A",
"`  c #6F512C",
"'  c #775229",
"]  c #7D522C",
"[  c #7B5230",
"{  c #000046",
"}  c #00004C",
"|  c #0F0F49",
" . c #13134A",
".. c #19194E",
"X. c #000051",
"o. c #0C0C59",
"O. c #141457",
"+. c #1D1D52",
"@. c #3F3F40",
"#. c #232351",
"$. c #23235B",
"%. c #2D2D5E",
"&. c #3D3D56",
"*. c #32325E",
"=. c #3C3C5D",
"-. c #2D2D63",
";. c #2F2F68",
":. c #2E2E6F",
">. c #333364",
",. c #3B3B65",
"<. c #353569",
"1. c #3D3D6C",
"2. c #363676",
"3. c #464645",
"4. c #4D4D57",
"5. c #44445B",
"6. c #515157",
"7. c #5F5B54",
"8. c #55555C",
"9. c #5B5B5D",
"0. c #695A44",
"q. c #625E57",
"w. c #65615B",
"e. c #6B6659",
"r. c #786D5E",
"t. c #454562",
"y. c #4A4A61",
"u. c #41416C",
"i. c #534F6F",
"p. c #5C5C62",
"a. c #51506E",
"s. c #5B5B6D",
"d. c #565575",
"f. c #5C5C76",
"g. c #5D5D79",
"h. c #646464",
"j. c #6B6B64",
"k. c #67676C",
"l. c #736E67",
"z. c #726E6B",
"x. c #707065",
"c. c #76736D",
"v. c #7A746E",
"b. c #7A7A6D",
"n. c #646475",
"m. c #6D6D71",
"M. c #64647C",
"N. c #6C6C7C",
"B. c #717174",
"V. c #7D7671",
"C. c #7D7D73",
"Z. c #72727A",
"A. c #7C7B7B",
"S. c #857C0A",
"D. c #897E0A",
"F. c #887713",
"G. c #957D15",
"H. c #82542E",
"J. c #885B2C",
"K. c #895933",
"L. c #8E5B33",
"P. c #905B34",
"I. c #8A6327",
"U. c #857664",
"Y. c #847A72",
"T. c #8A8504",
"R. c #8B8504",
"E. c #928908",
"W. c #9A8B0B",
"Q. c #949400",
"!. c #9D9C01",
"~. c #9D920A",
"^. c #968213",
"/. c #908C15",
"(. c #A29C03",
"). c #A79A09",
"_. c #AC9611",
"`. c #A3A102",
"'. c #ABA501",
"]. c #ADAA01",
"[. c #ADA40C",
"{. c #B3AC02",
"}. c #B7AB07",
"|. c #B5B101",
" X c #BBB501",
".X c #BDBA01",
"XX c #BFB608",
"oX c #AAA511",
"OX c #C1B602",
"+X c #C3BC01",
"@X c #C7BD08",
"#X c #C6C201",
"$X c #CBC301",
"%X c #CCC900",
"&X c #D1C503",
"*X c #D4CC01",
"=X c #D9CC04",
"-X c #D5D101",
";X c #DCD301",
":X c #DFD00B",
">X c #E2D403",
",X c #E3DA02",
"<X c #E6DB03",
"1X c #E6E201",
"2X c #EBE301",
"3X c #EDE900",
"4X c #F4EB00",
"5X c #F3EC00",
"6X c #F5F200",
"7X c #FBF500",
"8X c #F7F800",
"9X c #FEFC00",
"0X c #838274",
"qX c #86847C",
"wX c #4C4D84",
"eX c #4F5387",
"rX c #535486",
"tX c #595987",
"yX c #535588",
"uX c #595A8A",
"iX c #676780",
"pX c #6B6B82",
"aX c #797987",
"sX c #6C6F97",
"dX c #727297",
"fX c #898885",
"gX c #8C8C8A",
"hX c #938E85",
"jX c #969693",
"kX c #A6A59D",
"lX c #A6A6A0",
/* pixels */
"c j c c j j c c j c j j h c j c j c j c j c c j c j k 3 h c c c j h j j j j c c j c j h c c h c j j c j c j c j k 3 c j c c j k ",
"~ ~ ~ ~ ~ ~ ~ ~ ~ ~ ~ ~ ~ ~ ~ ~ ~ ~ ~ ~ ~ ~ ~ / ~ ~ ~ / ~ ~ ~ ~ ~ ~ ~ ~ ~ ~ ~ ~ ~ ~ K / ~ ~ ~ ~ ~ ~ ~ ~ / ~ ~ ~ / ~ ~ ~ ~ ~ ~ ~ ",
"L.L.L.L.L.L.L.L.L.L.L.L.L.L.L.L.L.L.L.L.J.L.L.L.L.K.L.L.L.L.L.L.P.P.L.L.L.L.L.K.L.L.L.L.L.P.L.L.L.L.L.P.L.K.L.K.L.L.L.L.L.L.J.L.",
"M M M M M M M v x 3 3 m G M M M M M M B M M M G G l M 3 1 x M M M n v v : l K G M M G m v n 1 c M M M M M M M M M M m k m : j M ",
"z b ! ( ( ( ~ M ) h h ' / b b b n ~ ( m ! n B [.&X&X,XJ f ' H.M V K / ~ P <X*X&X).4 v m ! ( ; ! ~ W V b M W G W m ( ~ W ] ; m K.",
"b b ~ ) ) ) ! M H.k k H.] m z b m ~ ) m ! M ~ L H E.'.}.$X=X>XF.F.>X=X&X{.(.T.F H B ~ / ! ( ; ! / K W b V W W ! m ) ~ W H.; M P.",
"b b K ) ) ) M M ] c h H.H.M l b m ~ ' M D.).OX=X=XT I.F '.<X5X=X>X<X<X'.D K T (.@X>X<X}.W W 2 ! ^ ! W b G W W ! m ) / ! H.; M L.",
"m b m ~ ) ) m M _ c c H.H.M v z K ).&X>XG.).,X8X8X&XOX[.}. X{.}. X}. X+X&X&X;X4X4X2X<XF.XX;X}.K v ! W b G ! G ! m ) / W H.; M P.",
"~ b n W ( ! n m H.h j H.H.! m m ^.+X,X9X>X;X5X#X|.|.|. X{.Z - - > 7 P |.%X.X.X#X*X5X2X@X;X3X7X).D E m b G ! G ! m / / ! H.; G L.",
"/ b m n ! M v M _ v j H.H.K F.{._.}.1X6X%X.X|.].`. X3XP - O + # & 9 < 7 J ]..X.X+X.X|.%X2X6X;X/.+XW.x 4 W W W ! G / ^ ! H.; B L.",
"( m n b m v z m H.h h H.H.F.OX2X:X,X%X X!.$XZ R.|.;X6XC   % t t r w e 0 H  X;X<X@XH `.`.%X,X1X}.2X4XS.3 n M G ! n ! / W H.; G L.",
"( M b n n l m M [ j j H.L.).,X2X8X%X(.(.$X6X- I '.-XR.; $ < t t i i t r p R ;X1XoXw ].#X.X|.#X%X;X9X].z 4 c B ! n W / ! H.; G L.",
"/ ~ b b b m K V ' l z ' G.OX<X,X#XQ.A Q.;XR.o - , S O 9 w t a t r t t t r p R R H q T ;XXXY !.%X;X,X+XT z z F ~ v M / W H.; M L.",
"/ ) m b b M ( ! G.W.R.^.). X+X]. XS   - S O @ + X X & q w t t t w r r w r e 9 9 & q w R H 9 R 3X;X.X XQ.I S.).^.F m ^ W H.; G L.",
"K ) ~ b x ! ) F..X3X1X-X].!.P C P ; @ & $ w i i i s s s i s s s s i s s s i s s s s s 0 9 q p R Y R.!.Q.`.$X;X;XW.n ! ! H.; M L.",
"m ) ) ! m ( ( }.1X7X9X<X XQ.,   X 9 r q.m.m.m.m.m.m.m.m.m.m.m.m.m.m.m.m.m.m.m.m.m.m.m.B.w.r r 9 8 D `.+X+X+X%X7X*Xn V ! H.; B L.",
"n ~ ) ) K ( V L {.3X*X{.+X*X#XS & r t fXtX:.2.2.2.2.2.2.2.2.2.2.2.2.2.2.2.2.2.2.2.2.:.uXfXt a r H !.#X*X2X;X+X(.L 2 b W H.; G L.",
"v ~ ) ) ~ ( G D.-X5X.X'.;X7X7XU # t t 6.N.&.5.f.g.g.g.g.g.g.g.g.g.g.g.g.g.g.g.n.f.t.&.N.3.t t e R #X&X-X5X<X].!.S.k k W H.; M L.",
"n ! ~ ( ) ) W.$X4X;XQ.S {.9XR.O & t i s j.C.-.aXb.=.>.-.-.>.%.-.%.>.%.>.-.%.=.b.aX-.C.j.s t t t i /.7XXXR.#X*XOX-X}.n W H.; M L.",
"n m ~ ) ) ! OX4X6X X{.{.I C O . q t t t @.gX5.m.x. .{ { { } { { { { } { } { ..x.n.5.gX@.t t t i r D Q Y R.-X<X+X9X,Xx W ( ; W L.",
"n n ! ( ) m L ;X;X*X2X4XJ X $ & t t t t s h.C.-.n.6.| } } } } X.} X.} } }  .8.n.-.b.h.s t t t t t q 8 R 1X8X7X1X{.F 1 z ! ; M L.",
"b v m ) _ S.E.<X].S '.R.; 9.gX7.s t t t a 3.gX5.Z.C.+.{ } } } } } } } } { +.b.Z.5.gX3.t t t t a p.gXh.s oX@X[.,X{.).R.c M ; M L.",
"m b m ! K (.2X6X|.U Z o & B.sXf.j.d s t r s h.b.-.n.4. .} } } } } } } } ..6.f.-.C.h.s t t s d j.d.dXB.a u Y ~.$X;X,X&Xc v ; M L.",
"m b n M n +X9X6X X'., X w B.eXo.B.gXp.d s t 3.gX5.Z.c.+.} } } } } } } } #.c.Z.5.gX@.t i d h.gXC.+.tXB.i 0 H #X4X6X9X1Xb v ; V L.",
"m b b n c L &X8X.XZ . . s B.tX$.-.5.C.gXh.d w k.c.k.C.$.} } } } } X.} } %.C.j.m.h.w @.k.gXC.5.*.%.tXm.s w r /.8X9X$XH 2 m : M L.",
"! v v 6 U U R.C O . @ q s B.rX1.aXn.%.5.C.gXh.t 0X-.pX8. .} } } } } {  .p.iX>.A.i h.gXb.&.-.m.aX<.tXm.i r r p H Y R.U I 4 = M L.",
"/ b b D.|.;X-XS.A . # t s Z.yX1.b.x.N.m.-.5.B.0XlX5.h.x.#.{ } } } } } #.j.h.y.kXC.B.5.-.m.pXx.b.,.uXm.s r e p R oX+XQ..X}.; M P.",
"/ m b $X3X7X*X`.+X`., # s B.yXu.=...9.b.M.n.j.;.y.b.*.m.>.} } } } } } ,.n.*.b.y.;.j.m.M.b.8...,.1.uXm.i e p R |.;X1X].5X4X* M L.",
"K m v T 4X7X.X{.;X3XS + s B.yX1.-.{  .#.9.c.b.M.p.,.} iX<.} } } } } } 1.M.X.,.p.M.C.c.8.#. .{ *.<.uXm.s 9 Y 1X3X4X2X$X5XF.; M L.",
"m ! n I  X5X|.%X6XR.. . s Z.yX1.%.{ } }  .#.%.p.x.s.f.jX,.{ X.} } } } u.jXd.s.x.p.%.#. .} } { *.1.uXm.s e p oX8X9X1X].|.P = M L.",
"m ~ m {.*X5X].`.P o X q s B.uXu.*.{ } } } } }  .#.*.u.u.+.} } } } } } +.u.u.*.#. .} } } } } { >.1.uXB.s t e u /.*X2X]. X+X; M L.",
"m ! m  X9X6X].|.R.O $ w s B.yX1.%.{ X.} } } } } } } { { } } } } } } } { { } { { } } } } } } { *.1.uXm.i t r t Y #X2X X5X4X; M L.",
"l M M F.#X6X{.;X1XC + w s Z.uX1.-.{ } } } } } } X.} } } } } } } } X.} } } } } } } } } } } } { >.,.uXm.s w 0 H ;X9X2X X$X^.; M P.",
"k m ~ Y Q.3X].U I - # w s B.yX1.*.} } } } } } } } } } } } } } } } } X.} } } } } } } } } X.} { *.1.uXm.s r r Q /.oX#X'.R.H - M P.",
"l n ! ].%X3X].J . + q r s Z.yX1.%.{ } } X.} } } } } } } } } } X.} } } } } } } X.} X.} } } } { >.1.uXm.s r t e e Y |.].%X.X; M L.",
"n n m G.8X6X|.1XY 9 w y N B.uX1.-.{ } } } } } X.} } } } X.} } } } } } } } } } } } } } } } } { >.1.uXz.u w y q F %X4X$X8X).; M P.",
"v b n B ).4X.XW.L ; > l E x.yX1.*.{ } } } } } } } { } } { } } } } } } X.} } } } } } } } } } { *.1.yXl.c > 3 1 g '.;X+X~.= ; G L.",
"b b x n = ~.E.3 j > 1 l n m.yX1.%.{ } } } { }  .#.%.>.1.O.} } } } } } +.,.>.%.#. .} } } } } { *.1.uXz.6 > 2 3 < 5 W.S.= c ; G L.",
"b b v l k = = 2 m > 3 M ^ V.yX1.-.{ } }  .+.$.8.x.k.M.jX,.} } X.} } } u.jXM.k.j.9.$.+.| } } { >.1.uXz.c > 3 v 5 3 = = v n ; M L.",
"n n b n b c j k M 1 l H.P.Y.yX1.%.{  .+.6.C.C.pXh.*.X.M.<.{ } } } } { ,.f.X.>.h.pXC.b.4.+. .{ >.1.yXz.6 2 m W v n M m M ! ; M L.",
"M b b n b n M W H.v c _ H.Y.eX1.=. .6.b.n.Z.j.-.y.b.*.k.%.{ } } } } } *.s.,.b.5.>.j.Z.n.b.6. .=.1.uXl.6 1 m ! n n ( ( ! K.; M L.",
"G n b n b n M W _ l j H.H.Y.rXu.C.x.n.Z.;.5.B.Y.kX5.h.x.#.} } } X.} } #.x.p.y.kXY.B.5.;.Z.n.z.b.1.uXl.c 1 m W n n ! ^ W H.; M L.",
"/ M l b b m G G _ c k _ [ v.rX1.aXn.*.5.C.qXw.y qX-.pX8. .} } } } } } ..p.M.>.0X6 w.fXC.5.-.m.aX<.uXl.6 1 m ! n n W ~ ! H.; M L.",
"~ M n n n M ! W _ l k _ ' B.yX$.-.y.C.qXw.4 - w.B.j.C.$.} } } } } } } { %.C.j.B.w.* 4 w.qXC.5.>.$.uXz.c 1 m ~ m n G ! W H.; M L.",
"/ G m n m W ! G _ v c _ ` B.eXo.N.0X7.6 > 3 2 fX5.Z.c.#.} } } } } } } } #.C.N.5.qX2 > > 6 w.A.A.+.yXx.c 1 M ~ m v M W ! H.; M L.",
"~ ~ M m M ~ V M ] h c _ ` A.sXa.w.6 > 5 2 : q.C.;.n.6. .} } } } } } } }  .6.n.<.C.9.> 2 k z 1 e.i.dXB.6 1 m ~ m b m M W H.; M L.",
"M ~ ! M ! ~ M M ] v b ] ^ e.fXQ > 2 2 2 2 2 qX5.Z.b.+.} } } X.} } } } } } #.C.Z.5.qX4 > h k ; h 0.gXe.5 1 B ~ M b n M W H.; M L.",
"m / ~ W ! ~ m M ] h v ] ! b b 5 2 2 2 2 k w.Y.-.n.6. .} X.} } } } X.} } }  .p.N.%.C.q.: z m ; c v n v 3 2 m / ! m n m W H.; V L.",
"n ~ ( ~ ( / n M ' k j ] ~ k z 5 2 2 2 c Q fX*.n.j.| { { { { { { { { { { { {  .j.n.*.qXu B _ 1 v c z l 3 2 B ( ~ m b m W H.; M L.",
"b ~ ) ) ) / n G H.h v ] / b b k 3 2 5 l U.v.t.fX0Xs.a.a.a.i.i.a.a.a.a.a.a.a.s.qXfXy.b.l.f W : G B n b 3 2 m ( ~ m l n W H.; M L.",
"l M ( ) ) / n M _ h v H.( n k b 6 6 b ` d.#.%.1.u.1.1.1.1.1.1.1.1.1.1.1.1.1.1.u.1.%.#.i.Q v : ~ ^ M m c 6 n / ( B n b W H.; M P.",
"b m ~ ) ) ! n m [ v h H.) x b b b b b gXsXwXwXrXrXyXrXyXyXrXyXyXyXyXrXyXyXrXeXeXrXwXwXsXhXv ; ~ / ! W n k m ~ ( ! m b K H.; M L.",
"b m K _ ) ! v M _ l k ] ] W b b b b b U.C.B.v.B.B.c.V.z.c.V.V.z.c.B.C.v.c.V.V.c.c.B.V.V.r.j ; ! ^ ! W n z n ! ( ! m b W H.; V L.",
"b b M ( ~ M v M _ k c H.H.! n b n b m ) W b c c c 6 W c 6 E N c c c N n 4 B E 6 c c 6 6 c v : ! ^ ! ~ n b n ! ( / M v W H.; M L.",
"b b M / ! m l m [ v h H.H.! m b b n G ( ~ k 2 : 1 : b : 1 v 3 ; : : j 3 * c c : 1 : 2 1 3 v : ! ^ ! ! n b n M ~ ( ! m W H.; M P.",
"b b x ! ! m v M H.h k ] ] ~ W b b n ! ) ! n 3 k 5 3 W 2 2 V m v v k m n ; M M 3 c b 5 3 N n : ~ / G ! F b v m ! ) ! m W H.; V L.",
"b b v M V v z M _ v h H._ ~ ! n v m ! ) M b z ! m v H.l 3 ' H.( ( ! / ~ = ( ] k ! K n b ^ ( : ! ~ ! ! m b b n W ) ~ m M H.* M P.",
"n b b m m l b M _ c c H.( ~ ) ! n M ( ) m z z ! m n K.v h ' H.) ) ! ( ~ : ( ] k m M v v / ) ; ~ ^ K ! m v b n M ~ ( M W H.= M P.",
"m b n b b b m M H.v j _ ~ V ) ( W ~ ' / n b z ~ m l H.v 3 ] H.( ) K ( ! : ( ] 5 n m v x ~ ) 1 ! ^ G ! M b b n m ! ) ! W H.; M P.",
"M b b b b n m V _ c l _ ~ n ~ ) ) ) ) ! n n z / M v K.l 3 ] H.) ( W ( ~ ; ( ] k b b v b / ) ; ~ / M ^ W n b b n K ) ! ! H.; M P.",
"M v b b b n ! K _ l z ] ! c W ' ) ( / m z z M ( m v H.v h ] H.( / G ( ~ : ` ] 5 b n b b ^ ) : ! / m ! ! n n n n M ~ ! W H.; M P.",
"! m b b b m ~ G _ k k ] ! z m ~ ( / G x b b W _ F b H.v 3 ] H./ ! B ( ~ : / ] z n b b b ^ ( : ~ / m ! ^ m b n b x M M W H.; M P.",
"^ M x l v m ! ! ] c c ] ! k b m ~ ! n z b b ! ) M v H.v 3 ] H.( ! M / ~ : / ] 5 n b v n ~ ) 1 ! ) b W ~ x n b n l n m W H.; M P.",
"~ W n n v m ~ V _ v z ] ^ 5 b b B n l b b ! ( ( ~ n K.v 3 ] ] ! n n ' ! : ' ' 5 b b n v ^ ) ; ! ] x G ^ M n b b n b l G H.; M P."
};
