/* XPM */
static char *db5acbaf5602473db7b2741a37143f46cpq7nxfW1AosOXs6[] = {
/* columns rows colors chars-per-pixel */
"64 64 254 2 ",
"   c #190000",
".  c #1B1B1B",
"X  c #2B0A05",
"o  c #3B1818",
"O  c #26200F",
"+  c #2A220D",
"@  c #32280F",
"#  c #322715",
"$  c #362A12",
"%  c #392C14",
"&  c #3C2E1E",
"*  c #39301F",
"=  c #122C2D",
"-  c #04393B",
";  c #17393A",
":  c #262525",
">  c #2B2B2C",
",  c #372826",
"<  c #363220",
"1  c #3C3221",
"2  c #3A3A2D",
"3  c #263535",
"4  c #343434",
"5  c #383736",
"6  c #3B3B3B",
"7  c #470606",
"8  c #570505",
"9  c #580C10",
"0  c #471718",
"q  c #571818",
"w  c #640000",
"e  c #6C0101",
"r  c #690B0B",
"t  c #730000",
"y  c #7B0101",
"u  c #780C0C",
"i  c #651414",
"p  c #781615",
"a  c #4A2F12",
"s  c #4C3D16",
"d  c #473518",
"f  c #463618",
"g  c #473819",
"h  c #4A3919",
"j  c #513C16",
"k  c #553C1D",
"l  c #593F1E",
"z  c #713405",
"x  c #442827",
"c  c #572626",
"v  c #5A3F20",
"b  c #463A3A",
"n  c #573636",
"m  c #6C2D29",
"M  c #19413E",
"N  c #3B4334",
"B  c #584D07",
"V  c #494415",
"C  c #59421A",
"Z  c #64481E",
"A  c #6B5115",
"S  c #756F0D",
"D  c #564625",
"F  c #5D4121",
"G  c #454638",
"H  c #634322",
"J  c #6A4624",
"K  c #6D4924",
"L  c #6C4928",
"P  c #724C26",
"I  c #734C29",
"U  c #7A522A",
"Y  c #6A5331",
"T  c #053D43",
"R  c #054547",
"E  c #164848",
"W  c #044B52",
"Q  c #1D4954",
"!  c #035758",
"~  c #185858",
"^  c #284747",
"/  c #394949",
"(  c #35574B",
")  c #285758",
"_  c #375755",
"`  c #366B5A",
"'  c #035D61",
"]  c #155D62",
"[  c #185E63",
"{  c #036769",
"}  c #0F6E71",
"|  c #017274",
" . c #05787A",
".. c #2A6565",
"X. c #33776F",
"o. c #434343",
"O. c #4A4B4B",
"+. c #554948",
"@. c #4F4E51",
"#. c #485555",
"$. c #545454",
"%. c #595B5B",
"&. c #6E4C4C",
"*. c #6B625C",
"=. c #566B6C",
"-. c #646363",
";. c #6C6B6B",
":. c #766B6B",
">. c #777878",
",. c #850101",
"<. c #8A0101",
"1. c #8A0B0A",
"2. c #930101",
"3. c #980304",
"4. c #881516",
"5. c #A30000",
"6. c #AC0000",
"7. c #A30D0C",
"8. c #B30303",
"9. c #BB0101",
"0. c #A81A1A",
"q. c #AB2B13",
"w. c #8B3030",
"e. c #C70304",
"r. c #D60203",
"t. c #CE1B1B",
"y. c #D61817",
"u. c #EC0E0E",
"i. c #FA1A1A",
"p. c #C32E03",
"a. c #D42A28",
"s. c #FC2929",
"d. c #E43636",
"f. c #FD3A3A",
"g. c #954D19",
"h. c #A55316",
"j. c #AA5516",
"k. c #B65B10",
"l. c #8A750F",
"z. c #B26914",
"x. c #84582D",
"c. c #835730",
"v. c #8E5B33",
"b. c #905C33",
"n. c #95662F",
"m. c #B06B26",
"M. c #CF6506",
"N. c #CD6608",
"B. c #D56D0E",
"V. c #DF6F1E",
"C. c #915455",
"Z. c #AF5050",
"A. c #907B73",
"S. c #AD6666",
"D. c #AE7D7C",
"F. c #D9554E",
"G. c #E74E4E",
"H. c #F24746",
"J. c #FE4444",
"K. c #FE4B4B",
"L. c #FD5858",
"P. c #D96968",
"I. c #FE6565",
"U. c #F66E68",
"Y. c #FE6B6B",
"T. c #EA706E",
"R. c #FD7474",
"E. c #F17C7C",
"W. c #FC7C7C",
"Q. c #358778",
"!. c #518579",
"~. c #918806",
"^. c #B08F03",
"/. c #B5AB00",
"(. c #A19A31",
"). c #C8950E",
"_. c #CAB507",
"`. c #F79531",
"'. c #DBA328",
"]. c #D2CE11",
"[. c #EADE06",
"{. c #E6DD09",
"}. c #EADE09",
"|. c #F8D419",
" X c #EDE10F",
".X c #DAD32B",
"XX c #F0C93A",
"oX c #FFF33B",
"OX c #AA9C61",
"+X c #E39346",
"@X c #EB9F4C",
"#X c #F79D49",
"$X c #D0A559",
"%X c #E8A44A",
"&X c #EBA14E",
"*X c #EBAF4D",
"=X c #F9B648",
"-X c #F9B848",
";X c #EAA450",
":X c #E9B670",
">X c #E7CE58",
",X c #F2EC49",
"<X c #F3ED78",
"1X c #037D81",
"2X c #028687",
"3X c #0B8C8F",
"4X c #029799",
"5X c #36958A",
"6X c #29A198",
"7X c #04A5A6",
"8X c #10A8A8",
"9X c #02B9B9",
"0X c #35B6AD",
"qX c #538A8B",
"wX c #6D8C8C",
"eX c #70AFAF",
"rX c #35C9BC",
"tX c #03BFC3",
"yX c #04C8C8",
"uX c #17CECE",
"iX c #03D7D7",
"pX c #33D7CB",
"aX c #02E8E9",
"sX c #0EEEEF",
"dX c #18E7E4",
"fX c #01F9FA",
"gX c #50D7D0",
"hX c #868686",
"jX c #8F9595",
"kX c #979797",
"lX c #A99392",
"zX c #B3B788",
"xX c #8BAAAA",
"cX c #A7A7A7",
"vX c #B0AEAE",
"bX c #B8B8B8",
"nX c #F08484",
"mX c #EDB88F",
"MX c #D2CC8D",
"NX c #EDC88E",
"BX c #EAF28C",
"VX c #F4D2AC",
"CX c #FFF9B2",
"ZX c #B4C9C9",
"AX c #BAE4E4",
"SX c #C6C5C5",
"DX c #CFD0D0",
"FX c #D7D7D7",
"GX c #E2DDDD",
"HX c #F7FDCB",
"JX c #E5E4E4",
"KX c #EBECEC",
"LX c #EFF8F8",
"PX c #F9F9F9",
/* pixels */
"K K K K K K K K K K J J K K K J K K K K K K K K K K K K K K K K K K K K K K K K K K K K K K K K K K K K K K K K K K J K K K J K ",
"v.v.v.v.v.v.v.v.v.v.v.v.v.v.v.v.v.v.v.v.v.v.v.v.v.v.v.v.v.v.v.v.v.v.v.v.v.v.v.v.v.v.v.v.v.v.v.v.v.v.v.v.v.v.v.v.v.v.v.v.v.v.v.v.",
"l k l k k l l f h % # v v k l l l l l l l l k l k d k % # k C F l h h h # f C k F k l h d h # f v v l l k l l l l v k f k + d k ",
"g g J P P P K F I a a I L f f f f H I j v k v k d d c.a % I U C v v J m + L U k f d h C H K + v J v v a l F l H k K J l c.+ l c.",
"g g K P I U L H x.h s x.x.C g s C P U C Z C Z C f h b.h a U x.C H A P P @ P b.K k k Z K A U @ K K H H V Z Z Z Z C U U K c.+ C v.",
"g g l P Y VXBX|.[.{.}.}.}.{.{.[.[.[.[.[.}.{.}.{.{.{. X{.[.[.}.[. X[.[.[.{.{. X[.}.}.}.}.}.}.{.}.[. X[.{.{.{.}.}.[.}. X`.g.X l v.",
"k h k K I BX,XXX=X=X-X-X=X-X=X-X-X-X-X-X-X-X-X-X=X=X=X-X-X-X-X-X-X-X-X-X-X-X-X-X-X-X-X-X-X=X-X-X-X-X-X-X-X-X-X-X-X-X=XB.a + l v.",
"Z h h l I |.XXm.h.j.j.j.j.j.j.j.j.j.j.j.j.j.j.j.j.j.j.j.j.j.j.j.j.j.j.j.j.j.j.j.j.j.j.j.j.j.h.h.j.j.j.j.j.j.j.j.j.z.V.M.@ + l v.",
"K h j h Z [.=Xh.a & & & 1 1 1 1 , x 2 < < < < < < 1 < < < < < < < < < < < < < < < < < < < * * & & & & 1 1 1 * * # H `.N.# + l v.",
"I k h d C {.=Xj.< T W ! { | | 1X3X7X4X3X .[ ] [ ] ] ] ] ] ] ] ~ ] ] ] ] [ ] ] ] ] ] ] ] ] ] ] } | | | | | ! R - - _ &XN.$ + l v.",
"I k g g s {.-Xj.& W | 4X9X9X9XtXiXuXdXdXxXlXD.D.S.S.S.S.S.S.S.Z.Z.Z.Z.Z.S.S.S.S.S.S.S.S.D.D.D.eXuXyX9X4X2X| ! W W X.&XN.$ + l v.",
"K K h d s {.=Xj.1 { 4X9XtXyXyXiXdXxXlXlXnXY.L.I.L.K.J.J.K.s.s.s.s.s.s.f.s.K.J.J.J.J.K.I.Y.I.L.nXvXgXyX4XQ.| { { | 5X&XN.$ + l v.",
"K I k f j {.=Xj.2 2XyX9X9X9XyXyXxXW.W.I.L.I.I.L.K.J.f.f.J.s.i.i.i.i.i.i.s.J.f.J.J.J.K.L.I.Y.I.Y.R.nXeX7X3X2X2X2X7X0X@XM.$ + l v.",
"H I J h j {.-Xj.1 4XiXiX9X9X8XqXT.R.W.W.R.R.Y.I.L.L.J.J.J.K.f.i.s.i.i.s.s.K.J.J.L.K.L.Y.R.Y.R.W.W.Y.P.wX8X7X7X9XiXpX&XM.$ + l v.",
"k P I H C {.=Xj.1 4XaXaXyX8XqXG.L.W.W.W.Y.Y.Y.I.K.J.J.f.f.f.s.i.i.i.s.i.s.J.f.J.K.K.K.L.Y.I.Y.W.W.W.K.G.wXiXiXiXaXgX&XM.$ + l v.",
"h P I I Z {.=Xh.1 3XiXfXfXyX*.u.s.L.W.Y.f.d.a.a.a.a.t.t.t.a.e.y.y.r.y.e.a.t.t.t.t.t.a.a.a.d.f.Y.W.K.i.r.A.aXaXfXfXpX&XM.$ + v v.",
"d K I I P }.-Xj.1 1X9XaXfXiX_ y r.u.s.t.r.c 6 ^ ) ......) ^ b n n n b ^ ....} X.X..._ n n w.e.y.i.u.e.,._ aXfXfXfXgX&XM.% + l v.",
"d H K L U }.-Xj.1 | tXaXfX9Xb t 2.e.5.5.m ~ !  . .2X| { ~ ) / #.@.#._ ~ | 2X7X7X7X3X .~ X.%.m 3.8.9.,.t #.sXfXsXfXpX@XM.% + l v.",
"g k K I U }.-Xj.1 | iXfXiXwXt.3.t t e e E wXZXAXbXwX#./ o.+.hXvXSXDXvX;.) { Q.2X3XjXZXZXqX$.+.w t e y 3.t.eXsXsXfXpX;XM.$ + l v.",
"g h Z L U }.-Xj., { yXuX>.L.K.y.5.w 8 x xXKXGXbXhX*.^ / 6 hXSXKXPXSX>.5 > X.| | [ :.vXJXFXjXn 8 8 t 8.y.J.I.cXsXfXpX&XM.$ + l b.",
"h d l K U [.-Xj.1 ! 4XwXT.R.Y.K.y.3.m kXKXJXcX;.5 G E R ; wXKXPXPXSXkXDXbXcX..! ~ 4 G cXKXDXO.c y 5.y.K.Y.R.T.hX9XpX&XM.$ + l v.",
"j d k H Z [.-Xj.< E w.K.I.R.W.I.J.w. .AXGXkX;.6 > O.E - = wXDXKXFXjXA.cXcXhX=.W E b + O.cXJXvX>.n Z.K.L.W.R.Y.H.C.0X&XM.$ + l v.",
"k d h l j {.-Xj.< R p u.K.Y.R.W.>.3XeXPXSX;.N > > o.O.T - =.bXFXvXhX$.3 E E E E @.O.O > *.FXKXvX:./ C.:XR.Y.K.i.p 6X&XM.$ + l b.",
"k h g h j {.-Xj.1 R c r.i.K.R.A.3X8XAXPXkX-.6 > . -.$.-.E ^ vXFXbXkXwX#.M - R Q A.*.O : +.bXKXGXqX3X[ C.T.K.i.r.c 5X&XM.$ + l v.",
"H h g f s {.-Xj.< R i 9.r.i.s.C.4X7XAXGXhX6 > & b $.hXhX%.#.cXJXGXSXvXjX-.#.^ Q jX*.O 4 O.cXKXJXqX7X2XC.s.i.u.9.c 6X;XM.# O v v.",
"K h g f s {.-Xj.1 ! E 1.r.r.e.u _ } ZXSX;.4 > > 4 o.kXcXSXDXKXPXPXLXKXFXvX>.;.hXcX$.: 5 @.kXKXJXqX ./ i e.r.e.1.X.0X&XM.% O l v.",
"K j h d s [.=Xj.1 { 2X^ 1.e.2.e q #.FXZX-.4 4 > > > %.kXFXPXPXPXPXPXPXPXSXhXqX5X:.4 > 6 @.kXKXKXwX/ i e 2.e.1...tXpX;XM.$ + l b.",
"H k g g s [.=Xj.1  .yX4X^ u <.w w i DXbX-.5 > 5 > > > %.cXKXPXPXPXPXPXJXbXjX=.#.4 > 4 o.$.kXKXJX*.9 w e ,.u ..9XaXpX&XM.$ + v v.",
"k H h f V {.-Xj.1 3XaXiX2X, w 8 8 8 SXSX*., > > 5 5 > > $.SXGXDXDXFXFXSXkX;.6 6 > > 4 @.;.kXKXKXC.8 8 7 8 b 9XiXaXpX&XM.$ + l v.",
"k K k d s {.-Xj.1 4XfXfXyX&.5.,.w r SXZX*.4 > > > 4 > : 5 kXSXbXbXvXbXcXhX$.> : : > 6 $.;.cXKXKX&.e <.2.9.&.uXaXiXpX@XM.$ + l v.",
"h H k d Z {.-Xj.1 3XaXfXsXA.u.9.<.r vXvX-.5 6 4 > > > > 6 cXSXcXjXjXkXhX;.O.> . : : 4 $.>.cXKXKX&.y 9.r.u.Z.uXiXyX0X@XM.$ + l b.",
"h k H h K }.-Xj.1 1XaXfXgXG.u.r.6.e lXvX;.6 6 6 6 4 > > 6 cXbX>.%.-.-.;.-.o.> : > 5 O.%.hXbXKXKX&.<.r.r.u.F.wXtXtX0X@XM.$ + l b.",
"f k K k P }.-Xj., | uXgXE.K.s.u.6.c jXFXhX6 5 N o.5 > : 6 kXcX;.O.O.O.$.%.$.> > 4 o.-.>.kXSXJXFX:.p e.u.s.L.P.wXyXpX@XM.$ + l v.",
"f k H H Z [.-Xj.& ' 6XZ.H.W.L.a.p / -.JXkX6 4 5 6 5 3 = 6 kXjX@.5 6 5 O.>.;.o.6 6 o.-.kXvXFXJXbX=.O.p t.L.W.L.Z.tXpX@XM.$ + l v.",
"f h C H C }.=Xj.1 | 3Xw.i.L.F.p _ ^ M bXbX@.: 5 4 3 - R _ jXjXo.: > : O.kXjX%.6 / O.>.vXSXKXKXvX#.W 6 m F.L.i.w.uXpX#XM.$ + l v.",
"h f h k C {.-Xj., 3X8Xn e.i.0.o n $.E wXFX>.4 4 > - T T #.cXcX@.: : : @.cXcX%.5 5 o.hXSXDXGXFXjX[ = 5 q 0.i.r.m tXrX@XM.$ + l b.",
"g g g j s {.-Xj.1 4XyX) t 8.6.y w c ^ %.FXvXO.3 > - T - %.bXbX@.. . . %.bXcX%.> 5 6 >.FXJXFXcX!.R o t t 5.9.y / 9X0X@XM.$ + l b.",
"g g d f s {.-Xj.1 3XyX4X3 r t e 8 w m O.kXFX;.N 3 ; - = :.ZXSX$.. . . ;.JXcX:.> 6 4 >.KXKXDXhX$.7 8 w e y r ^ 4XtX0X@XM.$ + k b.",
"h g h f s {.=Xh.1 1XyXyX2XE , o 8 y e c *.SXvXO.; - T = hXDXFX-.. . 3 jXJXbX>.= 4 3 :.PXFXhX%.c y y 9 , , ~ 2X7X7X6X@XM.$ + l b.",
"l g g f j {.=Xh.1 { yXiX0X=.) ; q ,.2.e c %.vX>.x - - =.vXFXFXkXO.O.>.bXDXJXcX) ; T ;.GXhX$.c t 2.u , E ..=.5X3X4X5X@XM.$ + v b.",
"C j d d V {.=Xj.& { 4X0XD.J.t.<.q u 6.5.w n >.wXo.G Y MXOXMXOXBXMXMXMX(.OXzXOXzXR - ~ !._ 5 e 5.5.x c <.t.J.P.qX2XQ.@XM.# + l v.",
"K v d d k [.-Xj.1 ! qXP.I.Y.d.8.<.y 2.8.y c +.O.%.`.-XXX.X.X.X.X.X.X]..X]././.~.S R - - - : y 6.<.,.<.7.d.U.U.P.qXX.@XM.% + v v.",
"K v h d V {.-Xj.* Q Z.f.J.I.G.0.t t w <.<.e n *.;X,X<XCXCXHXCXNXmX:XNX<X,X{._.^.S Z M R : t 2.<.e t e 0.F.Y.K.s.Z.Q.@XN.$ + l v.",
"K v l h C {.-Xj.1 T 1.r.i.d.0.9 o o e 8 t w G S.|.oXBXBX,X.XH.8.3.e.r.V.^.~.~.l.S B G R ; w t 8 8 o 0 7 7.s.i.r.4.X.&XN.$ + l v.",
"J J l k C }.=Xj.< - x 3.e.r.6.0 ! W : 7 t r N T k._._.,XXXp.5.7 t 9.<.3.5.Z S a B N W | ~ 7 e 8 = R R 0 5.r.e.2.o X.@XM.$ + l v.",
"l J H k Z }.-Xj.& R ! , i 1.5.,.# ^ 3 9 0 +.Q Q B.|._.BXT.r.8 X <.t   7 ,.z S V B N | 2X| ! 0 9 > 3 0 ,.5.,.i x ' 5X&XM.$ + l v.",
"k J K l P }.-Xj.& W 2X1X{ ; x x e y t t : ^ #.Q k.|.].BXF.e.3.X   X 7 t 8 q.S V B N Q.4XQ.{ > e t y 8 0 & : W ' 4XpX;XM.$ + l v.",
"j K K H P  X-Xj.& ! 4X0XqX_ Q ! 3 0 8 w w : T Q N. X/.BXF.1.6.t     e 9.8.q.S V B N ' Q.! : 8 w 7 0 : R M / ..| 3X0X@XM.$ + v v.",
"d H I I U [.-Xj.* { qXnXI.y.8.m 6 , 9 ,.,.t o T j.|._.BXU.1.7   8 e X w 9.g.S j B 2 ! E o t ,.,.q , x p 6.y.F.=.2XQ.@XN.$ + l v.",
"h l K I U }.-Xj.& [ D.W.R.H.u.r.,.y 2.5.2.<.8 = k.|._.BX;Xt.t 8 5.,.X y ,.B S j B N ' M w <.2.5.,.t ,.9.u.H.Y.T.qX5X@XM.$ + v v.",
"d k K I U [.-Xj.* ~ Z.s.L.Y.a.r 0 y 5.8.6.2.t - k. X/.<X.X).a.7.9.y w ,.a A S V B N { M t <.6.8.3.u m 4.a.W.I.s.Z.5X;XM.$ + l v.",
"d j H I P  X-Xj.* R c e.i.H.0.0 E , 0 2.6.<.7 D B.,X>XHXBXBXNX`.B.B.k.l.l.S l.v B V E R 7 ,.6.1.b @.+.i 0.d.i.r.+.5X&XN.$ + l v.",
"h h v L P {.-Xj.& R } 6 8.e.y 8 , = - 4 m x W l.B.(.%X:X$XmX:X).).).^.l.S l.x.L Z B 4 R M x n ^ W N c w y e.9.$.2X5X@XM.$ + l v.",
"h d k J K {.-Xj.& ! 2X3Xo.c 0 t y r : ~  .} ` m.(.(.:X:XOXmX:X'.'._.).^.l.l.S x.K C V E ' | Q.' o r ,.y 0 c @.3X3XQ.@XM.$ + l v.",
"h h j H Z {.-Xj.& W | Q.) , i 3.5.5.t ~ 2X4Xm.B.(.XXmX$XmXVX:X$X'.).).^.l.l.S l.J Z B 4 ! | | E ,.5.5.5.i 5 )  . .X.@XM.$ + l v.",
"g g g v Z [.-Xj.1 R ! R , q 9 r <.5.r ~ 2XQ.m.(.(.*X$X(.:XmX+X).).).).^.S l.x.S U J C V R W ! M 1.3.u c c c 5 | | X.@XM.$ + v v.",
"h h h h k [.=Xh.: - - - - - - ; 0 8 = W { n.B.*X>XMXMXNXVXVX:X>X.X_._.^.~.~.~.S S n C B < - - T > 9 ^ 2X2X} { | | X.&XM.% + C v.",
"k h d g h [.=Xk.J / ( ( ( ( ( ( ( ( ` _ ` m.z.'.`.V.z.+X`.`.V.z.z.m.N.n.c.U U n.n.b.v.U Y ( ( ( _ ` X.5X5X5XX.X.X.!.#XM.% + C b.",
"v f d d s [.-X`.`.;X@X@X@X@X@X@X&X@X&X@X+X#X#X#X#X`.#X#X#X#X#X#X#X#X#X#X#X@X;X#X#X#X#X@X&X@X@X@X&X&X&X&X&X&X%X@X&X&X`.M.$ O v v.",
"F h d d j {.%XB.N.N.N.N.M.N.M.N.M.M.M.N.M.M.N.N.M.B.M.M.M.B.N.N.M.M.M.M.N.N.N.B.M.N.N.N.N.N.N.M.M.M.M.N.N.N.M.N.N.N.B.k.$ + v b.",
"F k h g k +Xv # % % % % % % % % % % % % % % $ $ % % % % % % $ % % % % % % % % % % % % % % % % % % $ % % % $ % % % % $ $ $ + l b.",
"K k g g d k F f k % d F f # % $ % % % % % % % d % % C @ a l h % % % h f $ F k $ % % % # d h @ k k % % % % % % % % % % f l + l b.",
"K C h g h v J v U d f I J f d h k h g h d H I P H h v.d % c.c.H h h I J + I U f g h h d L I # H U h C K F g h g f h h F c.+ l b.",
"v F F F v v v v U d f U I h h d g g g f v v v v v k c.d & U I h h h L J # I c.h g h h v J I # H U v h F k g g g g g f v c.+ v v."
};
