/* XPM */
static char *_8a6fb7ab3304fbc897afc81570a2c6efF1nzbaBdPP864LO[] = {
/* columns rows colors chars-per-pixel */
"64 64 49 1 ",
"  c #000027",
". c #000028",
"X c #00002B",
"o c #000033",
"O c #000037",
"+ c #00003A",
"@ c #00003C",
"# c #000043",
"$ c #000045",
"% c #00004B",
"& c #00004D",
"* c #000052",
"= c #000056",
"- c #000058",
"; c #00005C",
": c #000063",
"> c #000065",
", c #00006A",
"< c #00006D",
"1 c #000073",
"2 c #000076",
"3 c #00007A",
"4 c #00007C",
"5 c #000083",
"6 c #000085",
"7 c #00008B",
"8 c #00008E",
"9 c #000092",
"0 c #000094",
"q c #000099",
"w c #00009E",
"e c #0000A1",
"r c #0000A7",
"t c #0000AB",
"y c #0000AE",
"u c #0000B3",
"i c #0000B4",
"p c #0000B8",
"a c #0000BC",
"s c #0000C1",
"d c #0000C5",
"f c #0000C9",
"g c MediumBlue",
"h c #0000D1",
"j c #0000D7",
"k c #0000D8",
"l c #0000DC",
"z c #0000E0",
"x c #0000E6",
/* pixels */
"-&0ryahjjhjhjjhhhjhjhhhjhjjsiyr<&*<ryidkjjhjjhjhjhhjjhhjhjjhpur9",
"-&4paaaaaaaaaaapyuupipiaiaipiae>&*;wsaaaaaaaaaapyuuipppipupuaup5",
"-&3paupaaiuiiyuyuyyupipipiuyipw>&&:wdiiaapuipyuuyyyyipipipuyupy6",
"-&3yipiypaiuuytuyuypipipiyyutuw>**;0iipuiaiyuytyuuuiipiipuyuyty6",
"-&3ypuyuuiiytyyuiupiyuiupupyyyq>**:0ppuyuipyytyyiuiiuuuiiiiityr5",
"-&3tipuyuyutttuiiutyuyutypyyttq>&*;0piiuyuuytyypiiyyyyuyyuptytr5",
"-&3yuupuyyttttyuuitrytytttrtryw>&*;quuipyyytyttyiuurtyyttttrtry5",
"-&3yytyytttryytyrttrtttiyrtyryq>&*:0uyturttrtttytttrtttyurtytrt5",
"=&3rwterrrrwrytrwrttyeryterterq>**;0twterrteetyteetyttetyewttwr6",
"-&3r8qeq9wewwreqewweewetwe00ee0>&*:9w8ew0qrweerqwwqeewereew9qeq5",
"-&3978q990wwww0we000q0w0wq97ew0>*&;8870q890e0eq0r090q9qqqw089r06",
"-&3878880988879q087777779989998,&*:788889089888qq977887799899086",
"-&1321>:>>=**&--==*=**->;::<112-&*-331<>>>;&=&*;==*=**-::;>>1121",
"*@$#$@+Ooo. ....    . ooooO@#$$#$%#$##+OoOo ..    . . .OooO+@$$$",
"%@OO+O++++@@@@@@@@@@@@++++++OOO+$$+OOO+++++@@@@@@@@@@@@+++++O+O+",
"==--=-=--=---------------===-========-=-===-------------==-==-==",
"rripttiipassasasssassppipyrrrrrupurrrrypppssssssssassapppitrpirr",
"pssssssssasddddfffdffsssppisaiaddaiipasadgfsdsassddffddddsppaapy",
"piyyupuytrtuuyuiyyiuiuiytyiiuyuiiyttipuyyiiytrttutuuyyiiiiuirttr",
"ipuyuuytttupiiyyuyiyupuytyipuuyuuytuuiiyyuuytyuiiiuyuyuyyipyytrr",
"ipsiiiyuyuipppiyuuuyuuuypiiuiiiuuuupiayuiuuyuyuippiyuuuuyyuyyyut",
">>,>>>:>>:>>>>>:::>>::>:,>>:>>>::>>>>>:>>>>:>:>>>,>:>:::::::::>:",
"*&&&&&&*&&*&*&&&&*&&*$$%%&*&*%$%%$%$%$$%$$$*&&*&&&*&&&*&&&&&&&&%",
"11111111111111111111<uiti,*,,wauyuiaiipasdy<11111111111111111111",
"444444444444444434443ddpa,&11igppapsasdadgi234444444444434444443",
"444444444444444434443aats<&<2isyyuyuyyiuipy344444444444444444443",
"444444444444444444442spyi,*<1pgpirettyttrtw344444444444444444443",
"444444444444444444443sayi,&12afiit4:>,>:>><444444444444444444443",
"444444444444444444443aaui>&11idyue2$&*&*&&;544444444444444444443",
"444444444444444444443spuu:#>,usttr6:>>>>>><444444444444444444443",
"444444444444444444443aatirqupgduuttpuuuuuuw344444444444444444443",
"444444444444444444442sayyagfjgaiuyifsddsssr344444444444444444443",
"444444444444444444443saiiiiyiaiyyuuuyyytuie344444444444444444443",
"444444444444444444442siyuuyryyuyyrqeeewriae344444444444444444443",
"4444444444444444444447321222<7ryuw3><<5aypw344444444444444444443",
"444444444444444444335*%$$%$%#2etur2#&%4luat344444444444444444443",
"444444444444444444444,>>,>,>:5euur4:,>8juir244444444444444444443",
"444444444444444444443wtrrerrrwriir8445wjutq344444444444444444443",
"444444444444444444442dlkkkllliripy7343wltyw344444444444444444443",
"444444444444444444443tityyiytuuyur7343elyuw344444444444444444443",
"444444444444444444443tiytutttrrrre6334expiw344444444444444444443",
"444444444444444444443654444442322334430p0q7344444443444344444443",
"333333333333333333333*###$$$$$$$$#;433:O##*333233333333333333333",
"880089000qqqqqqqqqqqw65555555555557wqq95446wqqqqqqqqw0q000880087",
"psghsaghgjjkjjkkklkkkkkljkkllklzkkkjjjklkjllkkjjkjjjkkhhhgaaggpp",
"iiuypauytttyyuipipiiiyuyryuiiyiaiuyttuiiyuapyuttuuyuiuiiipiuiyty",
"piuyuiuyytuiiuiiuypuiiiyyyiiuyyiiyytyipuyuuiyytyiiyuiuuiiupiityr",
"asapppiuiipaaaiipipiisiiuppsappipiuiipaspippiiuisasiiiipiuiauiyu",
"1<21<<,<<<<11<1,<<<<,,,,,<1<21<1<<<,<1<12<<<<<,<1<1<,<<<<,,,,<,<",
"++++++@+@++++++++++++@+++@+++@+++@+++++++@@+++@++++@+++++@++@+@+",
"###########$$$%*&%$$$#######@##############$$$%&&%$$$$##########",
"77777778775331:*-,3247777777777877777778776433,==:23357777777777",
"ssfsfsddddpuyq>&*4rupdfddfdfffddsdddddddsfsiyt4*&>qyiafffffdddss",
"iiapapaaappaiq:&*1usaassapsaaaiuiiiaaapapapppu3*&;qaaassaaaapiii",
"uyipiiiiuyyiu0:%*1yaippapuiuyyyyuyuiiiiiiyyiit2*&;0ipppiaiyyyyuy",
"yipupippuuyyy9:&&1rpiuyiaiuyttuuyupiipipuyuytt2*&;9upiuuaputyiyt",
"uiuyuiuiiiytt9:&*1riiuyupiytyyipuuiuyuiuiiitye2*&;9upiyyipyyypii",
"utyyyytyiyttr9:&*<ruiiyuuytttuiiiytyuyytuuttrr2*&;8yiiiyyuytiipi",
"prtyyyyrtttty9:%*1ruupuyytytttiyuyrtytytrttttt2*&;9yuiiuytttyiyr",
"ttrrttitryytr9:&*<rytttrrtrttytrrtrrttyirrytte2*&;9yytttttrtytre",
"rytyqrtrwerww9:&*1wwteerrtqeytrewtttrwtrewrewe2*&;9wreerrtryrrqq",
"00eqrrewe99re7:%*1w98ew7wqewew0ew0wwqtreqw7wr03*&:8q8qe98ewr0qrr",
"7080798w989qw7:&*<6779807e9ww7we98989899w799e02*&:57789999e08r0q",
"06069797889866>%*107979006875qw9087879797979683*&;6888700957e000"
};
