/* XPM */
static char *f18be0ab860a4201d25fc88eb6215c669nt5TT3S5PmBjbm9[] = {
/* columns rows colors chars-per-pixel */
"64 64 197 2 ",
"   c #000001",
".  c #0D0500",
"X  c #0A0A00",
"o  c #00000B",
"O  c #110D08",
"+  c #141406",
"@  c #17150A",
"#  c #18170C",
"$  c #1A1A0B",
"%  c #000014",
"&  c #00001B",
"*  c #1B1B18",
"=  c #25231A",
"-  c #000023",
";  c #0B0627",
":  c #01002B",
">  c #1F1F21",
",  c #18182C",
"<  c #000034",
"1  c #00003C",
"2  c #0C0B3A",
"3  c #18163C",
"4  c #290334",
"5  c #212121",
"6  c #2E2E2D",
"7  c #3D3D33",
"8  c #39393A",
"9  c #4A0D07",
"0  c #540201",
"q  c #5B0805",
"w  c #541802",
"e  c #550317",
"r  c #4C1511",
"t  c #4D1715",
"y  c #4D171C",
"u  c #660000",
"i  c #6E0000",
"p  c #6E0A0A",
"a  c #700101",
"s  c #720C0C",
"d  c #720D18",
"f  c #721313",
"g  c #791313",
"h  c #731C1C",
"j  c #7B1C1C",
"k  c #6D2908",
"l  c #6A2815",
"z  c #410C2E",
"x  c #560225",
"c  c #54022A",
"v  c #4D1723",
"b  c #4D172B",
"n  c #531527",
"m  c #410C34",
"M  c #410C3B",
"N  c #490B39",
"B  c #550233",
"V  c #4D1732",
"C  c #4D173A",
"Z  c #781C26",
"A  c #732323",
"S  c #7D2222",
"D  c #742B2B",
"F  c #7B292D",
"G  c #7D2732",
"H  c #753434",
"J  c #7F3333",
"K  c #763B3B",
"L  c #404033",
"P  c #010044",
"I  c #01004C",
"U  c #0A0A49",
"Y  c #151547",
"T  c #191944",
"R  c #191949",
"E  c #000053",
"W  c #00005B",
"Q  c #0B085A",
"!  c #121450",
"~  c #14145C",
"^  c #240158",
"/  c #31015B",
"(  c #292948",
")  c #000064",
"_  c #0B0C64",
"`  c #01016C",
"'  c #0D0D69",
"]  c #121260",
"[  c #000073",
"{  c #0B0B72",
"}  c #00007C",
"|  c #28016C",
" . c #410C43",
".. c #4E1544",
"X. c #764343",
"o. c #774B4B",
"O. c #784C4C",
"+. c #775151",
"@. c #785454",
"#. c #795C5C",
"$. c #796363",
"%. c #7A6B6B",
"&. c #7B7171",
"*. c #822727",
"=. c #842B2B",
"-. c #812C3A",
";. c #853232",
":. c #8A3535",
">. c #8B3C3C",
",. c #994600",
"<. c #9B4900",
"1. c #9C5400",
"2. c #9D5609",
"3. c #986400",
"4. c #A96700",
"5. c #AE7400",
"6. c #B47800",
"7. c #C47F00",
"8. c #873645",
"9. c #8D4242",
"0. c #8D414B",
"q. c #934B4A",
"w. c #904A5B",
"e. c #96565B",
"r. c #9A5B5B",
"t. c #975B6B",
"y. c #935C74",
"u. c #9D6464",
"i. c #8B6E78",
"p. c #9B6472",
"a. c #A06767",
"s. c #A16B6B",
"d. c #A26E77",
"f. c #A47478",
"g. c #A87A7A",
"h. c #B98401",
"j. c #B78C03",
"k. c #BC850A",
"l. c #B99205",
"z. c #B0BA00",
"x. c #C58100",
"c. c #C88600",
"v. c #CA8900",
"b. c #C6A100",
"n. c #DFB700",
"m. c #DFB800",
"M. c #E1B900",
"N. c #BDC900",
"B. c #C2CE01",
"V. c #000083",
"C. c #000086",
"Z. c #000088",
"A. c #00008A",
"S. c #00008B",
"D. c #00008F",
"F. c #000092",
"G. c #000093",
"H. c #000095",
"J. c #000096",
"K. c #000098",
"L. c #00009A",
"P. c #00009E",
"I. c #0000A1",
"U. c #0000A3",
"Y. c #0000A4",
"T. c #0000A5",
"R. c #0000A9",
"E. c #0000AB",
"W. c #0000AE",
"Q. c #0000B2",
"!. c #0000BB",
"~. c #0202C4",
"^. c #0000CA",
"/. c #0505D2",
"(. c #0000DB",
"). c #0F12DB",
"_. c #1C1CE7",
"`. c #0000F0",
"'. c #937781",
"]. c #AD8484",
"[. c #B18D8D",
"{. c #AB8A97",
"}. c #AB909D",
"|. c #B49393",
" X c #B79A9A",
".X c #B89D9D",
"XX c #BAA09F",
"oX c #B396A5",
"OX c #B599AA",
"+X c #B79FB0",
"@X c #BBA4A3",
"#X c #C0AEAE",
"$X c #C2B3B3",
"%X c #C7BCBC",
"&X c #CAC3C2",
"*X c #D4D8D7",
"=X c #D8E2E2",
/* pixels */
"[ [ [ [ [ [ [ [ [ [ [ [ [ [ [ [ [ [ ` [ [ [ [ ` [ ` [ ( 7 ~ ` [ [ ` [ [ ` [ ` [ [ [ ] 7 ( [ [ [ [ [ [ [ [ ` [ [ ~ ( ` [ ` [ ` 7 ",
"H.H.H.H.H.H.H.H.H.H.H.H.H.H.H.H.H.H.H.K.H.A.A.C.V.[ } : $ _ K.K.K.H.K.H.K.F.C.} } } E X T K.K.K.H.H.H.K.D.} [ ` 1 - P.T.T.U.}   ",
"H.K.H.V.F.} F.P.A.} V.A.} } D.V.[ [ F.C.[ [ [ [ ` W W % $ _ P.D.A.V.C.H.H.V.} } } ` < X T U.E.T.T.E.W.Q.W.Q.U.A.I - P.U.V.A.[   ",
"K.A.[ } A.V.A.[ [ A.D.A.[ [ D.` [ [ [ } A.[ ` ` W W E & $ ' F.F.K.A.V.A.} [ [ } A.W < X T P.T.Q.T.T.Q.Q.E.E.K.D.I - F.P.P.V.I   ",
"K.} F.` V.[ } [ ` [ V.V.} [ ` ` [ } ) ` ` ) W I I I W & + ' H.V.} V.V.} [ [ ` ) E E < X T U.W.U.E.Q.W.U.H.A.} } P - } ` [ ` P   ",
"K.} [ F.H.D.` ` [ [ D.D.V.V.} } ` ` W ` ` ` ) ) W I ) & $ ' P.V.A.K.A.` ) ` ` ` E I < X T P.W.P.)._.E.U.T.F.} [ I & } [ ) W I   ",
"K.A.V.U.T.K.F.D.V.D.K.K.D.V.[ [ W ) W ` [ [ [ ` E I E & + ' P.H.A.} } ) ` } } [ W E < X T P.U.T.E.!.E.K.U.F.[ [ I & V.[ E I P   ",
"K.H.A.K.T.U.P.D.[ ` A.K.D.} } [ ) ) ) W ` [ ` W E E W & $ _ P.D.} [ } } [ } } ` W I < X T P.E.W.K.P.P.U.U.D.` [ I - [ E P I P   ",
"H.D.[ A.K.K.V.V.} [ [ ` } } } ` W ` [ W W ) ) W E E E & $ ' H.C.} ` [ V.F.V.` ) ) I 1 X T P.E.Q.T.F.V.A.K.F.} ` P o & & & & %   ",
"K.} } V.H.} [ [ D.H.[ E E W ) W ` ` [ ) W ) ` W E I E % $ ' A.} [ ` [ } A.} W W E E 1 X T P.E.W.T.D.} } V.A.[ W < % ) [ [ } )   ",
"D.[ } D.V.} ` } H.H.[ W I I I W ) ` ` W W ` ` ) E E E & @ ] C.[ ` ) ` } [ ) ) I I E < X T P.U.E.T.D.V.} V.} ` W < - P.W.P.W.V.  ",
"A.[ V.} [ A.} ` } ` ) W I I I E W ` W P E ` [ [ E E W % + _ A.} ` ) ` [ [ W ) E W E < X T U.W.!.W.K.V.} V.} ` W 1 & D.H.V.D.W   ",
"A.[ V.[ ) V.} ) W W W ) W I E Q Q W P < 1 I ) ) E I E % @ Q } [ ` W W Q W E E I W E < . 3 K.U.E.T.K.A.} } } ) W < & V.H.V.` I   ",
"A.V.} [ ` ` ` W E W ` ` ) E 4 e v y y y y y v b v v n w w n V V V n v v v n v y n v t w t ......| C.V.V.} [ W E 1 & V.A.[ W E   ",
"V.[ } W ) W E E E E W I E 4 k 5.v.v.x.c.v.c.v.v.x.c.v.v.x.v.v.v.v.v.v.x.c.c.c.c.v.v.v.x.c.v.v.h.l ^ C.D.} ) W E < & ` ) E I I   ",
"1 < 1 : - : : < : : - & ; r 5.B.j.h.k.k.k.x.h.k.k.h.h.h.k.h.h.h.h.6.k.k.k.k.h.k.k.h.h.h.x.k.l.N.4.N V.A.[ W E E < o : : : - -   ",
"V.[ ` } [ [ [ ` [ [ [ [ ` V v.l.y.-.u.*.p.OXd p.OX-.u t.oX8.u u w.w.;.OX}.w.Z +Xe.Z f.-.p.G p.2.7.m } V.[ ) E E 1 o I D.D.D.A.D.",
"Q.T.H.T.Q.W.U.F.P.U.F.K.F.C x.k.}.q.@X>.OXg.a #Xs.[.j @Xg.].:.e.d.s.f.g.$XF q.&XS 9.*X%X X9.oX2.7.N H.U.} [ ) E < % V.^.^.(.~.~.",
"T.A.V.V.P.P.V.[ A.A.} [ } C 7.k.'.q.|.:.|.$X*.|.#Xr.s [.$Xu.f ].s.r.].>.|.u q.*Xr.;.=X=X[.>.{.2.7.M F.F.[ ` W W 1 & H.~./.`.~.E.",
"K.A.P.K.A.D.[ ` [ V.[ [ { V c.x.oX8.|.>. Xd.a @Xa.].S |.s.g.>.g.u.r.].q.|.u q.$XS 8.+Xu..Xs S 1.x. .V.} ) W E W 1 & P.!.^.(.Q.Q.",
"} A.T.W.P.} ` V.V.} } ` Q V v.j.G [.r.s #X%X*.#X*.$X:.[.&Xu.j j g.g.A r..Xu q.=Xu.>.@X:.@X;.p.2.7.m [ } ` W E W < & P.~.!.E.H.E.",
"F.V.F.E.T.[ } } [ ) W ) ) V v.h.u =.g a *.8.s =.s =.s *.9.g i i j *.i g *.i g 9.=.s *.s *.g F 1.7.z ) [ ` W E E < - W.!.!.U.Q.K.",
"V.[ } F.P.V.[ [ } ) E ` Q y v.h.u i a a a a a a a i i i i i a a i i i a i a i i i i a a i i u 1.x.z ) ` ) E I I < - T.!.E.W.W.F.",
"D.} V.[ A.} } V.} ) ` ` ) b v.h.u i a a a a a a i a a a i a i i a i a a i i a i a a a a a a u 1.x.m ) ) ) W E W < & U.!.U.P.D.T.",
"P.V.V.H.V.} D.A.[ ` ) E I n v.h.u a a a o.%.%.f +.h X.%.%.$.%.D D &.K A &.%.%.$.%.X.f &.o.a u 1.7.m ) ` W E E E < & P.!.Q.U.W.!.",
"P.V.[ V.P.K.` ` V.} [ ) I y v.h.u a a i f h h a h a s h A A h p s h a a h h A f h f i h f a u 1.x.m ` [ W W E W < & P.!.W.Q.Q.E.",
"A.[ } D.T.T.A.V.} } V.` I y v.h.u a o.%.$.#.$.%.f X.#.%.h H %.D D %.#.$.$.K h %.#.$.#.%.X.a u 1.7.M } [ ) E I W 1 & P.!.Q.!.T.K.",
"A.H.V.A.P.T.K.[ ` [ ` ` Q y v.h.u a h h h D A A i f A A i g D a s D A A D s i A A D h A f a u 1.x. .} [ W W W ) < & A.!.~.!.U.P.",
"} D.F.F.D.P.K.) ) W E W I y v.h.u a X.#.#.f K #.#.@.#.@.%.h H #.#.D A K f $.@.#.K f #.#.X.a u 1.7. .V.} ) I E W 1 % V.!.W.!.Q.K.",
"V.} P.K.F.F.V.) W E E E P y v.h.u a D H H s A K H H H H H s h H H f f A f K H H A s H H A a u 1.x.N [ } ) I P E < & V.!.Q.Q.W.U.",
"V.V.A.K.K.} ) ) I I I P 1 t v.h.u a a a a i a i i a a i i i a i a i i a a i i i i i a a a a u 1.7.M ` [ W E E E < % V.!.!.T.F.P.",
"} } [ V.A.[ E E W W W E P y v.x.u a a a K O.+.s H o.o.o.o.o.o.+.A A D h @.D f +.o.H g @.H a u 1.x.M ` ) W ` W E < & V.!.Q.W.H.D.",
"} A.} ` [ [ ) W ) [ [ ) I y v.h.u a a i H X.X.s D K X.K K K K X.h h A f X.A s X.X.D s X.D i u 1.x. .V.[ ) ` ` W < % V.!.E.!.F.} ",
"A.H.V.[ ` ) W E W ` ` W I y v.h.u a H X.p A K X.K X.a A K K K f h K K K H K K K A s X.K D i u 1.x. .D.D.[ ` W E < & V.!.W.K.} } ",
"F.A.} } [ ) W E E E E W U n v.h.u a K +.f H +.O.o.@.s H O.O.+.h A +.O.o.o.o.o.o.H s +.+.H a u 1.x.M } A.A.[ W W < % } !.Q.F.A.} ",
"V.V.[ ` [ [ [ E I P P I I v v.h.u a h D H H a h D D H D D D D D H s s f i H D D h s D D A a u 1.x.m ` V.V.[ ` ) < % ` Q.U.E.A.V.",
"} ` ` ` ` ` ` E 1 1 P P P v v.h.u a X.#.@.#.f K #.@.#.@.@.#.@.#.#.D A H h $.@.#.K f #.#.X.a u 1.x.M ` ` ` ) W W < % ` Q.U.V.V.} ",
"} W W ` W ) ) E P P 1 P U n v.h.u a h A A a A D i f A A A A i s s s D f s A h A D D f a h a u 1.7.M ` W W W E E < % ` U.H.V.} } ",
"V.} ) ` ) ) I E I P P P P y v.h.u a X.$.%.f X.%.f X.#.#.#.%.A H D D %.H h %.#.$.#.$.X.f o.a u 1.x.m E I E W I E < % ` U.V.V.A.} ",
"V.D.} ) ` ` E I I I P P I v v.h.u i g A h D a f a f h h h a f A A s i D A h h s i h A D f a u 1.7.m ) W I E W E < % ` K.A.A.V.} ",
"W E I 1 P I P 1 ; 1 1 < 1 y v.h.u a O.%.$.%.f O.f X.$.%.%.h H %.%.H A %.$.$.$.X.f &.$.$.o.a u 1.x.M ) W E E I I < % U W W W P W ",
"X X X X X   o % % & & & & w c.h.u a a i i i a a a a a a i a a i i a i i i i i i i i i i i a u 1.x.m ) E E E I E 1 X * % % % % X ",
"5 T T R R ` [ } C.F.H.K.A.C v.x.u a a a a a a a a a a i a a a a i i j 9.;.>.F >.9.K 9.9.:.i u 1.x.z W ) E I E W 1 X , ` ` [ ) = ",
"5 F.E.W.!.!.Q.Q.Q.W.Q.Q.E...v.b.u u u i i u i u u i u i u i u i u u 0.}.i.{.i.}.}.i.}.}.d.u u 3.x.r < < 1 1 1 P :   , Q I ) E 5 ",
"5 H.Q.E.W.E.E.U.P.E.E.U.A.C 6.B.2.1.1.1.1.1.<.1.1.1.1.1.1.<.1.1.1.1.<.,.<.,.<.,.<.<.,.,.<.1.4.z.5.9 . X X X X X X X 5 2 2 2 U 5 ",
"5 K.W.E.T.P.U.E.T.E.E.K.H./ l l.M.M.M.M.M.M.M.M.M.M.M.M.M.M.M.M.M.M.m.M.M.M.M.M.M.M.M.m.n.m.M.b.l 4 R R R T R R R R T T T T 3 = ",
"> E.E.W.T.T.W.E.D.V.F.E.Q.P./ x x x x x x e e e 0 u e x B B c e 0 p q 0 0 0 0 0 0 0 0 q q e B B | W.Q.W.E.E.W.W.W.W.T.T.W.U.A.* ",
"> E.U.T.H.H.U.T.F.V.A.P.E.F.V.V.} } C.A.} ) I E % # 2 C.P.D.} < O , ; : : < : : : - - ; = Y W.T.Q.W.T.T.U.T.T.E.U.K.T.W.T.H.[   ",
"> E.W.H.D.H.T.H.F.H.K.P.H.K.T.!.W.V.[ [ ` E I W % $ U V.V.) W - + ! D.H.U.K.H.P.H.F.[ E @ R Q.W.E.T.P.E.~.E.A.D.D.V.F.K.} V.[   ",
"> E.Q.K.T.T.H.D.F.P.H.D.D.C.H.!.T.} [ [ ` E E W % $ U A.[ W W - + ~ U.T.T.H.V.F.D.} W P X T W.W.T.K.P.E.Q.K.` [ } } V.} ` [ )   ",
"5 E.T.Q.T.F.C.U.K.F.} ` } D.D.D.} } } } ` E ) ) % * 3 I < : < % X ] Q.E.P.D.} [ ` ) E P X T W.W.Q.Q.E.H.K.D.[ ` [ F.A.[ } ) E   ",
"> E.U.P.A.K.W.W.P.D.} ` ` D.P.} [ } } [ ) E W W % * = $ + + X + $ , I I 1 1 < : - - - & X R Q.T.!.(.~.U.K.P.D.} A.V.[ V.V.W P   ",
"> E.P.K.D.!._.~.K.V.D.C.[ V.F.V.} [ } ) E E E E % @ 3 T 3 Y R Y ! U 1 1 1 < < < < : : - @ R Q.U.T.~.^.!.U.H.V.D.D.[ [ A.} E P   ",
"5 E.P.E.P.~._.).K.V.F.H.} ` ` } } V.[ I P P E E % $ _ A.A.A.F.D.A.A.D.A.V.V.V.[ [ ) W U $ R W.P.H.U.W.U.F.V.V.} [ } F.V.` W I   ",
"* W.U.Q.T.W.~.W.D.} V.V.` E W ) [ [ ` I 1 1 I E % $ _ H.A.V.V.D.D.H.P.H.V.A.A.[ ` ) W < X R W.P.K.H.V.V.} V.A.V.[ V.F.[ W E P   ",
"5 T.U.E.T.T.K.} } V.} ` ) E W E W ) ) E I P I E % $ ' A.C.V.V.F.H.K.K.K.V.V.} [ W ) I < X T Q.E.F.V.} } [ [ V.V.D.V.[ W W E P   ",
"5 P.E.E.T.F.[ } V.F.F.V.[ W W W ) ) E E ) E I E % $ { D.A.H.P.D.A.D.A.H.K.F.C.[ ` E E 1 X R W.T.K.A.} [ ) ) ` } } ` E I E ) P   ",
"5 E.H.Q.T.V.} F.} V.P.F.[ ` W E ` ` W E I I I W % $ { H.V.D.F.V.} [ V.F.K.F.} } ) I W 1 X T W.E.T.P.V.[ ) I E ` W I P P P E P   ",
"5 E.K.T.H.C.V.` ) ` D.K.D.[ W E ` [ [ E E E E E % $ _ V.D.D.} A.C.[ } V.V.V.[ ` W E I 1 X T Q.E.K.D.} } [ E E W W E I 1 1 P P   ",
"5 P.H.} } } C.` ` ` [ V.} ` W W ) [ [ E I W E E % $ _ F.D.[ ` [ [ ` ` [ [ [ ` ) E I E < X T P.H.D.K.K.} [ ) W E E W I I P P I   ",
"5 P.K.` W [ ) V.} ` [ ) E E I E E ) ` E I E W E % $ Q V.H.} ` ` ) ) ` ) ` ) ) W I W E < X T T.T.V.} } ) ` ) E E I I I W E W P   ",
"* K.K.} } ) [ W E E E ) W W ) W E I I I I I I E % $ Q V.V.[ ) W ) ) W E E W I I W E I < X T D.} } [ V.} ` W E E E E E I I I I   ",
"5 F.V.[ } C.` ) ) ) ) ) W Q W W W E W Q W E E ) & $ _ [ ` ) ) ) ) ) ) E W Q W W W ) W Q = T H.V.[ [ ` ) ) W W W W W W E W Q E = ",
"8 { ` [ ` ` ` [ { ` [ ` [ ` [ ` [ [ ` ` [ [ { } ( L ~ [ { ` [ ` { [ ` [ ` [ [ ` { ` [ ~ L ( ` { [ [ ` [ ` { [ ` { ` [ [ ` [ ` 6 "
};
