/* XPM */
static char *result[] = {
/* columns rows colors chars-per-pixel */
"64 64 232 2 ",
"   c #1D1D1D",
".  c #312C0F",
"X  c #1A1D21",
"o  c #222222",
"O  c #2C2C2C",
"+  c #32312B",
"@  c #2D2F31",
"#  c #343434",
"$  c #383737",
"%  c #3C3C3C",
"&  c #550302",
"*  c #5B0502",
"=  c #56190D",
"-  c #640000",
";  c #6A0000",
":  c #650804",
">  c #750000",
",  c #750E05",
"<  c #73190E",
"1  c #542312",
"2  c #5C2A13",
"3  c #4C3412",
"4  c #4A3619",
"5  c #553814",
"6  c #543C1D",
"7  c #5A3D1E",
"8  c #662712",
"9  c #702B12",
"0  c #673A1B",
"q  c #463522",
"w  c #583D20",
"e  c #403F3F",
"r  c #7E3D21",
"t  c #5B401F",
"y  c #71451D",
"u  c #5E4221",
"i  c #5B462A",
"p  c #4B4234",
"a  c #584737",
"s  c #634322",
"d  c #6A4624",
"f  c #6B4825",
"g  c #664828",
"h  c #724A26",
"j  c #784824",
"k  c #754D29",
"l  c #7A4F2A",
"z  c #76512C",
"x  c #7C512C",
"c  c #6A4F33",
"v  c #744F31",
"b  c #775435",
"n  c #3B3E40",
"m  c #444444",
"M  c #4A4643",
"N  c #4B4B4B",
"B  c #504F4F",
"V  c #495656",
"C  c #535354",
"Z  c #545759",
"A  c #5B5B5B",
"S  c #685A46",
"D  c #6F5C4D",
"F  c #6A614D",
"G  c #7C614B",
"H  c #6B6458",
"J  c #756656",
"K  c #7C6B5D",
"L  c #646464",
"P  c #686767",
"I  c #676768",
"U  c #666969",
"Y  c #6C6C6C",
"T  c #776D61",
"R  c #7C6E64",
"E  c #7D736A",
"W  c #6B7477",
"Q  c #747474",
"!  c #787777",
"~  c #7B7B7B",
"^  c #830000",
"/  c #8C0000",
"(  c #870F06",
")  c #910101",
"_  c #980000",
"`  c #8F170D",
"'  c #99130A",
"]  c #A20202",
"[  c #AA0B07",
"{  c #87301A",
"}  c #8B3535",
"|  c #AB312F",
" . c #D20000",
".. c #D7302A",
"X. c #8A4C28",
"o. c #83542E",
"O. c #8A552C",
"+. c #8D582E",
"@. c #96582E",
"#. c #855630",
"$. c #895630",
"%. c #865A37",
"&. c #8C5A32",
"*. c #935D35",
"=. c #995E36",
"-. c #975E38",
";. c #966037",
":. c #9C6137",
">. c #95613A",
",. c #9C6239",
"<. c #A66438",
"1. c #A3653C",
"2. c #A5683E",
"3. c #AA693E",
"4. c #B76E3F",
"5. c #D86039",
"6. c #914A4A",
"7. c #A95F5F",
"8. c #986847",
"9. c #846C56",
"0. c #947258",
"q. c #A56941",
"w. c #AC6C41",
"e. c #A06F4D",
"r. c #B16E43",
"t. c #B86E4C",
"y. c #AA7148",
"u. c #B57145",
"i. c #BA7346",
"p. c #B57348",
"a. c #BD7749",
"s. c #BD794A",
"d. c #AC7959",
"f. c #B57952",
"g. c #BB7B52",
"h. c #84756A",
"j. c #857976",
"k. c #CB565B",
"l. c #C57746",
"z. c #C47A4B",
"x. c #CB7D4D",
"c. c #D17B47",
"v. c #D37E49",
"b. c #C47F51",
"n. c #EC5E60",
"m. c #CA6364",
"M. c #8D837A",
"N. c #9B877A",
"B. c #AD8870",
"V. c #A38579",
"C. c #BB9177",
"Z. c #C3804F",
"A. c #CE814F",
"S. c #D5814D",
"D. c #DC834C",
"F. c #CD8353",
"G. c #C5845B",
"H. c #D48351",
"J. c #DB8653",
"K. c #DD8955",
"L. c #D48958",
"P. c #DB8C5B",
"I. c #E28A55",
"U. c #E68D59",
"Y. c #EC8F59",
"T. c #E5915D",
"R. c #EE925B",
"E. c #F3955C",
"W. c #F9985D",
"Q. c #CA8A63",
"!. c #C38C6A",
"~. c #CC8F6A",
"^. c #DD9265",
"/. c #DB9568",
"(. c #C69779",
"). c #D39A77",
"_. c #EA9765",
"`. c #E0956B",
"'. c #F29B67",
"]. c #F49B65",
"[. c #FA9C62",
"{. c #DBA17C",
"}. c #EFA16F",
"|. c #FCA169",
" X c #FAA471",
".X c #FDA974",
"XX c #FCAC7A",
"oX c #7F8387",
"OX c #848484",
"+X c #868788",
"@X c #85898B",
"#X c #8C8C8C",
"$X c #848A90",
"%X c #8D9397",
"&X c #949494",
"*X c #999796",
"=X c #9A9896",
"-X c #949799",
";X c #96999A",
":X c #999999",
">X c #AA9487",
",X c #B79884",
"<X c #B1938F",
"1X c #9B9FA3",
"2X c #A3A3A3",
"3X c #ABABAB",
"4X c #B3AAA3",
"5X c #B3B3B3",
"6X c #B2B8BB",
"7X c #BCBCBC",
"8X c #C39C82",
"9X c #D4AD93",
"0X c #F9AE82",
"qX c #EDB089",
"wX c #FEB382",
"eX c #FDB68A",
"rX c #FEB98C",
"tX c #FCBB95",
"yX c #D79FA0",
"uX c #CFB3A1",
"iX c #FFC393",
"pX c #FBC5A7",
"aX c #FFD1B5",
"sX c #EDBDC1",
"dX c #B6D7D6",
"fX c #C3C3C3",
"gX c #C4CDCD",
"hX c #CCCCCC",
"jX c #D4D4D4",
"kX c #DCDCDC",
"lX c #E3E3E3",
"zX c #EAEAEA",
/* pixels */
"O O O O O O O O O O O O O O O O O O @ O O O O O O O O O O O O O O O O O O O O O O O O O O O @ @ O @ O O @ O O O O O O O O O O O ",
"C C C C C C C C C C C C C C C C C Z C @ o o o   m C C C N M N N N M N N N C C C C C C C C C C C C C C C C C C C C C C C C C B C ",
"C jXjXjXjXjXjXjXjXjXkXjXjXjXjXjXjXjXjXjXjX5XoX+ N m OX5XhXjXjXjXjXjXjXhX6X&XL e m C A j.5XjXjXhX5X&X#XM.Y A C N N N N N N N N N ",
"C jXlXkXfXfXfXfXfXfXfX*X~ OXOXOXj.OXOXOXOX~ ~ Q ! Y Y Q ! ! ! ! ! ! ! ! ! Q Y U Y Y Y Y ! ! ! ! Q Q W Y Y L #XjXjXjXjXhXfX7X5X3X",
"Z kXkXfX-X;X3X3X3X3X3X+XZ N N B N N N C m % e M m % p n n n e e % n n p % % % O O O O O O O O O O o O o O   A jXlXkXkXkXkXkXjXkX",
"C jXfX3X2X2XOX#X2X3X:X~ A Y &X#X&X#X#X#X#X#X#X#X#X#X#X#X#X#X#X#X#X#X#X#X#X#X#XOXOX#XOX+XOXOXOX#X+X+X#X#X! # $ OX3X3X*X*X3X3X;X*X",
"C 7XuX%X2X*X;X#X:X:X&XoXA ! 2X:X:X:X:X:X;X:X1X=X;X:X1X:X:X1X1X:X:X1X1X:X:X1X;X:X1X:X:X1X:X:X:X:X1X:X2X2X+Xp $ Y OX&X:X#XOX&X:X#X",
"Z 3XgX-X3X1X*X:X=X#X&Xj.A Q 2X;X=X:X:X;X=X:X;X:X=X;X=X=X;X&X*X&X*X*X*X:X=X:X:X:X=X:X=X:X:X;X=X;X=X=X=X:XOXn $ W *X1X*X1X&X1X&X2X",
"Z &X7X&X=X&X=X*X:X:X;XoXZ Q 2X*X=X*X;X=X;X=X:X;X:X*X@X! L C Z Z C Z Z P OX&X&X&X;X*X;X;X=X*X;X*X=X=X=X1X@Xn # ! :X2X2X2X:X:X2X+X",
"C +X7X&X#X&X&X&X&X&X&XoXA Q :X=X;X;X*X;X;X*X;X:X:X! Z B # O o o o o O O $ m A P #X2X*X=X;X*X=X;X;X=X=X1X#Xm # ! :X*X3X:X2X&X3X+X",
"+ Q 7X2X#X=X1X=X&X#X&XM.A Q 2X=X=X*X;X;X*X=X*X:Xj.C O o O O % % # + O O o   O # P =X:X;X=X;X;X*X=X;X=X:X#XN $ ! =X;X;X#X&X&X=X&X",
"  A 7X:X-X*X3X1X&X*X1XOXA Q 1X*X;X*X=X*X;X;X;XC.f.R M O # M C I Q A m e m % O O # L 1X:X;X*X;X=X*X=X;X;X#XN $ Q OX~ ~ ! Q Y P P ",
"  C 7XOX:X1X&X#X#X=X2X+XA Q 1X=X;X=X*X=X;X;X-X/.[.).(.h.G 8.9.! #X! m % I I N @   O ! :X=X*X;X=X;X=X;X:X#XN # A I A Z C B N m m ",
"+ B #XL Q ! Y Y Q ~ #X~ C Q 1X=X*X=X;X;X*X1XB.}.eXeXrX9XB.b.g.T I A $ % A A N $ o   e OX;X;X*X;X*X;X:X:X#XN @ m m p e $ # # O O ",
"$ # n # @ $ m M C A L Y C Y 2X*X;X;X*X;X;X-X^..XtXtXiXiX#Xd.q.M n $ @ # m e % % O   O P :X=X=X=X;X=X;X2X#XB o O @ o o o         ",
"M o       o @ # $ $ % L A Y 2X=X*X=X;X;X*X,X XXXeXiXtXwX).^.G @ # $ # @ # # % # o   o C 1X=X=X;X=X=X;X:X#XB o   o O O O O O O # ",
"@XQ L B m $ # o     O Z A Y 1X=X*X;X;X*X;XQ.s.s._.tXeX0XwXwXG.%.%.#.k a $ $ # O o o   N :X;X*X;X;X=X=X:X#XN O m N N B C C Y ~ ;X",
"hXhXhX3X2X-X~ Y C m N I Z Y 2X=X*X=X*X;X;X=Xc 4 #.s.qXeXwXrXXXR.z.2.q.,.%.a O     o o N 1X*X;X*X=X;X;X:X&XN % A N C Z ! #X5XjXlX",
"lXlXlXkXkXjXjXfXfXfX7X#XB Y 2X=X;X=X;X*X*XuXZ.p b L.'.XXtXeX XW.I.v.U.x.=.k +   o o + A :X:X;X=X=X;X:X:X&XB % N % Z OX7XjXkXhXhX",
"5X5XfXhXjXlXlXlXlXlXlX*XN Q 2X&X*X;X*X-X9XpXwXB.^.XX.XXXwX'.R.Y.[.a.-.H.r.w 4 X o # N ~ :X=X=X;X;X=X=X1X&XC # m % L 3XjXjXfX7X1X",
"#X2X5X3X2X2XfXhX7XfX7X#XC Y 1X*X*X;X*XuXaXaXeX|.Y.0XeXXX'.E.Y.I.'.P.&.t.F.4 q   o % ! &X=X*X;X*X=X;X;X:X&XC # m % L fXjX5X3X2X=X",
"2X&X&X&X#X1X2X&X=X:X2XOXB Y 2X=X;X*X=X{.^.Q.L.S.E.T.'.[.[.E.I.K.K.z.i.K.2.6 q X O Z :X;X;X=X*X;X=X=X:X:X&XC # M % P fXkX7X&X=X#X",
"&X#X&X#X&X2X2X2X2X=X#X~ C Y 1X=X*X;X=X>X,XM 6 F.U._.[.[.W.E.U.H.I.'._.i.f 6 q X % ! 1X=X=X;X*X;X;X=X;X:X#XC $ m O I fXkX3X#X#X#X",
"#X2X2X#X2X2X2X=X;X3X2XOXC Y 2X=X*X;X=X;X1Xp 7 /. X].[.].E.K.v.i.x.z.-.l f g w q Z ;X=X=X;X*X;X*X*X;X*X:X&XC $ e o L jXjX&X*X2X2X",
"2X&X*X2X&X;X&X#X#X&X2X+XB Y 2X;X;X*X;X=X-X8XP.].XX X].W.I.i.r.1.r.z.<.x x d 7 a W 1X;X=X=X;X;X=X=X;X=X1X&XC # % o L kXkX1X#X1X&X",
"=X2X&X:X;X&X2X=X#X:X1XM.C Y 2X=X=X;X;X*X;X~.].W.XXXX[.E.J.u.1.=.,.L.T.r.;.s 5 F 1X*X=X;X;X=X=X;X;X=X=X:X&XC # m o L kXjX=X2X2X=X",
"L Q U U ~ ~ ;X;X&X;X;X~ C Y 2X=X;X*X=X;X;X).0XXX_.|.[.I.i.1.=.:.b.]..X'.A.,.o.v h.2X=X=X=X;X=X=X=X;X=X:X&XC # m o I kX7XM.Y P Y ",
"Z Z A C L L P Y Y P Y Q C Y 2X;X=X=X;X*X;X`..X[.H.x.a.3.;.*.,.u._..X'.H.s.=.o.h G -X:X:X;X=X=X;X;X*X;X;X#XC # # o P 7X&XL A Z A ",
"# # # # # e m m m m N L Z Y 2X&X;X*X=X*X;X>X,X,Xy.@.+.#.&.1.i.T._.P.s.,.,.+.x h g G K @X;X:X:X;X=X=X;X:X#XZ o     # B % # @ # # ",
"          O o O O o + Z A Y 2X=X=X;X;X*X=X;X*X;XN.M.e.;.,.2.P.'.i.,.,.*.*.#.f u f j c D 9.@X;X;X*X;X;X:X&XC O O O               ",
"% p # @ O o o o       C A Y 2X;X;X=X*X;X;X=X:X;X-X>Xf.3.i.P.L.w.;.=.,.*.h f l #.=.$.o.o.b G T @X:X:X=X:X#XC @ n p # + # $ # O % ",
"C C N m $ # # # O O # C B P 2X=X*X;X;X=X=X;X*X%XV.G.z.z.z.A.q.=.w.,.k h k #.1.r.w.2.1.1.=.&.#.G h.#X=X1X&XC % L ~ 1X2X1X&XoX# M ",
"C C L ~ OX&X&X*X*X;X*X! % L 2X;X;X:X-X*X*X;XOXN.F.z.x.H.u.2.3.2.&.x k #.2.r.i.i.u.t.i.i.r.w.<.+.v R &X:X&XB n OX5XzXzXjX7X+XO # ",
"C B +XfXhXlXzXzXzXzXzX#X$ P 2X;X*X*X:X*X&X+XH a.l.s.x.A.i.i.2.x s o.1.u.i.r.w.1.1.w.w.r.r.i.u.2.O.v E &X&XB % OX5X7X7X2X+XA o O ",
"C N 3XkXjXfXfXfX7XfX7X~ $ L 2X*X;X*X;X*X@XK f i.q.z.S.x.Z.3.x d *.u.i.u.r.q.=.$.X.=.,.q.1.1.1.1.+.l v j.#XC # ! =X#X&XOXA p o O ",
"C N 7XkX3X1X:X2X;X:X&XY e L 2X*X-X*X;X-XR l f s.1.w.x.A.3.x x 2.u.u.r.u.r.1.&.k $.,.=.*.=.&.$.o.&.+.y 9.#XC $ Q &X&X#XOXB #   o ",
"C N kXkX:X:X&X;X2X2X:XQ n L 2X:X;X;X:X#X%.O.k w.#.&.w.-.x #.3.p.i.r.t.r.q.*.l d o.w.1.*.2.<.,.&.#.+.y 9.#XC $ Q :X2X:X+XV # o o ",
"C N jXkX2X&X*X&X&X#X:X~ % L 2X;X*X;X;Xh.%.*.z $.k =.$.u &.p.i.u.r.r.r.w.=.l d 7 &.a.l.t.i.w.1.1.#.x s F #XC $ ~ 2X:X2X&XC #   o ",
"C N jXhX&X&X*X:X&X#X#XQ e L 2X;X*X:X&X8.@.*.k h k -.q.1.4.u.u.y.r.i.r.w.*.d 7 -.z.z.z.u.i.1.,.r.+.h 5 F #XC $ Q &X*X&X&XC $ o o ",
"C N fX&XOXOX:X&X#X#X&X! % L 2X*X-X*X@X8.*.=.f f #.,.1.u.i.i.i.4.i.r.w.1.&.g x x.z.z.r.l.a.*.,.w.#.d 3 F #XC $ Q &X*X:X1XC #   o ",
"C N OXI L L ~ &X1X&X:X~ % L 2X;X;X*Xh.8.*.*.x h ;.2.i.z.Z.c.i.i.w.1.1.o.s u #.i.x.w.i.x.1.*.,.w.x f 3 F #XC # ~ 2X:X;X*XC # o o ",
"C M m m e % A #X&XOX~ Y e L 2X*X-X*X8.<.*.O.k &.;.s.s.Z.Z.s.Z.p.&.o.*.h i 9.C.d.3.z.l.i.-.*.w.w.x s 3 H #XC $ Q ;X2X2XOXC #   o ",
"C N p n o X $ m M m N A m L 2X*X-X+X8.=.*.o.h =.,.3.2.2.:.u.Z.&.o.#.l b J 1X6X4Xl.5.Z.,.,.,.i.3.f 5 p Q &XC # ~ :X&X&X#XC $ o o ",
"C C Z Z m o   O @ O $ C M L 2X;X&Xh.8.*.&.&.k *.2.,.;.t . x 4.&.k b a K $Xo U 2XsX..<.z =.=.i.2.f 3 a oX&XC $ Q *X&X&X&XC #   o ",
"C C C C Z m O o     O B N L 2X-X+X8.,.=.>.k o.,.4.s.Z.x t f k x 0 K W Z ~ N 7X3XgXyX[ r X.q.t.2.g 3 S #X&XC # Y OX~ ~ I C # o o ",
"C B N N B B % % $ # % Z m L 2X*Xh.8.3.w.*.k *.1.4.s.A.;.,.;.&.y , | >X! L N @ C L <X] _ ) @.y.q.t 3 J =X&XC O N N N N N N #   o ",
"C L L L Y W P L C B C A m L 2X*Xe.<.1.1.x f *.w.i.s.Z.2.2.#.b { /  .n.gX1X~ A 7XB V.] ) / ` X.x t 3 J =X&XC O O # # # # # O   O ",
"C 1XfXfXgXgXuX3X&XOX~ I e L 2X&Xd.<.>.-.#.x -.u.s.s.Z.3.#.x >.| ` ' | j.V U 1XdXj.} ) / ^ > < g t 3 J =X&XC o   o     o     O # ",
"C 7XkXlXkXkXkXkXkXkXjX#X$ L 2X>Xz.2.=.#.,.,.=.1.1.1.u.i.*.3.S.H.u.x 9 | k.m.7.6.} / / > > ; : 2 t 5 G =X&XC o o o o o o o @ $ N ",
"Z 7XkXkX7X5X5X5X5XfXfXOX% L 2X!.v.i.1.*.q.1.=.*.&.o.u.K.U.r.r.S.A.3.#.{ ' ' [ ) ) / ^ > ; - & 1 t s 9.=X&XC + + # + + @ # $ # N ",
"Z 7XjX7X&X#X&X;X:X3X3X! % L 2X,XJ.x.z.l.x.1.*.=.3.<.S.R.U.x.w.x.I.z.w.*.0 8 ( ) ^ ^ > ; - & 1 7 s y 9.:X&XV $ U U Y Y U Y Y Y L ",
"C 7XhX*X#X&X&X*X:X1X*XY % L 2X&XC.J.v.!.K.l.<.1.i.x.U.I.A.H.H.K.R.S.w.,.x u 8 ) ^ > ; - & 1 7 u h o.0.2X#XV m @X2X7XfXfX7XfX3XL ",
"Z uXhX:X&X2X:X&X;X:X&XQ e L 2X;X=XC.!.>XC.!.s.i.u.K.I.z.u.u.l.H.U.J.u.=.+.u 2 , > - * = 1 6 7 f +.@.B.&X#Xp % M.7XgX7XfXhX7X3XC ",
"Z fXjX3X;X2X;X&X*X&X#XY e L 2X*X*X:X=X*X;X;XQ.x.i.S.z.u.2.1.=.1.w.u.1.+.l s t 2 ; & 1 s s s f x *.3.B.=X&XV $ ~ 3X2X=X&X2X;X+XC ",
"Z 7XhX2X1X&X*X*X*X&X&X! % L 2X*X:X*X;X*X;X;X(.K.c.l.i.u.u.w.,.&.&.#.o.x k z z 8 & 1 s g x x &.;.3.5.C.2X&XB $ ! *X&X2X@X&X=X&XB ",
"Z 6XhX1X&X&X:X&X*X&X;X~ % I 2X;X;X;X*X:X;X;X;X(.C.c.S.c.x.z.s.i.u.,.*.*.#.#.&.j = f h l &.;.1.l.D.U.(.:X%XB $ Q #X&X:X&X&X=X1XB ",
"C 7XjX2X&X&X&X#X#X&X#XQ e L 2X;X=X;X=X;X=X=X;X=X;X(.~.Q.P.I.U.K.I.D.S.c.4.3.2.;.O.>.=.,.w.c.H.Q.}.(.=X1X&XB $ Q &X&X&X1X&X2XM.C ",
"C 7XhX&X:X&X&X#X#X#X#XQ % I 2X*X;X:X;X=X=X;X=X;X;X=X=X-X(.R.W.W.'./.`././.P.v.D.D.v.S.c.L.'.).=X*X=X=X:X#XB # Q &X#X#XOX&X#XA C ",
"Z uXhX&X#X&X#X#X#X&X#XQ e L 2X:X:X:X:X:X:X:X:X:X:X;X;X:X-X(.'.].8X-X:X;X;X,X_.^.`.^.P.`.~.:X:X:X;X;X;X:X&XC $ L P L L L L L Z N ",
"V fXjX3X#X#X&X#X&X:X;XQ % L :X&X#X&X&X&X&X&X&X&X&X*X&X-X&X;X&X*X&X*X*X&X&X&X&X&X&X&X*X&X&X-X;X&X&X-X*X=X#XZ @ M B B N B B N N # ",
"Z 7XhX#X+X#X:X#X#X#X:X~ % # C N N B Z A A A L A A L P P P P I P P P P P P Y I P P P P U U U U U U U P P Y C o     o o o o o   o ",
"Z %X3XP A L L L L L I I %   o o   o o o o       o   o   o       o   X           o X   o o o   o o   o o o o o o o   o o o     o ",
"C C P N m m m $ # # # # # $ # # o O + o o o o   o o o o o   o o o o o o o o o o o o o o O O # + $ % $ $ % + @ % $ $ $ $ % $ $ n ",
"C o     o o o o   o o   o o     o N C N % @ O O O O O O O O O O O O O O O O O @ O O + m C C C C C C C C Z C C C C C Z C Z C C C "
};
