/* XPM */
static char *greywest_texture2[] = {
/* columns rows colors chars-per-pixel */
"64 64 178 2 ",
"   c #02020A",
".  c #201E00",
"X  c #3B391E",
"o  c #202020",
"O  c #2F2727",
"+  c #2C2C2C",
"@  c #312121",
"#  c #362E2E",
"$  c #2E2E32",
"%  c #363637",
"&  c #3A3636",
"*  c #333D3D",
"=  c gray22",
"-  c #413F19",
";  c #443C3C",
":  c #4A480F",
">  c #534F01",
",  c #565100",
"<  c #595200",
"1  c #5D5906",
"2  c #615800",
"3  c #67660D",
"4  c #74710E",
"5  c #7B7A22",
"6  c #1B5D42",
"7  c #005454",
"8  c #005C5C",
"9  c #0C5E5E",
"0  c #105F5F",
"q  c #2B4646",
"w  c #344F4F",
"e  c #0B6556",
"r  c #016363",
"t  c #0C6262",
"y  c #026C6C",
"u  c #0A6C6C",
"i  c #166E6E",
"p  c #007373",
"a  c #007C7C",
"s  c #0C7C7C",
"d  c #1F7272",
"f  c #464545",
"g  c #4B4343",
"h  c #484848",
"j  c #534B4B",
"k  c #595A4A",
"l  c #4C5757",
"z  c #4D5A5A",
"x  c #545454",
"c  c #565A5B",
"v  c #5F5F6A",
"b  c #605F69",
"n  c #646464",
"m  c #636269",
"M  c #6A6A6A",
"N  c #666672",
"B  c #6B6A75",
"V  c #707071",
"C  c #727B7B",
"Z  c #7C7C7C",
"A  c #867B7B",
"S  c #A19B00",
"D  c #AEA400",
"F  c #B6AE0A",
"G  c #BAB000",
"H  c #B3AD1B",
"J  c #89873E",
"K  c #C2B800",
"L  c #CFC300",
"P  c #D2C400",
"I  c #DDD200",
"U  c #F1EB0A",
"Y  c #979341",
"T  c #959354",
"R  c #008484",
"E  c #0F8181",
"W  c #008B8B",
"Q  c #0B8B8B",
"!  c #1A8484",
"~  c #008E91",
"^  c #009393",
"/  c #0A9495",
"(  c #009A9A",
")  c #0C9B9B",
"_  c #129394",
"`  c #139D9D",
"'  c #239191",
"]  c #279999",
"[  c #299C9C",
"{  c #30AC9B",
"}  c #01A4A4",
"|  c #0BA3A3",
" . c #04A9A9",
".. c #0DA9A9",
"X. c #14A4A4",
"o. c #1AA3A3",
"O. c #13ABAB",
"+. c #1BAEAE",
"@. c #15B0B0",
"#. c #1EB3B3",
"$. c #22A3A3",
"%. c #2BA7A7",
"&. c #22AEAE",
"*. c #2CACAC",
"=. c #21B2B2",
"-. c #2AB4B4",
";. c #25B9B9",
":. c #2DB9B9",
">. c #37B3B3",
",. c #3CB9B5",
"<. c #33BABA",
"1. c #39BBBB",
"2. c #449B8E",
"3. c #5B9F92",
"4. c #7B8C8C",
"5. c #55AD87",
"6. c #68A295",
"7. c #42A5A5",
"8. c #41A8A8",
"9. c #57BCA1",
"0. c #45BDBD",
"q. c #49BABA",
"w. c #53BCBC",
"e. c #5CBABA",
"r. c #64BEBE",
"t. c #58C59C",
"y. c #5CC3A1",
"u. c #79CAA5",
"i. c #2EC1C1",
"p. c #3CC0C0",
"a. c #4BC1C1",
"s. c #53C4C4",
"d. c #5CC5C5",
"f. c #58CBCB",
"g. c #64C3C3",
"h. c #6DC6C6",
"j. c #61CACA",
"k. c #6DC9C9",
"l. c #71C7C7",
"z. c #72CCCC",
"x. c #7DCDCD",
"c. c #72D2D2",
"v. c #7DD1D1",
"b. c #898585",
"n. c #8C8C8C",
"m. c #938D8D",
"M. c #859696",
"N. c #989898",
"B. c #93A4A4",
"V. c #9CABAB",
"C. c #82BBBB",
"Z. c #A7A3A3",
"A. c gray66",
"S. c #B2ABAB",
"D. c #A2B1B1",
"F. c #B4B4B4",
"G. c #B4BDBD",
"H. c #9BC2C2",
"J. c #9FCBCB",
"K. c #86D2D2",
"L. c #8AD6D6",
"P. c #85D9D9",
"I. c #8AD9D9",
"U. c #94D7D7",
"Y. c #94DADA",
"T. c #9ADCDC",
"R. c #A7CFCF",
"E. c #A2DEDE",
"W. c #9DE1E1",
"Q. c #A8E1E1",
"!. c #B4E6E6",
"~. c #BAE8E8",
"^. c #C0C0C0",
"/. c #D0D0D0",
"(. c gainsboro",
"). c #C7EEEE",
"_. c #D3F2F2",
"`. c #ECECEC",
/* pixels */
"+ + + + + + + + + + + + + + + + + + + + + + + + + + + + + + + + + + + + + + + + + + + + + + + + + + + + + + + + + + + + + + + + ",
"x x x x x x x x x x h (.(.(.(.(.(.(.(.(.(.(.(.(.(.(.(.o = n.A.^././././././.^.^.A.n.x o h h h h h h h h h h x x x x x x x x x x ",
"x x x x x x x x x x h (./././.^././././././.^./././.n.o = n.^.F.n.A.n.n.n.n.n.n.A.x = o = V n.n.n.n.n.n.Z V n h h h h h h h h h ",
"n.n.n.n.n.n.n.n.o x h (./.^.F./.F./.^.F./.^.^.F./.n.n o = A.(.A.n.A.n.A.n.A.n.A.n.x = o = n.(.(.(.(.(.(.^.F.A.n.n.n.n.n.n.n.n.n.",
"/.(././.F.A.n.n.o x h (./.A.A.A.A.n.A.A.A.A.N.A.A.Z x o = n.^.n.n.n.A.A.A.A.n.n.V x = o = n.(.(.^.^.^./.(.(.(.(.(./././././././.",
"A.A.A.A.A.A.Z V o x h `.^.N.A.A.A.A.A.A.N.A.n.A.A.V x o = h A.n.A.A.n.n.A.n.A.V x x = o = n.(.F.A.n.A.n.A.A.A.n.n.A.n.A.n.A.n.N.",
"F.N.A.N.A.n.Z V o h h `./.A.n.A.N.A.n.N.N.N.n.N.A.n.x o = h Z n.n.A.n.A.A.n.A.V = = = o = n.(.F.n.A.n.N.n.n.n.A.n.n.N.N.A.N.n.A.",
"F.F.Z F.n.N.n x o = h `./.n.N.n.A.A.A.n.Z n.N.A.n.n x o = h h n.A.A.A.n.n.n.A.V = = = + = n.(.F.A.n.N.Z A.N.Z n.A.n.A.A.n.Z A.N.",
"N.A.A.N.N.V h h o + h ^.^.A.N.A.n.A.n.N.n.N.n.n.A.V x o o h x h Z = = = = = = = = = o + = Z (.(.n.A.n.Z N.Z N.n.A.n.N.Z A.A.Z n.",
"n.n.n.n.V x h h o + h A.`.A.A.A.n.n.N.n.n.n.n.A.n.x Z + o = h = = = = = = = = = o o o h h h ^./.n.n.n.N.N.N.N.n.n.A.n.A.A.n.A.n.",
"V * * * * * * * * * * * * * * * * * * * * * * * * * * * * * * * * * * * * * * * * * * * * * * * * * q = = = n.V V n n n n n n n ",
"x W a a p a Q a a a a p a R a a a a p E a a a a a a R a a a a p R a a a a a p Q a a a a a a a a a a a a q & x x x h h h h h h h ",
"o =.| | R r _ ) ) ) / p u X.) ) ) / 8 Q ) ) ) ) a r ` ) ` X./ y E o.o.` ) R 8 _ ) ) ) ) p u ` ^ W ^ ^ R q & = = = = = + + + + + ",
"+ =.&.=.Q r R ;.-.;.=.a y X.;.;.;.o.y a =.=.=.;.E y / i.j.P.&.y p ,.f.:.;.Q y R -.=.=.#.p y ) ( ^ W ^ a q & = + + o o o o o o o ",
"= =.&.=./ r r r u r r r r r u r y r r r y u y u r r r u i d y e r u u u u r r r u y u u r r r r R ( ^ R q & + = = = = = = = = = ",
"x &.&.<.-.Q p p y p y p p p y p p y y p y y p y y y y y y y y p y y p y y p y p y y y p y p p 8 W ) ` R q & h h h h h h h h h h ",
"N.W ' g.v.y.( ( ^ ^ ^ ^ ^ ^ ^ ^ ^ ^ ^ ^ / / / ) ) ) ^ ) / ` / ) ` ) ) / ) / / ^ ^ ^ ^ ^ ~ ^ a 8 R ' r.a q & N.N.N.N.N.N.N.N.N.N.",
"/.p p ~ I.z. .} } } } } } } } } } } | ..#.=.=.=.#.;.;.1.1.1.1.p.1.;.#.=.#.=.+.} } } } ( ( ^ a 8 p p R R q & (.(.(.(.(.(.(.(.(.(.",
"A.( ( X.L.K. .} } } } } } } } }  .+.+.=.#.#.#.#.1.-.1.<.:.1.:.1.=.=.#.=.=.O.} } } } ( ( ^ ^ a 8 W ( ( R q & F.F.F.F.F.F.F.F.F.F.",
"A.#.&.@.L.K. .} } } } } }  .} +.+.=.#.=.#.;.#.1.:.1.:.<.1.:.1.=.=.=.#.=.O.O. .} } ( ( ( W ^ a 8 ^ } ( R q & A.N.A.N.A.n.N.n.N.N.",
"A.&.=.O.L.K. .} } } }  ...&.+.#.=.=.#.#.-.1.:.<.1.:.1.<.:.1.=.#.=.=.=.O.O...} } ( ( ( ^ W ^ a 8 W  .X.R q & n.N.n.N.n.N.Z Z n.n.",
"A.=.=.O.L.K.} } } | ..+.=.=.=.#.#.#.#.-.1.<.<.<.:.<.<.<.1.;.=.#.#.=.O.....} } ( } ^ ( ^ W W a 8 ( O.X.a q & A.N.A.N.A.n.N.n.N.N.",
"n.) %.j.K.K.} | O.+.=.#.&.=.;.#.#.#.<.<.<.<.<.1.<.1.<.1.-.#.#.=.&.O.O...} ( } ( ( ( ^ W ~ ~ a 8 ^ *.g.a q & n.N.n.N.n.N.Z Z n.n.",
"n.R s %.P.K.+.+.=.=.&.=.#.=.=.=.1.:.<.1.<.<.<.<.1.:.1.;.#.#.#.&.=.O...} } } ( ^ ( ^ W W R W a 8 a s [ R q & N.n.A.n.A.n.Z Z n.N.",
"n.a a ~ I.K.&.=.=.=.=.=.;.#.#.1.:.1.1.:.1.:.1.1.:.1.-.#.=.#.=.&.&...} } } ( ( ( ^ W W W R W a 8 p R W R q & A.N.n.N.n.n.A.n.A.n.",
"N. ...+.L.K.=.&.=.=.#.=.#.=.p.:.1.:.:.1.:.1.<.:.1.=.=.#.=.=.=.=...} } } ( } ( ^ ^ ^ W W W ^ a 8 ( ..o.a q & n x x x n n M Z n.n.",
"b =.=.O.P.K.-.#.=.=.#.#.-.1.:.1.:.1.1.<.<.<.<.1.<.#.#.=.=.=.&...} } } } ( ( ^ ^ ^ W W W W ~ a 8 ( =.X.R q & h h h h h h h x x x ",
"x =.+.+.L.K.;.=.#.=.<.;.<.<.<.1.<.1.<.:.1.<.<.<.<.#.#.;.+.=...O.} } ( ( ( ( ^ W W W W W W ~ a 8 X.=.o.R q & o o o o o o o = = h ",
"o &.=.+.L.K.-.#.#.p.<.1.<.<.1.<.<.<.<.<.<.1.<.<.#.#.#.&.=...O. .} } ( ( ( ( ^ W W W R W W ^ a 8 o.=.o.R q & = = = = + + + o o o ",
"h / [ k.K.K.=.#.<.:.1.:.<.<.:.1.<.<.1.:.1.:.1.#.=.#.=.&...O.} } } } ( ( ( W ^ W W W W W W ^ a 8 W ] h.a q & x x x x x x x = = = ",
"m p p W I.K.=.<.<.<.<.1.<.<.1.<.<.<.:.1.<.1.#.#.#.=.+...O.} } } } ( ^ ( ^ ^ ^ W R W W W W ^ a 8 p p W R q & F.n.n x h h h h h x ",
"n R ~ | P.K.<.1.<.<.<.<.<.:.;.:.:.:.:.-.:.#.#.#.=.=.+.O. .} } } ( ( ( ^ ^ W W R W W W W ^ ^ a 8 a W ^ R q = F.(.(.(.(.(.(.N.= x ",
"m @.@.+.L.K.:.1.<.1.1.;.w.H.R.J.R.J.R.H.C.+.=.#.&.&.+. .} } } ( ( ( ^ ^ ^ R W R W W W W ^ ^ a 8 X. .( R q & A.A.n.n.A.n.n.Z = x ",
"n &.=.@.I.K.p.<.,.1.:.1.7.A A b.n.m.Z.S.G.#.#.=.=.+. .} } } ( } ( ( ^ W W W R W W W W ~ ^ ^ a 8 ( } ^ R q & n.n.A.A.n.A.n.n = h ",
"n =.#.@.L.K.:.5.F U y.O.9 j h n.V M N.A.D.&.#.&.+. .} } } ( } ^ ( ^ ^ ^ W R W R W W W ^ ^ ^ a 8 ( ^ R R q & A.A.n.n.A.n.A.n = h ",
"n O.-.p.L.K.%.e 1 I t.( 9 j M m V V Z b.D.#.=.+...O.} } } ( ^ ( ^ ^ ^ W W W R W W W W W ^ ^ a e ^ R _ R q & A.n.A.n.n.A.A.x = h ",
"n R ' w.P.h.R e < L u.~ t j M m m N C Z V.=.&...O.} } } } ( ^ ( ^ ^ W W W R W R W W ^ ^ ~ ( a 8 a s $.a q & A.A.n.A.n.n.A.x = = ",
"n p p / W.*./ 6., P y.~ t g x 5 H L T B B.O.....} } } } ^ ( ^ ^ ^ W W W R W W W W W ~ ^ ( ( a 8 p a R R q & x x x x x x x x = = ",
"n ( ..w.K.o._ 6.> K y.^ t = % 2 . 2 Y N B...O.} } } ( ( ( ( ^ ^ W W W R W R R W W W ^ ~ ( ^ a 8 p R ^ R q & o o o o o o o o o = ",
"n s.l.L.a.( _ 6.> K y.W t # $ 1   : Y v B.O.} } } } ( } ^ ^ ^ W ^ W W R W W W R W ~ ^ ^ ( ^ a 8 a W ( R q & = = = = = = = = = = ",
"n l.K.Q.a.( Q 3.> G y.~ t O + > X 4 J b B.} } } } ( } ^ ( ^ ^ ^ R W W R R W R W W W ^ ( ( ^ a 8 a ~ ( R q & Z Z Z Z Z Z Z Z = x ",
"n U.~.~.s.( / 2., D 9.~ t O + X - : k M M.}  .( ( ( ^ ( ^ ^ ^ W W R W R W R W W ^ ^ ^ ^ ( ^ a 8 R ( | R q & ^.^.^.^.^.^.^.Z = x ",
"n x.j._.d.^ / 2.< S 9.~ t # + + $ $ c n M.} } ( ( ( ( ^ ^ W W W R W R W W W W W W ^ ( ( ( ^ a 8 R ] y.R q & `.`.(.(././.N.n + h ",
"n &.W c.d.( R Q 6 3 { ^ t # % h h c b n M.}  .( ( ^ ^ ^ ^ W W W W W W R R W W W W ^ ^ ( ^ ( a 8 a p Q R q & ^.^.F.^.^.F.Z x + h ",
"n *.q.E.f.( R a a O.=.W 0 # + n c x M V 4.} ( } ( ^ ^ ^ W W W W R W R W W W W ^ ^ ^ ( ( ( ( a 8 p W ~ R q & n.A.n.A.n.A.V x + = ",
"h T.U.!.a.( R R X.;.=.~ t @ # ; g g j j C ( ( ( ^ ~ ^ ^ ~ W R R W R W R W W W W ^ ^ ^ ( ^ ( a 8 a ( } a q & A.n.A.A.A.n.V x + = ",
"h ).Q.U.p.( ~ +.;.#.=.W p 0 t 0 0 9 9 9 ! ( ( ( ( ^ ^ ^ W W R W W R W W W W W ^ ^ ^ ( ( } ( a 8 W  .| a q & n.A.n.A.n.A.V x + = ",
"h E.U.x.1.( @.;.=.=.+.W W W W W W W ~ ( } ( ( ( ^ ^ W W W R W R R W R W W W ^ ^ ^ ( ( ^ ( ( a e ~ ..O.a q & Z n.Z N.n.N.V x o = ",
"h L.g.d.s.=.#.#.=.=.=.+.+.+.| O.} } } } ( ( ( ~ ^ ~ W ~ R W R W W R W W W W W ^ ~ ( ( ( } ( a 8 ( ..*.a q & n.n.A.n.Z Z V x o = ",
"x W ' z.T.a.#.=.=.#.=.=.&...O.| } } } ( ^ ( W ^ W W W R W R W W R W W W ~ W ^ ^ ( ^ ( ^ ( ( p 8 R ' g.a q & n.Z n.N.Z Z V x o = ",
"h p y / W.z.=.&.=.=.=.+...O...} } } ( ( ( ^ ^ ^ W W W R W W W R W R W W W ^ ^ ^ ( ^ ( ( } ( p r p a W R q & A.n.n.n.n.N.V x o = ",
"h ^ | >.T.K.&.=.&.+.&...O.O...} } ( ( ( ~ ^ ~ ^ W W W W R W R W W W W W W ^ ~ ^ ( ( ( ( } } a 8 W ( ` a q & Z Z Z Z Z Z b x o = ",
"h p.p.1.I.K.&.=.&.=...O...O.} } ( } ( ^ ^ ^ ^ W W W R W W R W R R W W W ^ ~ ^ ^ ^ ( ( ( ( ( a 8 ( ..O.a q & x x x x x x x o + % ",
"h 0.1.@.I.K.=.=.=.......O.} } ( ( ( ^ ( ^ ^ W W W W W R R W R W W W W W W ^ ~ ( ( ^ ( ( } } a r (  .X.a q & o o o o o o o # = f ",
"h =.#.@.I.K.&.&.......O.....( ( ^ ( ^ ^ ^ W W W R W R W W R W W W ^ ~ W ^ ~ ^ ( ( ( ( ( } ( a 8 ( @.| R q & $ $ + + + + = = h h ",
"h | *.j.K.K.=.=...O...O...} } ( ( ( ^ ^ W W W R W W W R W R W R W W W ^ ~ ~ ( ( ( ( ( (  .( a 8 ~ %.g.a q & = = = = = = h h h x ",
"h a E %.I.K.#.@.....O. .} ( ( ( ^ W ^ W W W W W W R R R R W R R W W W ~ ~ ~ ( ( ( ( ( ( } } R 8 a s [ a q & h f h h h h x x x x ",
"h a a ~ I.L.k.k.l.l.k.h.h.h.h.h.h.h.h.h.q.0.,.=.=.| | } +.-.0.0.p.y.0.q.0.0.0.0.=.-.=.=.=.;./ e p R W R q & (.(./.^.F.N.Z h h x ",
"h  ...+.c.Q.I.W.T.T.E.T.Y.U.Y.Y.Y.Y.Y.Y.K.x.K.r.e.>.>.q.e.x.x.v.c.v.v.v.v.K.L.v.K.K.k.g.h.s.o.R | ..X.R q & n.A.N.A.n.A.(.N.o x ",
"h =.&.&.O.| y.+.O.+.+.| X.@.( ^ ^ ( W ( ^ ^ R a p a R a a R ~ ^ ( ( ^ ( } ..X.a.+.+.@.@.X.-.1.=.=.=.X.a q & A.n.A.n.A.n.A.x o x ",
"h =.=.=./ a 7.#.=.=.+.a ! $.( ( ( ^ 8 s ~ R R a p 7 p a R W ( y u ^ ( } ../ p 8.#.&.#.&.a ! >.#.&.=.X.a q & N.A.N.A.A.n.n.x o x ",
"x =.=.=.Q p R =.+.=.=.a a ^ ( ( ( ~ y a W R R a p r p R R ^ ^ p a ^ (  .#.Q p W ;.#.#.&.a a | ;.#.=.o.R w f x x x x x x x x o x ",
"x z z v z z z z z v z z l z l l z l l z l l l z l l z z z z z l z z z z z z z z c z z z l l z c z z z z x x o o o o o o o o o x ",
"= = = $ = = % % % % = = = = = = = = = = = = = = = = = = = = = = = = = = = = = = = = = = = = = = = = = = = = = = = = = = = = = = "
};
