/* XPM */
static char *result[] = {
/* columns rows colors chars-per-pixel */
"64 64 235 2 ",
"   c #010101",
".  c #0C0C0C",
"X  c #1A0901",
"o  c #0A0E1A",
"O  c #131212",
"+  c #13131C",
"@  c #1D1D1D",
"#  c #2F0303",
"$  c #231E1E",
"%  c #331814",
"&  c #382F00",
"*  c #1F1F22",
"=  c #1D2222",
"-  c #232323",
";  c #292624",
":  c #242A2A",
">  c #2C2C2C",
",  c #362A26",
"<  c #3B2B25",
"1  c #3A2D28",
"2  c #3A342E",
"3  c #252D32",
"4  c #2D3333",
"5  c #343434",
"6  c #383437",
"7  c #353B3B",
"8  c #3B3B3B",
"9  c #69080A",
"0  c #7B0707",
"q  c #771919",
"w  c #402927",
"e  c #463B3B",
"r  c #443C3C",
"t  c #762828",
"y  c #763131",
"u  c #564B14",
"i  c #6E4B0C",
"p  c #765435",
"a  c #656221",
"s  c #333346",
"d  c #423D41",
"f  c #3C4344",
"g  c #3C4949",
"h  c #444444",
"j  c #4C4444",
"k  c #47474A",
"l  c #4B4B4B",
"z  c #544A4A",
"x  c #594C49",
"c  c #4F5449",
"v  c #545449",
"b  c #4B4C50",
"n  c #4D5354",
"m  c #4B595A",
"M  c #535353",
"N  c #5A5454",
"B  c #5A5B57",
"V  c #545A5A",
"C  c #5C5C5C",
"Z  c #664D42",
"A  c #774B4B",
"S  c #6E594B",
"D  c #615C5C",
"F  c #685D5D",
"G  c #756351",
"H  c #5D6262",
"J  c #586668",
"K  c #556969",
"L  c #636464",
"P  c #6A6966",
"I  c #656B6B",
"U  c #6B6C6C",
"Y  c #756B6B",
"T  c #667676",
"R  c #6B7273",
"E  c #6A7979",
"W  c #747474",
"Q  c #777477",
"!  c #767A7A",
"~  c #7B7C7C",
"^  c #890001",
"/  c #880A0A",
"(  c #9E0000",
")  c #920909",
"_  c #871313",
"`  c #8D1E1E",
"'  c #981818",
"]  c #A40000",
"[  c #AC0000",
"{  c #A00E0E",
"}  c #B40101",
"|  c #BC0000",
" . c #B80808",
".. c #AB1515",
"X. c #B81212",
"o. c #B51D1D",
"O. c #8A2626",
"+. c #872C2C",
"@. c #9B3232",
"#. c #B72020",
"$. c #BB2222",
"%. c #AB3939",
"&. c #B53A3A",
"*. c #C30000",
"=. c #CB0000",
"-. c #C90909",
";. c #D60000",
":. c #DC0000",
">. c #D80D0D",
",. c #C51515",
"<. c #D61C1C",
"1. c #E40000",
"2. c #EC0101",
"3. c #F10000",
"4. c #FE0101",
"5. c #F10909",
"6. c #FE0C0C",
"7. c #FE1616",
"8. c #FC1818",
"9. c #CE2827",
"0. c #CB3333",
"q. c #E22222",
"w. c #F02424",
"e. c #FC2222",
"r. c #A56503",
"t. c #A96702",
"y. c #AB6903",
"u. c #B26910",
"i. c #CE7210",
"p. c #915757",
"a. c #AC4C4C",
"s. c #BC4444",
"d. c #AD5C5C",
"f. c #B05555",
"g. c #B45959",
"h. c #856D48",
"j. c #976868",
"k. c #867C7C",
"l. c #927373",
"z. c #AE6E6E",
"x. c #B17373",
"c. c #BE7D7D",
"v. c #D74747",
"b. c #CF5555",
"n. c #E14A4A",
"m. c #EC5555",
"M. c #F95C5C",
"N. c #CE6D6D",
"B. c #F86565",
"V. c #FD6B6B",
"C. c #E97777",
"Z. c #FC7171",
"A. c #FB7D7D",
"S. c #8E8F17",
"D. c #C98311",
"F. c #E5DA08",
"G. c #EEE312",
"H. c #E8EC14",
"J. c #F1E514",
"K. c #F5EC10",
"L. c #F7EC17",
"P. c #D7D221",
"I. c #F5DA23",
"U. c #9E926F",
"Y. c #EDA24F",
"T. c #EFAF6E",
"R. c #F9EF44",
"E. c #738282",
"W. c #7D8181",
"Q. c #7D9393",
"!. c #848484",
"~. c #888B89",
"^. c #8B8B8B",
"/. c #888A8D",
"(. c #958989",
"). c #929287",
"_. c #899596",
"`. c #949494",
"'. c #979896",
"]. c #9C9C9C",
"[. c #B98C8C",
"{. c #A29B9B",
"}. c #A89898",
"|. c #A6A69D",
" X c #9E9EA0",
".X c #9CACAC",
"XX c #A3A3A3",
"oX c #A8A6A7",
"OX c #ACADA4",
"+X c #ABABAB",
"@X c #B4A9A9",
"#X c #AFB0AA",
"$X c #B3B4AA",
"%X c #A9B4B4",
"&X c #B4B4B4",
"*X c #B7B6B7",
"=X c #BBBBBB",
"-X c #CE8F8F",
";X c #DB9999",
":X c #E78B8B",
">X c #F68C8C",
",X c #FB9B9B",
"<X c #C6A7A7",
"1X c #DDA7A7",
"2X c #C5B9B9",
"3X c #E8A6A6",
"4X c #FCA7A7",
"5X c #EDB2B2",
"6X c #F8B5B5",
"7X c #FFBABA",
"8X c #C6C7BE",
"9X c #F9EFAF",
"0X c #BFBFC1",
"qX c #B1C7C7",
"wX c #B6CACA",
"eX c #B5CECE",
"rX c #C4C4C4",
"tX c #CAC7C4",
"yX c #CBCBCB",
"uX c #D2D0CD",
"iX c #D3D3D3",
"pX c #D8D8D7",
"aX c #DADADA",
"sX c #FFC3C3",
"dX c #E6D8D8",
"fX c #FAD5D5",
"gX c #EDE9D7",
"hX c #D3E5E5",
"jX c #E3E3E3",
"kX c #E2ECEC",
"lX c #ECECEC",
"zX c #F7EEEE",
"xX c #F4F4F4",
"cX c #F7F9F9",
"vX c #FEFEFE",
/* pixels */
"> > > > > > > > > > > > > > > > > 4 > > > > > > > > > > > > > > > > > > > > > > > > > > > > > > > > > > > > > > > > > > > > > > ",
"M M M M M M M M M b M oXjXpXpXaXiXpXiXpXiXaXiXpXpXpXlXD ; L ].&XrXyXyXyXyXyXrX*X&X].! d : l l h h k k k k k l v M M M c M M M M ",
"M M M M M M M M M M M +XjXuXiXyXyXiXiXuXiXiXrXyXiXpX&Xd - I #X0XXX].XX^.`.^.`.^.].`.l > - k Q ^.~.^.^.^.~.Q U B l k l k k k l l ",
"^.^.^.^././.).P.u s V +XjXrX=X0X=XyXrX*XyXrXwX*XyXoX! 6 - W yXrX`.`. X_. X`. X`. X~ h > * k  XiXpXaXiXaXiX=X#X|./.U.P.).~.~.~.^.",
"yXiXyXtX&X|.T.9Xv > C #XaX#XoX#XoX'.|.OXOXOX|.oX&X).P 2 > P $X#X).).{.OXoXOX|.).U.J c 5 ; c |.jXuXtX8XtXuXpXpXpXpXgX9XT.tXuXyXtX",
"+X&X&X+XT.I.9XgXY.F.K.G.a o S.H.G.G.J.J.J.J.G.J.J.G.F.F.F.G.J.G.G.G.G.J.J.J.G.G.G.G.F.F.F.F.G.L.L.L.L.S.+ a P.K.R.gXgXL.L.T.+X'.",
"&X].XX].i.i.i.I.i.r.y.u.h.s X & r.r.t.t.y.y.t.t.t.t.y.y.y.y.t.t.t.t.t.t.t.t.t.t.y.y.y.y.y.y.t.r.r.t.i X 5 c u r.y.i.Y.i.i.i.F /.",
"&X+X^.oXU.G S D.u e x w 2 ' =.( # X % w < , , , 1 1 1 , < < < < 1 < < < w < 1 1 1 < < < , , 1 w % X # ^ q O o x M p u.Z Z Z V  X",
".XoX].{._.R b Z , 3 k m N 9.4.2.[ ^ 0 9 9 # : 6 8 d r l b b b l l k l b k l j k k d d 8 5 6 1 9 ^ 0 ( *._ 8 k I E.W G V L Q Q /.",
"~.`.'.^.~ H l f : $ f /.2Xm.4.2.2.1.=.} ] ^ _ ) ' ..-.1XR +XN.,...' p.R 8 l._ _ ' ' ..X.,.9.<.:.2.:.=.*.O.C I ~ ^.^._.~ ~  X/.'.",
"Q W W Q C k 8 8 - * d /.uXB.4.2.:.;.=.*.} } [ } | ;.4.sXW.eXZ.5.;.} g.E : x.] ^ [ *.;.2.6.e.8.4.3.1.=.*.` D U ~ Q ! ~ W R Q W ! ",
"B N n M d > ; : * > h W <XB.4.2.:.;.=.| } [ [ [ | *.2.7X~ wXZ.2.*.} f.T > z.( ^ ( | =.;.5.e.8.4.2.1.=.*.` x C C C M l l z l b l ",
"> > > > ; - - : ; 5 h H oXB.4.2.:.;.=.*.} [ ] [ } =.2.7X~ qXZ.1.*.} f.T > x.( ^ ] } =.;.5.e.8.4.3.:.=.*.` r f f f 8 8 5 5 5 > 5 ",
"; - ; ; ; > > > > 8 k m (.m.4.2.1.;.=.| } [ [ } } =.2.7X~ qXZ.1.*.} f.T : x.( ^ ] | ;.;.5.e.8.4.3.:.=.*._ 2 4 5 > > > ; - - - - ",
"5 5 4 5 5 5 5 > > 8 k m l.v.4.2.:.;.=.| } ] ] [ } =.3.7XE.qXZ.1.=.[ g.T > x.( ^ ( | =.:.5.e.8.4.3.:.=.*._ 5 > 5 5 > : > > > > > ",
"h h 8 6 5 8 8 8 8 8 k n F 0.4.2.:.;.=.| } [ ] [ | =.2.7X~ wXZ.2.*. .f.T > x.( ^ ] } =.:.5.e.8.4.3.:.=.*.0 - > 8 h h h h d h h h ",
"^.^.!./.!.~.!.~.~ h ; f N o.4.2.:.;.=.| } [ ] [ } =.2.7X~ qXV.1.*.} f.T : x.( ^ ] } =.:.5.e.8.4.2.:.=.*.` j C ! ^.^.^.^.^.^.^.^.",
"rXyXyXrXtXrX*X&X/.h * f x o.4.2.:.;.=.| } [ [ [ | =.w.fX~ qXA.1.-.[ d.T > x.( / ] | ;.;.5.e.8.4.3.:.=.*.` N I `.yXiXuXuXyXiXiXyX",
"*X+X.X&X X&X+X~.U h : f x o.4.2.1.;.=.*.} [ ] [ } q.4XvX! &XfX5X1X<X<XI > }.p.y ] } =.:.5.e.8.4.3.:.=.| ` N L ^.rXrXwXrXrXrXrX0X",
"XX^.].(.].`.`.W U h - f N #.4.2.:.;.=.| } [ [ } +.<XvX#Xh *XvXcXxXkXyXXXV - g k.A t ;.;.5.e.8.4.3.;.=.*.O.N U !.{.oX{.oX`.].`.].",
"oX'._. X`. XXX~ C 8 ; 7 N $.4.2.:.;.=.*.} [ [ +.oXE C *XoXQ L C V l f 5 h W.M * 8 ^.@.1.5.e.7.4.3.:.*.*.` N I !.`.`.`.`.).W.W.^.",
"+X^. X_. X'.`.W N 8 ; 7 x $.4.2.:.;.=.| } [ y +XW 8 #X XV |.yXrX*XXX`.k.M > 8 L 8 k ].%.5.e.8.4.3.:.=.*.` N I !.].{.].{.^.`./.`.",
"`. X^.U.`.^.].~ V 8 ; 4 z $.4.2.:.;.=.| } [ [.M 7 *X~.+XyXoXQ U ^.rXyX%X`.C 5 5 Q 5 b -X4.e.8.4.3.:.=.*.` N I !.'.`.'.`.`.!.!.`.",
"/.`.Q Q ~.XX`.Y l 8 : 4 F 0.4.2.:.;.=.| | d.z 5 oXL `.xXaXW 8 > h ].yX#X#XoX!.5 8 `.5 x C.7.7.4.3.:.=.| O.N U ~ `.].`.XX^.Q Q ~.",
"/./.].{.^.`.^.U l 8 - 7 (.M.4.2.:.;.=.*.+.$X@ ^.L k.lXaX~ M 8 8 V XXiX].M 5 L ! 5 l ! > dXb.7.4.3.;.=.| ` C R ^.].].].'.`. X^.XX",
"].oX].].oX`.!.C h 5 - 7 }.M.4.2.:.:.;.*.p.g R k R uXiX!.c j h L XXpX*Xh .   - H ! M l R K 1X4.4.4.2.=. ._ r h V L I U W W !.~.].",
"Q ~ W W ~ U V h 8 8 - 5 XXfX7XsX3X-Xc.z.}.+ {.@ U.rXQ M l k l W yX0XM O       - U Q @ U 8 xX7X6X3X;XN.z.A 8 6 8 b v b M M C L P ",
"C V N k l h > ; - ; : 8 .XrX`.W.D M 4 = * C l L .XiX~.V k k h V k.L - O         ; B 5 h ~.Q !.~ U h : @ - > : ; > > > > > > h h ",
"> > : - @ @ > 5 5 5 6 l oXkXhXeX.X_.T K n ].- ^.0XiXjX`.b j d 8 8 > @ O   .       8 U 5 uX%XwXqX%XQ.K K 7 @ - > > > > - - - : ; ",
"5 h d h N L U U U U l f ].4XM.V.b.b.s.&.l.%X$ ~.yXaXcXlX`.M 8 6 5 ; @ + 8 M       5 !.> kXfXZ.B.m.b.s.%.y 6 7 h h k k h j h > > ",
"C ~ `.&X=XrX=X=X=XoXI 7 (.B.4.2.1.:.-.*.j.%X$ ^.W.`.lXvXxX!.d 7 5 ; - 8 Q `.k . O h ~ > kX5X7.4.5.:.*.| ` x H R P M l h h h d h ",
"L  XtXaXiXyXrX=X*X+XP 7 `.V.4.2.1.;.=.*.j.%X@ `.b 8 ].xXlX~ 8 6 4 - $ > M '.^.l B !.Q 4 kX5X6.4.3.;.*.*.` N P ^.=X+X X].].].R d ",
"L rXrX=X&X].oX X].].L 7 {.7X>X>XC.N.g.f.k.&X@ `.V - k `.U.M 8 5 8 > $ O . M ^.! !.oXQ > kXfX>XA.C.N.g.a.A N L `.0X*X0XrX0X*X~.6 ",
"L aX*X{.].`.].].].`.W h ].kXqX%XQ.E.V g h ].- ].P > 6 k f k 8 k U.U * O   . b !.~ ].H 6 uX X%X.X_.E m f f N U !.'.`.'.'.`.!.U 7 ",
"P aX&X'.`.].'.XX`.].W 8 ].iXoX'.W I h 5 5 M 8 N ~.b d n k f l ^.hX0XH +     O C !.W.8 C ! ^.'.^.W.b 8 > 8 V U ~ (.XXXX^.{.`.C 8 ",
"L pX%XXX].^.oXoX`.`.D 4 ].sX,X4X:XN.g.d.}.= ~ O `.+XQ C k b `.jXjXjXoX:       @ ^.P 5 `.f zX4X,X>XT.x.d.A N P W.^.].].'.`.oXV 6 ",
"L aX*X X`.`.].].XX`.C 7 (.M.4.2.:.:.-.*.a.j I z P iXiXXX^.oXaXxXkX2XR @     . l U M l L E ;X6.4.5.:.=.=.` N U W.`. X'.].`.XXl 8 ",
"L aX*X`.oX.X'.{.].].L 5 k.m.4.2.:.:.=.*.} -X= .XQ Q jXvXvXvXcXlXlX~.@ .   O L ~ 5 M Q 8 dXs.7.4.3.:.=.*.` z C R W ~ ~.Q ! !.l 5 ",
"L pX*XXXoX`.].].].`.H 4 Y m.4.2.:.;.=.| } f.z L rXW `.jXvXvXxXlXlX~.@ . O C !.5 f ^.5 L ;X8.8.4.3.:.=.*.0 > 5 8 8 8 6 8 8 5 > 5 ",
"L aX*X^.].oX'.'.`.].L 4 F v.4.2.1.;.=.| } ] :Xz L jX`.oX=XlXxXlXlX&XL h v L + 6 U 5 M @X%.e.8.4.2.:.=.*.0 - * = - $ - - - = - ; ",
"P pX*X'._.`.XX'.XX].N 3 z 0.4.2.:.;.=.| } ] <.4XP k.yX].I XX*X%XoXXX].^.C - h M = n @X&.4.e.8.4.3.:.=.*./ ; 4 h c n z n l b M 8 ",
"I pX*XXXXX`.`.oX].`.M = r $.4.2.:.;.=.*.} [ ( <.,XW k oXaX`.L C N l 8 > 5 !.M @ h }.%.1.5.e.8.4.3.;.=.*._ k V U `.'.'.`.'.'.~ 6 ",
"L iX*X`.`.XX`.].`.U f = e o.4.2.:.;.=.| } [ ] ] <.>X2X^.8 *XvXvXcXkXpX`.7 - h !.p.@.;.:.5.e.8.4.3.:.=.*.O.N I `.iXiXyXyXyX&XW 5 ",
"L yX*XoXoX`.oX].].L : : r o.4.2.:.;.=.*.} [ ] [ } ;.&.zXW.*XfX3X1X;X@XH ; @Xj.t (  .=.:.5.e.8.4.3.:.=.*.` N L ].aXaXiXiXrX^.V > ",
"L yX*X].].`. XXX^.D > = e o.4.2.:.;.=.*.} [ ] [ | *.3.7XE.qXV.1.*.[ f.T : z.( ^ ( } ;.;.5.e.8.4.3.:.=.*.` N L ^.&XoX*X&X+XQ z > ",
"H =XoXXX`.XX^.!.~.V > - j o.4.2.:.;.=.| } ] [ [ } =.3.7X~ qXZ.1.*.} f.T > x.( ^ ] | =.:.5.e.8.4.3.:.=.| ` N I !.].].XX`.'.U M > ",
"k =X'.`.oX`.U U I 8 - 5 j o.4.2.:.;.=.| } [ ] [ } =.2.7X~ qXZ.5.=. .f.T > x.( ^ ( | =.;.5.e.8.4.3.:.=.*.O.N I !.`.XXoXXX`.U M > ",
"k oXXXXX].!.C M l > ; 7 e o.4.2.:.;.=.| } [ [ [ } =.2.7X~ qXZ.2.*.} f.T > z.( ^ ] } =.:.5.e.8.4.3.:.=.| ` N I !.`.`. X`. XU c > ",
"k V z l 8 h l h 8 ; > 8 j o.4.2.:.;.=.*.} [ [ [ } =.2.7X~ qXZ.1.*. .f.T > x.( ^ ] } ;.;.5.e.8.4.3.:.=.*.` N U U./._.`.!.^.Y b - ",
"v h 8 5 : ; > 5 > : 5 g j o.4.2.1.;.=.| } [ ] } | *.2.7X~ qXZ.1.*.} f.T > z.( ^ ] | =.:.5.e.8.4.2.:.=.*.` N I ~ /. X^.~ Q R M * ",
"z k h 8 5 > : - * ; 5 f e ..4.2.:.;.=.*.} [ ] [ } =.3.7XE.qXZ.5.*.} f.T > x.( ^ ( | =.:.5.e.8.4.3.:.=.| ` N I k.!.`.^.~.~.U h $ ",
"l V U U I P L l 8 > 6 f r ..4.2.;.;.=.| } ] ] [ | =.2.7X! qXZ.1.=.[ f.T : x.( ^ ] } =.;.5.e.8.4.3.;.=.*.` C R !././././.^.U 8 * ",
"k ~.oX0X=X0X&XXX!.P L H x o.4.2.:.;.=.*.} [ [ [ } =.3.7X~ wXZ.1.*.[ d.T > z.( ^ ( | =.:.5.e.8.4.3.:.=.*.` z V L L P I I P M > - ",
"l XXyXyXyXrXiXaXuXwX*X.Xk.0.4.2.:.;.=.| } [ ] [ | *.2.7X~ qXZ.5.=. .f.T > x.( ^ ] } =.;.5.e.8.4.3.:.=.*._ 5 4 5 5 5 > 5 5 > ; > ",
"k oXaX#X+X].0XuXtXyXiXpX2Xn.4.2.1.;.=.| } [ ] [ } =.2.7X! qXZ.1.*.} f.T > x.] ^ ] } ;.;.5.e.8.4.3.:.=.*.0 - = - * - - - - ; > h ",
"k XXaX+X].XXXX|.].XX&XrX2Xm.4.4.1.:.;.*.| [ } } *.=.3.7XW.eXZ.2.=. .d.E > x.[ ^ [ *.;.:.5.e.8.4.3.;.=.=.0 $ - > > > > > > 8 8 h ",
"k oXaX+X`.XX/./.'.].^.^.{.b.>.,.X.X...{ { ) _ ) ) | ;.6XI %XB.:.*.} a.K ; j.0 9 0 ( | ;.5.8.8.4.3.2.;.} 9 * ; 5 5 6 5 5 6 l l l ",
"k oXyX+XoX+X`.'.'.'.`.'.oX'.Y D D D D D C B z j f t ^ x.7 K p.) _ / y f : l   . . % / ' ,.9.<.>.-. . .q ; 4 M U P L L C V M z M ",
"l oX=X{./.].U.E /.].^.'. X`./.~ ! ! Q ! ! ! W P L C N B V B B M N 8 ; 8 l M V N M B N N j r r r r r j z n D `.tXiXrX*XoX].^.V h ",
"k XX^.H H C H C D L H H D H H D D H L H H H D H H H H H D C H V n k > : h L ^.!.!.! W R I I C V I W W.~ !.'..X].XX XXX`.oXyX!.- ",
"k !.V 6 5 5 5 5 5 5 5 6 6 5 5 5 5 5 5 5 5 5 5 5 5 5 5 5 5 5 5 5 5 5 > - 5 R #X X].Q ~ ~ ~ ! N I *X].].].].oXoX{.'.XX`.oX`.XXl - ",
"l 8 - - - - $ = - $ - - - = - - - ; - * - $ - - - - $ - $ - - - - * * ; 8 h r k 8 M H C C D n U =X].`.].XX].`.'.].`.XX X~.!.l - ",
"M k 8 8 8 > > > > > > > > > > > > > > > > > > > > > > > > > > > > > > > 5 h M l 5 5 $ - - - ; 8 M M l M c n M b M n c b n M l ; ",
"M v M M l h k k k l k l 8 5 7 6 5 5 8 8 5 7 8 5 6 8 5 7 5 8 8 5 5 8 8 5 5 h M M M l 5 7 6 5 8 8 M 8 - @ * * $ @ @ $ @ $ @ @ * - "
};
